<svg width="253" height="78" viewBox="0 0 253 78" fill="none" xmlns="http://www.w3.org/2000/svg">
<path d="M252.664 21.4494C252.731 18.2679 251.402 9.63539 248.917 4.43772C248.194 2.92316 247.544 1.10127 246.238 0.641494C244.525 0.0415733 244.052 1.46761 242.908 2.69942C238.31 7.66352 234.743 11.5507 227.123 14.1643C222.435 15.7723 217.385 16.4386 212.38 17.0483C200.819 18.4547 189.582 19.6201 178.352 20.5397C168.413 21.3511 158.486 21.9756 148.352 22.3935C147.638 22.4255 146.918 22.4525 146.201 22.4796C145.911 22.4919 145.618 22.5017 145.328 22.514C144.959 22.5263 144.013 21.9461 143.856 20.879C143.833 20.6872 143.905 20.4979 143.987 20.3209C144.759 18.6268 146.756 17.3876 148.886 17.25C149.084 17.2352 149.212 17.0778 149.171 16.9156C149.156 16.8566 149.148 16.7976 149.139 16.7385C149.122 16.5886 149.124 16.4386 149.151 16.2886C149.182 16.0993 148.979 15.9469 148.762 15.9886C146.622 16.3771 144.233 17.0901 143.377 17.9581C142.747 18.5973 142.41 19.1997 142.216 19.9226C142.004 20.7069 142.239 21.4764 142.527 22.2731C142.553 22.3419 142.544 22.4108 142.512 22.4673C142.463 22.5583 142.361 22.6222 142.233 22.6247C140.753 22.6763 139.261 22.7206 137.769 22.7599C137.464 22.7697 137.159 22.7771 136.852 22.7845C136.35 22.7992 135.847 22.8115 135.342 22.8214C135.218 22.8238 135.087 22.8287 134.962 22.8312C134.791 22.8361 134.643 22.7255 134.634 22.5804C134.605 22.1723 134.649 21.5281 134.628 21.1298C134.608 20.7757 134.294 20.4831 133.882 20.434C133.421 20.3799 132.712 20.434 132.065 20.3995C131.995 20.3971 131.935 20.375 131.882 20.3381C131.879 20.3381 131.879 20.3381 131.879 20.3381C131.807 20.2938 131.763 20.2225 131.757 20.1414C131.743 19.8439 131.723 19.4333 131.708 19.1653C131.699 19.0153 131.836 18.9268 132.01 18.9194C132.051 18.917 132.463 18.9071 132.788 18.8997C133.014 18.8948 133.194 18.7326 133.186 18.5408L133.145 17.395C133.139 17.2598 133.009 17.1541 132.852 17.1565L128.469 17.191C128.242 17.1934 128.062 17.3508 128.065 17.5401L128.08 18.6662C128.083 18.8506 128.266 18.9956 128.483 18.9858C128.951 18.9637 129.665 18.9342 129.702 18.9563C129.778 19.0055 129.83 19.0792 129.836 19.1653C129.853 19.507 129.906 19.8488 129.92 20.1906C129.923 20.2766 129.882 20.3528 129.813 20.402H129.81C129.752 20.4512 129.676 20.4758 129.589 20.4758C129.273 20.4733 128.686 20.4905 128.219 20.5102C127.711 20.5299 127.264 20.8519 127.221 21.2822C127.218 21.3093 127.218 21.3363 127.218 21.3609C127.276 22.2288 127.25 22.3222 127.206 23.0721C127.206 23.0967 127.2 23.1213 127.189 23.1434C127.145 23.2516 127.029 23.3303 126.89 23.3328C125.299 23.3573 122.939 23.3795 122.089 23.3893C121.935 23.3918 121.586 23.3942 121.554 23.2688C121.552 23.2541 121.517 22.0223 121.493 21.2011C121.482 20.7979 121.105 20.4708 120.628 20.4512C119.804 20.4168 118.672 20.3725 118.672 20.3725C118.568 20.3233 118.492 20.3602 118.495 20.2545C118.492 20.0504 118.457 19.8488 118.457 19.6447C118.457 19.5365 118.527 19.4407 118.634 19.3989C118.681 19.3767 118.733 19.3694 118.788 19.3694C118.933 19.3718 119.697 19.3571 120.065 19.3497C120.179 19.3472 120.271 19.271 120.274 19.1727L120.324 17.8179C120.327 17.7171 120.234 17.6335 120.115 17.6311L115.078 17.5425C114.957 17.5401 114.858 17.6237 114.861 17.7245L114.875 19.2267C114.875 19.3226 114.968 19.4038 115.081 19.4062C115.409 19.4161 116.051 19.4308 116.385 19.4062C116.478 19.4013 116.568 19.4284 116.629 19.48C116.681 19.5193 116.716 19.5783 116.727 19.6447C116.748 19.7726 116.759 19.9349 116.75 20.107C116.742 20.2201 116.649 20.311 116.524 20.3455C116.521 20.3455 116.521 20.3455 116.518 20.3455C116.489 20.3553 116.463 20.3627 116.428 20.3602C116.062 20.3627 115.549 20.3479 115.096 20.3356C114.541 20.3184 114.083 20.6946 114.086 21.1642C114.089 21.8108 114.092 22.6468 114.077 23.0303C114.074 23.1926 114.068 23.3377 114.063 23.4508C114.06 23.5983 113.915 23.7163 113.74 23.7163L108.971 23.6991C108.788 23.6991 108.643 23.5713 108.649 23.4164C108.658 23.2565 108.666 23.0353 108.669 22.7894C108.684 22.2829 108.678 21.6682 108.617 21.2257C108.597 21.0806 108.574 20.9282 108.486 20.7978C108.28 20.4979 107.81 20.434 107.401 20.3995L105.485 20.3577C105.412 20.3577 105.349 20.3332 105.293 20.2963H105.291C105.212 20.2471 105.166 20.1684 105.172 20.0799C105.18 19.8513 105.154 19.5882 105.169 19.3644C105.174 19.2636 105.349 19.1284 105.351 19.1309C105.383 19.1161 105.418 19.1063 105.456 19.1038C105.627 19.0891 106.466 19.0473 106.858 19.0301C106.971 19.0251 107.058 18.944 107.058 18.8481L107.047 17.5007C107.047 17.3999 106.951 17.1959 106.829 17.1983L101.427 17.2475C101.308 17.25 101.212 17.518 101.215 17.6188L101.253 18.9342C101.256 19.0325 101.349 19.1112 101.465 19.1112L102.832 19.121C102.905 19.121 102.971 19.153 103.009 19.2046C103.076 19.2931 103.169 19.4308 103.163 19.507C103.154 19.6275 103.151 19.716 103.151 19.7996C103.145 20.0529 102.899 20.252 102.6 20.2471C102.597 20.2471 102.597 20.2471 102.597 20.2471C101.685 20.2324 100.501 20.3209 100.397 20.9429C100.35 21.2183 100.321 21.6977 100.301 22.2042C100.275 22.8484 100.269 23.5393 100.266 23.9056C100.266 24.0556 100.127 24.1736 99.9524 24.1761C99.9321 24.1761 99.9089 24.1761 99.8886 24.1786C99.8857 24.1786 99.8857 24.1786 99.8828 24.1786C98.2427 24.1933 91.491 24.2499 82.211 24.3089C82.2081 24.3089 82.2081 24.3089 82.2052 24.3089C63.0618 24.4293 33.1494 24.567 15.0306 24.3728C12.9349 24.3482 10.8914 24.3752 8.84204 23.9991C8.18312 23.8761 7.57065 23.7434 6.99591 23.5958H6.99301C5.60551 23.2418 4.42991 22.8066 3.27173 22.2362C1.19339 21.2134 0.609938 25.4226 0.670895 27.4584C0.720241 29.2508 0.787002 31.1022 1.68104 32.7274C1.8552 33.0397 2.07291 33.3544 2.42994 33.5167C3.0337 33.7847 3.76519 33.5142 4.36896 33.2487C4.59827 33.1479 4.80726 33.052 5.00174 32.9659C6.89431 32.1152 8.98427 31.6308 11.1236 31.5448C11.2339 31.5399 11.3035 31.5374 11.3093 31.5374C29.2278 31.3137 52.0954 31.2719 51.9154 31.4587C51.8951 31.4809 51.8719 31.4981 51.8457 31.5153C45.8923 35.2968 43.8226 42.2524 43.5382 44.1726C42.3452 52.1781 47.0998 60.6041 55.2013 64.8502C61.6453 68.226 69.5349 68.8087 77.111 68.9218C82.6348 69.003 89.1485 68.8751 93.163 68.8653C94.7624 68.8604 95.9554 68.7055 99.5519 68.9489C99.5983 68.9513 99.6448 68.9563 99.6912 68.9612C99.8567 68.9759 99.9815 69.0989 99.9757 69.2415C99.935 70.6503 99.8915 72.0591 99.8479 73.468C99.8479 73.5319 99.816 73.5933 99.7696 73.6401C99.189 74.1908 98.742 74.835 98.4604 75.5283C98.385 75.7201 98.3153 75.9217 98.3443 76.1233C98.4111 76.6274 99.0207 76.9421 99.5838 77.1265C102.051 77.9354 104.437 77.9723 107.052 77.6256C107.668 77.5445 108.658 77.188 109.166 76.888C110.173 76.2954 107.906 74.0457 107.891 73.822C107.886 73.7581 107.883 73.6966 107.88 73.6302C107.798 72.2952 107.999 70.6773 107.996 69.266C107.996 69.2513 107.996 69.2341 108.002 69.2193C108.022 69.1062 108.129 69.0153 108.266 68.9981C108.582 68.9587 108.902 68.9317 109.215 68.912C110.585 68.8333 111.941 68.9317 113.337 68.8825C113.421 68.88 113.502 68.9046 113.563 68.9489C113.63 68.9956 113.674 69.0694 113.676 69.1505C113.705 70.8347 113.72 72.0936 113.575 73.527C113.56 73.6548 113.145 73.8441 112.78 74.1121C112.42 74.3752 111.662 74.8129 111.459 76.1774C111.418 76.4553 111.552 76.5757 111.958 76.7429C115.16 78.0559 119.491 77.8666 121.351 77.1363C121.81 76.9568 122.318 76.7651 122.631 76.4307C123.084 75.9512 122.73 75.2874 122.329 74.7711C122.042 74.4023 121.592 73.9794 121.279 73.8048C121.258 73.795 121.238 73.7851 121.221 73.7753C121.128 73.7237 121.075 73.6376 121.078 73.5466C121.084 73.0033 121.107 71.1051 121.134 69.7184C121.136 69.6471 121.168 69.5832 121.224 69.5365C121.279 69.4849 121.36 69.4554 121.447 69.4504C121.821 69.4431 122.196 69.4357 122.57 69.4259C123.972 69.3964 125.377 69.3669 126.779 69.3349C126.837 69.3324 126.895 69.3472 126.942 69.3693C127.046 69.416 127.113 69.507 127.107 69.6127C127.067 71.1494 126.988 73.6646 126.988 73.6646C126.988 73.6646 123.752 76.084 125.879 76.7405C130.115 78.046 132.562 77.7534 136.004 76.9175C136.419 76.8167 136.797 76.6077 137.038 76.3028C137.641 75.5406 137.011 74.8424 136.605 74.5203C136.445 74.3949 134.921 73.4507 134.921 73.4507C134.921 73.4507 135.009 71.0068 135.128 69.6717C135.13 69.6226 135.151 69.5783 135.18 69.539C135.238 69.4677 135.331 69.4234 135.435 69.4209L136.126 69.3964L143.322 69.1308C143.322 69.1308 163.682 69.1456 169.647 68.0121C177.586 66.5049 183.075 62.5145 185.655 58.3888C191.327 49.3187 191.385 33.9715 177.591 28.142C177.464 28.0879 177.127 27.9109 176.77 27.724C176.671 27.6699 176.625 27.5937 176.616 27.5175C176.602 27.365 176.738 27.2052 176.961 27.22C183.275 27.6551 211.356 29.7819 228.847 34.3108C231.164 34.9107 234.964 36.3737 237.318 38.2988C239.675 40.2264 241.521 42.5573 243.149 44.9619C243.384 45.3086 243.637 45.6749 243.962 45.9576C244.455 46.3904 245.146 46.6461 246.133 46.3166C246.949 46.0462 247.576 45.4807 247.93 44.8021C252.026 36.8875 252.519 28.4075 252.664 21.4494ZM79.5841 58.7625C79.1313 59.4608 79.0906 60.2943 79.0587 61.0934C79.0413 61.472 79.0297 61.8506 79.0152 62.2293C78.989 62.8857 78.9658 63.5398 78.9397 64.1962C78.9368 64.2847 78.9368 64.3782 78.9397 64.4691C78.9513 64.624 78.8091 64.7543 78.6262 64.7568L73.8367 64.8281H73.8135C73.4507 64.8109 64.908 65.2338 57.0387 60.518C48.9924 55.6941 49.5932 51.5413 49.0475 48.4262C48.4989 45.3159 49.2943 38.5693 57.6918 34.3256C61.1432 32.5848 63.5872 32.1201 64.4261 31.7292H64.429C64.9196 31.5448 65.0038 31.5473 65.0038 31.5473L97.8422 31.1047L99.5722 31.0801C99.7522 31.0776 99.9002 31.2006 99.8973 31.353L99.8857 33.2659L99.7667 55.7924C99.7638 55.7949 99.7667 55.7949 99.7667 55.7973L99.7609 56.7833C99.7609 56.8374 99.7028 56.8939 99.6302 56.9431C99.4474 57.0636 99.2122 57.1176 98.9771 57.1103L97.4561 57.0636C97.4561 57.0636 96.3821 57.0759 96.3531 56.9873C96.3211 56.8964 97.0642 56.353 97.2442 56.1071C97.8915 55.2343 98.2631 53.6681 98.4953 52.124C98.5678 51.6446 98.5795 51.0668 97.7144 51.0545C96.7914 51.0398 96.9336 53.0215 96.4982 54.0099C95.8944 55.3769 93.999 56.235 92.3212 55.9031C90.6405 55.5687 89.3953 54.0861 89.5723 52.633C89.642 52.0626 89.7639 51.2807 89.1166 51.1111C88.4925 50.9439 88.0397 51.6274 87.9584 52.1757C87.761 53.5181 88.1906 54.9147 89.105 56.0186C89.2734 56.2178 88.9192 56.9357 88.6289 56.9308C86.0397 56.8914 84.2517 56.771 81.7379 57.2012C80.8003 57.3684 80.0456 58.0495 79.5841 58.7625ZM99.5374 64.4249C99.4996 64.4421 99.4561 64.4495 99.4096 64.4495L98.2456 64.4667L82.214 64.7052C82.1153 64.7052 82.0224 64.6732 81.9614 64.6093C80.7655 63.3849 80.7074 61.381 81.9875 60.1861C83.5202 58.7576 86.1123 58.7305 88.3851 58.8068C90.3212 58.8732 92.2573 58.9371 94.1935 59.0035C95.9438 59.0649 97.6912 59.1239 99.4416 59.1854C99.5373 59.1903 99.6244 59.2272 99.6796 59.2838C99.7231 59.3305 99.7492 59.3895 99.7492 59.4559L99.7231 64.1766C99.7202 64.2872 99.6477 64.3806 99.5374 64.4249ZM113.691 64.0241V64.034C113.65 64.152 113.531 64.238 113.383 64.2405L109.526 64.297L108.687 64.3093C108.574 64.3093 108.472 64.2651 108.414 64.1889C108.379 64.1471 108.362 64.093 108.362 64.0364L108.547 32.6905L108.556 31.444L108.559 31.235C108.559 31.085 108.704 30.9621 108.881 30.9596L113.557 30.8982C113.737 30.8957 113.885 31.0186 113.883 31.1711L113.874 32.5332L113.703 63.97C113.697 63.9897 113.694 64.0069 113.691 64.0241ZM126.742 63.8495C126.742 63.852 126.742 63.852 126.742 63.852C126.698 63.9627 126.585 64.0438 126.44 64.0462L122.774 64.1003L121.749 64.1151C121.627 64.1151 121.52 64.061 121.464 63.9749C121.435 63.9356 121.424 63.8889 121.424 63.8397L121.949 32.334L121.964 31.4219L121.97 31.0531C121.972 30.9031 122.118 30.7801 122.295 30.7777L126.591 30.7211C126.771 30.7187 126.919 30.8416 126.916 30.994L126.91 32.2136L126.756 63.7758C126.753 63.8004 126.75 63.825 126.742 63.8495ZM136.44 63.8987L135.696 63.9086C135.514 63.911 135.366 63.7881 135.363 63.6332V63.5398V63.5275L135.316 59.8788C135.316 59.7878 135.368 59.7017 135.456 59.6526C135.487 59.6304 135.525 59.6157 135.566 59.6083C135.737 59.5739 135.908 59.5419 136.085 59.5124C136.567 59.4288 137.049 59.3649 137.537 59.3133C140.225 59.0305 143.014 59.1879 145.734 59.3526C148.796 59.537 151.859 59.7239 154.924 59.9083C156.878 60.0263 158.834 60.1443 160.79 60.2623C161.716 60.3189 162.747 60.4197 163.336 61.0245C163.902 61.6023 163.859 62.4235 163.841 63.2201C163.841 63.2767 163.818 63.3283 163.786 63.3726C163.728 63.4439 163.632 63.4906 163.525 63.4906L142.35 63.8053L139.244 63.852L136.44 63.8987ZM143.302 51.3274C143.943 50.5308 144.936 49.953 146.027 49.6776C146.21 49.6309 146.402 49.5916 146.593 49.5645C147.267 49.4637 147.963 49.4908 148.59 49.7072C149.072 49.8719 149.496 50.1399 149.87 50.4448C150.872 51.2537 151.586 52.3748 151.522 53.5525C151.467 54.5852 150.622 56.0825 149.484 56.4587C148.245 56.8669 146.93 57.0414 145.592 56.6923C144.169 56.321 142.968 55.313 142.64 54.0836C142.393 53.1419 142.66 52.1241 143.302 51.3274ZM177.26 57.5061C176.512 58.1651 175.667 58.7797 174.784 59.3501C171.864 61.2409 168.549 62.6128 167.089 63.1734C166.935 63.2324 166.764 63.1808 166.686 63.0726C166.654 63.0308 166.637 62.9816 166.637 62.9275C166.625 61.2851 166.5 59.6747 165.179 58.5609C164.036 57.5946 162.314 57.3463 160.709 57.2037C157.679 56.9406 154.622 56.8988 151.58 57.0857C151.304 57.1004 151.133 56.8349 151.304 56.648C152.158 55.7162 152.904 54.6983 153.252 53.5648C153.667 52.2273 153.444 50.6857 152.349 49.6629C151.65 49.0064 150.66 48.6204 149.661 48.3623C147.139 47.7107 144.085 47.9 142.306 49.5473C141.244 50.5284 140.788 51.8806 140.643 53.2059C140.532 54.2385 140.785 55.4826 141.56 56.1883C141.757 56.3702 141.612 56.6579 141.322 56.653C139.923 56.6136 138.521 56.68 137.136 56.8595C136.794 56.9013 136.451 56.9529 136.114 57.0095C135.966 57.0341 135.818 57.0611 135.67 57.0881C135.592 57.1029 135.517 57.0931 135.453 57.0636C135.351 57.0218 135.278 56.9357 135.278 56.8275L134.977 32.0218L134.974 31.8325L134.962 30.8908C134.959 30.7383 135.104 30.6129 135.284 30.6105L136.434 30.5957H136.451L157.179 30.3179C160.605 30.2712 164.03 30.6425 167.304 31.4932C169.269 32.0046 171.316 32.7127 172.964 33.6863C177.707 36.4917 181.278 40.1281 181.571 44.1112C181.867 48.0869 181.289 53.9656 177.26 57.5061Z" fill="#F5BE4E"/>
<mask id="mask0_221_12284" style="mask-type:luminance" maskUnits="userSpaceOnUse" x="0" y="0" width="253" height="78">
<path d="M252.664 21.4494C252.731 18.2679 251.402 9.63539 248.917 4.43772C248.194 2.92316 247.544 1.10127 246.238 0.641494C244.525 0.0415733 244.052 1.46761 242.908 2.69942C238.31 7.66352 234.743 11.5507 227.123 14.1643C222.435 15.7723 217.385 16.4386 212.38 17.0483C200.819 18.4547 189.582 19.6201 178.352 20.5397C168.413 21.3511 158.486 21.9756 148.352 22.3935C147.638 22.4255 146.918 22.4525 146.201 22.4796C145.911 22.4919 145.618 22.5017 145.328 22.514C144.959 22.5263 144.013 21.9461 143.856 20.879C143.833 20.6872 143.905 20.4979 143.987 20.3209C144.759 18.6268 146.756 17.3876 148.886 17.25C149.084 17.2352 149.212 17.0778 149.171 16.9156C149.156 16.8566 149.148 16.7976 149.139 16.7385C149.122 16.5886 149.124 16.4386 149.151 16.2886C149.182 16.0993 148.979 15.9469 148.762 15.9886C146.622 16.3771 144.233 17.0901 143.377 17.9581C142.747 18.5973 142.41 19.1997 142.216 19.9226C142.004 20.7069 142.239 21.4764 142.527 22.2731C142.553 22.3419 142.544 22.4108 142.512 22.4673C142.463 22.5583 142.361 22.6222 142.233 22.6247C140.753 22.6763 139.261 22.7206 137.769 22.7599C137.464 22.7697 137.159 22.7771 136.852 22.7845C136.35 22.7992 135.847 22.8115 135.342 22.8214C135.218 22.8238 135.087 22.8287 134.962 22.8312C134.791 22.8361 134.643 22.7255 134.634 22.5804C134.605 22.1723 134.649 21.5281 134.628 21.1298C134.608 20.7757 134.294 20.4831 133.882 20.434C133.421 20.3799 132.712 20.434 132.065 20.3995C131.995 20.3971 131.935 20.375 131.882 20.3381C131.879 20.3381 131.879 20.3381 131.879 20.3381C131.807 20.2938 131.763 20.2225 131.757 20.1414C131.743 19.8439 131.723 19.4333 131.708 19.1653C131.699 19.0153 131.836 18.9268 132.01 18.9194C132.051 18.917 132.463 18.9071 132.788 18.8997C133.014 18.8948 133.194 18.7326 133.186 18.5408L133.145 17.395C133.139 17.2598 133.009 17.1541 132.852 17.1565L128.469 17.191C128.242 17.1934 128.062 17.3508 128.065 17.5401L128.08 18.6662C128.083 18.8506 128.266 18.9956 128.483 18.9858C128.951 18.9637 129.665 18.9342 129.702 18.9563C129.778 19.0055 129.83 19.0792 129.836 19.1653C129.853 19.507 129.906 19.8488 129.92 20.1906C129.923 20.2766 129.882 20.3528 129.813 20.402H129.81C129.752 20.4512 129.676 20.4758 129.589 20.4758C129.273 20.4733 128.686 20.4905 128.219 20.5102C127.711 20.5299 127.264 20.8519 127.221 21.2822C127.218 21.3093 127.218 21.3363 127.218 21.3609C127.276 22.2288 127.25 22.3222 127.206 23.0721C127.206 23.0967 127.2 23.1213 127.189 23.1434C127.145 23.2516 127.029 23.3303 126.89 23.3328C125.299 23.3573 122.939 23.3795 122.089 23.3893C121.935 23.3918 121.586 23.3942 121.554 23.2688C121.552 23.2541 121.517 22.0223 121.493 21.2011C121.482 20.7979 121.105 20.4708 120.628 20.4512C119.804 20.4168 118.672 20.3725 118.672 20.3725C118.568 20.3233 118.492 20.3602 118.495 20.2545C118.492 20.0504 118.457 19.8488 118.457 19.6447C118.457 19.5365 118.527 19.4407 118.634 19.3989C118.681 19.3767 118.733 19.3694 118.788 19.3694C118.933 19.3718 119.697 19.3571 120.065 19.3497C120.179 19.3472 120.271 19.271 120.274 19.1727L120.324 17.8179C120.327 17.7171 120.234 17.6335 120.115 17.6311L115.078 17.5425C114.957 17.5401 114.858 17.6237 114.861 17.7245L114.875 19.2267C114.875 19.3226 114.968 19.4038 115.081 19.4062C115.409 19.4161 116.051 19.4308 116.385 19.4062C116.478 19.4013 116.568 19.4284 116.629 19.48C116.681 19.5193 116.716 19.5783 116.727 19.6447C116.748 19.7726 116.759 19.9349 116.75 20.107C116.742 20.2201 116.649 20.311 116.524 20.3455C116.521 20.3455 116.521 20.3455 116.518 20.3455C116.489 20.3553 116.463 20.3627 116.428 20.3602C116.062 20.3627 115.549 20.3479 115.096 20.3356C114.541 20.3184 114.083 20.6946 114.086 21.1642C114.089 21.8108 114.092 22.6468 114.077 23.0303C114.074 23.1926 114.068 23.3377 114.063 23.4508C114.06 23.5983 113.915 23.7163 113.74 23.7163L108.971 23.6991C108.788 23.6991 108.643 23.5713 108.649 23.4164C108.658 23.2565 108.666 23.0353 108.669 22.7894C108.684 22.2829 108.678 21.6682 108.617 21.2257C108.597 21.0806 108.574 20.9282 108.486 20.7978C108.28 20.4979 107.81 20.434 107.401 20.3995L105.485 20.3577C105.412 20.3577 105.349 20.3332 105.293 20.2963H105.291C105.212 20.2471 105.166 20.1684 105.172 20.0799C105.18 19.8513 105.154 19.5882 105.169 19.3644C105.174 19.2636 105.349 19.1284 105.351 19.1309C105.383 19.1161 105.418 19.1063 105.456 19.1038C105.627 19.0891 106.466 19.0473 106.858 19.0301C106.971 19.0251 107.058 18.944 107.058 18.8481L107.047 17.5007C107.047 17.3999 106.951 17.1959 106.829 17.1983L101.427 17.2475C101.308 17.25 101.212 17.518 101.215 17.6188L101.253 18.9342C101.256 19.0325 101.349 19.1112 101.465 19.1112L102.832 19.121C102.905 19.121 102.971 19.153 103.009 19.2046C103.076 19.2931 103.169 19.4308 103.163 19.507C103.154 19.6275 103.151 19.716 103.151 19.7996C103.145 20.0529 102.899 20.252 102.6 20.2471C102.597 20.2471 102.597 20.2471 102.597 20.2471C101.685 20.2324 100.501 20.3209 100.397 20.9429C100.35 21.2183 100.321 21.6977 100.301 22.2042C100.275 22.8484 100.269 23.5393 100.266 23.9056C100.266 24.0556 100.127 24.1736 99.9524 24.1761C99.9321 24.1761 99.9089 24.1761 99.8886 24.1786C99.8857 24.1786 99.8857 24.1786 99.8828 24.1786C98.2427 24.1933 91.491 24.2499 82.211 24.3089C82.2081 24.3089 82.2081 24.3089 82.2052 24.3089C63.0618 24.4293 33.1494 24.567 15.0306 24.3728C12.9349 24.3482 10.8914 24.3752 8.84204 23.9991C8.18312 23.8761 7.57065 23.7434 6.99591 23.5958H6.99301C5.60551 23.2418 4.42991 22.8066 3.27173 22.2362C1.19339 21.2134 0.609938 25.4226 0.670895 27.4584C0.720241 29.2508 0.787002 31.1022 1.68104 32.7274C1.8552 33.0397 2.07291 33.3544 2.42994 33.5167C3.0337 33.7847 3.76519 33.5142 4.36896 33.2487C4.59827 33.1479 4.80726 33.052 5.00174 32.9659C6.89431 32.1152 8.98427 31.6308 11.1236 31.5448C11.2339 31.5399 11.3035 31.5374 11.3093 31.5374C29.2278 31.3137 52.0954 31.2719 51.9154 31.4587C51.8951 31.4809 51.8719 31.4981 51.8457 31.5153C45.8923 35.2968 43.8226 42.2524 43.5382 44.1726C42.3452 52.1781 47.0998 60.6041 55.2013 64.8502C61.6453 68.226 69.5349 68.8087 77.111 68.9218C82.6348 69.003 89.1485 68.8751 93.163 68.8653C94.7624 68.8604 95.9554 68.7055 99.5519 68.9489C99.5983 68.9513 99.6448 68.9563 99.6912 68.9612C99.8567 68.9759 99.9815 69.0989 99.9757 69.2415C99.935 70.6503 99.8915 72.0591 99.8479 73.468C99.8479 73.5319 99.816 73.5933 99.7696 73.6401C99.189 74.1908 98.742 74.835 98.4604 75.5283C98.385 75.7201 98.3153 75.9217 98.3443 76.1233C98.4111 76.6274 99.0207 76.9421 99.5838 77.1265C102.051 77.9354 104.437 77.9723 107.052 77.6256C107.668 77.5445 108.658 77.188 109.166 76.888C110.173 76.2954 107.906 74.0457 107.891 73.822C107.886 73.7581 107.883 73.6966 107.88 73.6302C107.798 72.2952 107.999 70.6773 107.996 69.266C107.996 69.2513 107.996 69.2341 108.002 69.2193C108.022 69.1062 108.129 69.0153 108.266 68.9981C108.582 68.9587 108.902 68.9317 109.215 68.912C110.585 68.8333 111.941 68.9317 113.337 68.8825C113.421 68.88 113.502 68.9046 113.563 68.9489C113.63 68.9956 113.674 69.0694 113.676 69.1505C113.705 70.8347 113.72 72.0936 113.575 73.527C113.56 73.6548 113.145 73.8441 112.78 74.1121C112.42 74.3752 111.662 74.8129 111.459 76.1774C111.418 76.4553 111.552 76.5757 111.958 76.7429C115.16 78.0559 119.491 77.8666 121.351 77.1363C121.81 76.9568 122.318 76.7651 122.631 76.4307C123.084 75.9512 122.73 75.2874 122.329 74.7711C122.042 74.4023 121.592 73.9794 121.279 73.8048C121.258 73.795 121.238 73.7851 121.221 73.7753C121.128 73.7237 121.075 73.6376 121.078 73.5466C121.084 73.0033 121.107 71.1051 121.134 69.7184C121.136 69.6471 121.168 69.5832 121.224 69.5365C121.279 69.4849 121.36 69.4554 121.447 69.4504C121.821 69.4431 122.196 69.4357 122.57 69.4259C123.972 69.3964 125.377 69.3669 126.779 69.3349C126.837 69.3324 126.895 69.3472 126.942 69.3693C127.046 69.416 127.113 69.507 127.107 69.6127C127.067 71.1494 126.988 73.6646 126.988 73.6646C126.988 73.6646 123.752 76.084 125.879 76.7405C130.115 78.046 132.562 77.7534 136.004 76.9175C136.419 76.8167 136.797 76.6077 137.038 76.3028C137.641 75.5406 137.011 74.8424 136.605 74.5203C136.445 74.3949 134.921 73.4507 134.921 73.4507C134.921 73.4507 135.009 71.0068 135.128 69.6717C135.13 69.6226 135.151 69.5783 135.18 69.539C135.238 69.4677 135.331 69.4234 135.435 69.4209L136.126 69.3964L143.322 69.1308C143.322 69.1308 163.682 69.1456 169.647 68.0121C177.586 66.5049 183.075 62.5145 185.655 58.3888C191.327 49.3187 191.385 33.9715 177.591 28.142C177.464 28.0879 177.127 27.9109 176.77 27.724C176.671 27.6699 176.625 27.5937 176.616 27.5175C176.602 27.365 176.738 27.2052 176.961 27.22C183.275 27.6551 211.356 29.7819 228.847 34.3108C231.164 34.9107 234.964 36.3737 237.318 38.2988C239.675 40.2264 241.521 42.5573 243.149 44.9619C243.384 45.3086 243.637 45.6749 243.962 45.9576C244.455 46.3904 245.146 46.6461 246.133 46.3166C246.949 46.0462 247.576 45.4807 247.93 44.8021C252.026 36.8875 252.519 28.4075 252.664 21.4494ZM79.5841 58.7625C79.1313 59.4608 79.0906 60.2943 79.0587 61.0934C79.0413 61.472 79.0297 61.8506 79.0152 62.2293C78.989 62.8857 78.9658 63.5398 78.9397 64.1962C78.9368 64.2847 78.9368 64.3782 78.9397 64.4691C78.9513 64.624 78.8091 64.7543 78.6262 64.7568L73.8367 64.8281H73.8135C73.4507 64.8109 64.908 65.2338 57.0387 60.518C48.9924 55.6941 49.5932 51.5413 49.0475 48.4262C48.4989 45.3159 49.2943 38.5693 57.6918 34.3256C61.1432 32.5848 63.5872 32.1201 64.4261 31.7292H64.429C64.9196 31.5448 65.0038 31.5473 65.0038 31.5473L97.8422 31.1047L99.5722 31.0801C99.7522 31.0776 99.9002 31.2006 99.8973 31.353L99.8857 33.2659L99.7667 55.7924C99.7638 55.7949 99.7667 55.7949 99.7667 55.7973L99.7609 56.7833C99.7609 56.8374 99.7028 56.8939 99.6302 56.9431C99.4474 57.0636 99.2122 57.1176 98.9771 57.1103L97.4561 57.0636C97.4561 57.0636 96.3821 57.0759 96.3531 56.9873C96.3211 56.8964 97.0642 56.353 97.2442 56.1071C97.8915 55.2343 98.2631 53.6681 98.4953 52.124C98.5678 51.6446 98.5795 51.0668 97.7144 51.0545C96.7914 51.0398 96.9336 53.0215 96.4982 54.0099C95.8944 55.3769 93.999 56.235 92.3212 55.9031C90.6405 55.5687 89.3953 54.0861 89.5723 52.633C89.642 52.0626 89.7639 51.2807 89.1166 51.1111C88.4925 50.9439 88.0397 51.6274 87.9584 52.1757C87.761 53.5181 88.1906 54.9147 89.105 56.0186C89.2734 56.2178 88.9192 56.9357 88.6289 56.9308C86.0397 56.8914 84.2517 56.771 81.7379 57.2012C80.8003 57.3684 80.0456 58.0495 79.5841 58.7625ZM99.5374 64.4249C99.4996 64.4421 99.4561 64.4495 99.4096 64.4495L98.2456 64.4667L82.214 64.7052C82.1153 64.7052 82.0224 64.6732 81.9614 64.6093C80.7655 63.3849 80.7074 61.381 81.9875 60.1861C83.5202 58.7576 86.1123 58.7305 88.3851 58.8068C90.3212 58.8732 92.2573 58.9371 94.1935 59.0035C95.9438 59.0649 97.6912 59.1239 99.4416 59.1854C99.5373 59.1903 99.6244 59.2272 99.6796 59.2838C99.7231 59.3305 99.7492 59.3895 99.7492 59.4559L99.7231 64.1766C99.7202 64.2872 99.6477 64.3806 99.5374 64.4249ZM113.691 64.0241V64.034C113.65 64.152 113.531 64.238 113.383 64.2405L109.526 64.297L108.687 64.3093C108.574 64.3093 108.472 64.2651 108.414 64.1889C108.379 64.1471 108.362 64.093 108.362 64.0364L108.547 32.6905L108.556 31.444L108.559 31.235C108.559 31.085 108.704 30.9621 108.881 30.9596L113.557 30.8982C113.737 30.8957 113.885 31.0186 113.883 31.1711L113.874 32.5332L113.703 63.97C113.697 63.9897 113.694 64.0069 113.691 64.0241ZM126.742 63.8495C126.742 63.852 126.742 63.852 126.742 63.852C126.698 63.9627 126.585 64.0438 126.44 64.0462L122.774 64.1003L121.749 64.1151C121.627 64.1151 121.52 64.061 121.464 63.9749C121.435 63.9356 121.424 63.8889 121.424 63.8397L121.949 32.334L121.964 31.4219L121.97 31.0531C121.972 30.9031 122.118 30.7801 122.295 30.7777L126.591 30.7211C126.771 30.7187 126.919 30.8416 126.916 30.994L126.91 32.2136L126.756 63.7758C126.753 63.8004 126.75 63.825 126.742 63.8495ZM136.44 63.8987L135.696 63.9086C135.514 63.911 135.366 63.7881 135.363 63.6332V63.5398V63.5275L135.316 59.8788C135.316 59.7878 135.368 59.7017 135.456 59.6526C135.487 59.6304 135.525 59.6157 135.566 59.6083C135.737 59.5739 135.908 59.5419 136.085 59.5124C136.567 59.4288 137.049 59.3649 137.537 59.3133C140.225 59.0305 143.014 59.1879 145.734 59.3526C148.796 59.537 151.859 59.7239 154.924 59.9083C156.878 60.0263 158.834 60.1443 160.79 60.2623C161.716 60.3189 162.747 60.4197 163.336 61.0245C163.902 61.6023 163.859 62.4235 163.841 63.2201C163.841 63.2767 163.818 63.3283 163.786 63.3726C163.728 63.4439 163.632 63.4906 163.525 63.4906L142.35 63.8053L139.244 63.852L136.44 63.8987ZM143.302 51.3274C143.943 50.5308 144.936 49.953 146.027 49.6776C146.21 49.6309 146.402 49.5916 146.593 49.5645C147.267 49.4637 147.963 49.4908 148.59 49.7072C149.072 49.8719 149.496 50.1399 149.87 50.4448C150.872 51.2537 151.586 52.3748 151.522 53.5525C151.467 54.5852 150.622 56.0825 149.484 56.4587C148.245 56.8669 146.93 57.0414 145.592 56.6923C144.169 56.321 142.968 55.313 142.64 54.0836C142.393 53.1419 142.66 52.1241 143.302 51.3274ZM177.26 57.5061C176.512 58.1651 175.667 58.7797 174.784 59.3501C171.864 61.2409 168.549 62.6128 167.089 63.1734C166.935 63.2324 166.764 63.1808 166.686 63.0726C166.654 63.0308 166.637 62.9816 166.637 62.9275C166.625 61.2851 166.5 59.6747 165.179 58.5609C164.036 57.5946 162.314 57.3463 160.709 57.2037C157.679 56.9406 154.622 56.8988 151.58 57.0857C151.304 57.1004 151.133 56.8349 151.304 56.648C152.158 55.7162 152.904 54.6983 153.252 53.5648C153.667 52.2273 153.444 50.6857 152.349 49.6629C151.65 49.0064 150.66 48.6204 149.661 48.3623C147.139 47.7107 144.085 47.9 142.306 49.5473C141.244 50.5284 140.788 51.8806 140.643 53.2059C140.532 54.2385 140.785 55.4826 141.56 56.1883C141.757 56.3702 141.612 56.6579 141.322 56.653C139.923 56.6136 138.521 56.68 137.136 56.8595C136.794 56.9013 136.451 56.9529 136.114 57.0095C135.966 57.0341 135.818 57.0611 135.67 57.0881C135.592 57.1029 135.517 57.0931 135.453 57.0636C135.351 57.0218 135.278 56.9357 135.278 56.8275L134.977 32.0218L134.974 31.8325L134.962 30.8908C134.959 30.7383 135.104 30.6129 135.284 30.6105L136.434 30.5957H136.451L157.179 30.3179C160.605 30.2712 164.03 30.6425 167.304 31.4932C169.269 32.0046 171.316 32.7127 172.964 33.6863C177.707 36.4917 181.278 40.1281 181.571 44.1112C181.867 48.0869 181.289 53.9656 177.26 57.5061Z" fill="white"/>
</mask>
<g mask="url(#mask0_221_12284)">
<path d="M247.843 22.7404C247.817 16.9256 247.733 13.0458 244.853 5.63281C244.766 5.40661 244.606 5.19762 244.377 5.06239C243.338 4.46001 242.241 5.62297 241.686 6.5499C239.547 10.1347 235.95 13.0089 231.843 15.0201C227.736 17.0313 223.132 18.2238 218.473 18.9761C225.428 19.4089 232.534 17.9189 238.447 14.7841C239.109 14.4349 239.782 14.0538 240.554 13.9678C242.879 13.7071 245.666 17.0387 246.386 18.6221C246.844 19.6228 247.259 22.4035 247.843 22.7404Z" fill="#F5CF84"/>
<path d="M133.511 18.3203C133.502 18.8022 132.997 19.0137 132.524 19.1047C132.707 18.8268 132.73 18.6129 132.718 18.3572C132.701 17.9614 132.234 17.7622 131.842 17.6737C130.504 17.3836 129.122 17.386 127.749 17.4795C127.972 17.15 128.405 17.1082 128.591 17.091C129.85 16.9828 130.495 17.0246 131.598 16.9828C132.474 16.9459 133.543 16.7074 133.511 18.3203Z" fill="#F5CF84"/>
<path d="M120.614 18.6713C120.62 19.1852 120.329 19.3892 119.972 19.4704C119.999 19.2122 120.025 18.9516 120.051 18.6934C120.057 18.627 120.065 18.5582 120.031 18.5016C119.99 18.4279 119.9 18.3885 119.813 18.364C118.449 17.9337 116.672 18.2631 115.232 18.3541C114.933 18.3713 114.373 16.9748 114.074 16.9945C114.118 16.8174 115 16.5445 115.235 16.5224C117.113 16.365 118.097 17.378 120.402 17.5649C120.716 17.5919 120.608 18.2582 120.614 18.6713Z" fill="#F5CF84"/>
<path d="M102.455 17.1921C103.5 17.1528 104.547 17.1159 105.592 17.0766C105.973 17.0618 106.362 17.0495 106.727 17.143C107.09 17.2364 107.433 17.4601 107.529 17.7748C107.584 17.9568 107.552 18.1461 107.517 18.3354L102.455 17.1921Z" fill="#F5CF84"/>
<path d="M185.655 36.8142C182.239 31.737 176.157 27.9998 169.394 26.8393C169.081 26.7852 168.741 26.9008 168.602 27.1417C168.396 27.4933 168.782 27.8056 169.133 27.9998C171.249 29.1701 173.789 29.6545 176.015 30.6675C179.234 32.1329 181.62 34.6235 183.658 37.1904C183.966 37.5764 184.282 37.9796 184.796 38.1763C185.057 38.2747 185.356 38.2894 185.626 38.2132C186.381 38.0042 186.079 37.4461 185.655 36.8142Z" fill="#F5CF84"/>
<path d="M186.564 42.9828C187.196 42.3091 186.985 41.1879 186.137 40.7134C186.041 40.6593 185.934 40.6126 185.821 40.6077C185.53 40.5979 185.33 40.856 185.263 41.097C185.086 41.7289 185.4 42.378 185.707 42.973C185.777 43.1106 185.855 43.2532 186.003 43.3344C186.149 43.418 186.241 43.327 186.564 42.9828Z" fill="#F5CF84"/>
<path d="M174.784 59.3359C172.425 62.3528 168.474 64.4672 164.224 64.9073C163.034 65.0303 161.83 65.0303 160.631 65.0278C155.452 65.0229 150.274 65.0204 145.093 65.0155C143.827 65.0131 142.28 64.868 141.772 63.8845C141.963 63.8526 142.155 63.8231 142.35 63.7935L163.525 63.4788C163.632 63.4788 163.725 63.4297 163.786 63.3608C164.767 63.3412 165.742 63.2625 166.686 63.0559C166.764 63.1641 166.935 63.2182 167.089 63.1567C168.546 62.5986 171.864 61.2267 174.784 59.3359Z" fill="#F5CF84"/>
<path d="M127.871 74.3847C129.935 74.8617 132.144 74.8814 134.219 74.4388C134.393 74.4019 134.573 74.3602 134.75 74.3847C134.927 74.4069 135.104 74.5151 135.128 74.665C135.145 74.7831 135.067 74.8986 134.974 74.9896C134.649 75.3067 134.138 75.4371 133.653 75.5256C131.575 75.9042 129.374 75.7788 127.377 75.1666C127.168 75.1027 126.936 75.0117 126.872 74.8322C126.794 74.6134 127.029 74.3847 127.29 74.3331C127.551 74.2839 127.813 74.3725 127.871 74.3847Z" fill="#F5CF84"/>
<path d="M120.919 74.4864C119.09 75.1281 116.994 75.2043 115.108 74.7028C114.704 74.5946 114.26 74.4643 113.88 74.6143C113.79 74.6487 113.705 74.7028 113.674 74.7815C113.592 74.9757 113.868 75.138 114.097 75.2093C116.126 75.8461 118.385 75.9592 120.486 75.5264C120.713 75.4797 120.942 75.4256 121.122 75.3027C121.302 75.1798 121.424 74.9757 121.363 74.7864C121.299 74.5946 121 74.4569 120.919 74.4864Z" fill="#F5CF84"/>
<path d="M107.598 74.9089C105.38 75.2212 103.076 75.0663 100.945 74.459C100.777 74.4098 100.539 74.3803 100.46 74.518C100.431 74.5672 100.437 74.6262 100.452 74.6803C100.53 74.9729 100.861 75.1646 101.18 75.2974C102.248 75.7375 103.456 75.8457 104.64 75.917C105.793 75.9883 107.079 75.9932 107.941 75.3417C108.022 75.2802 108.106 75.204 108.112 75.1105C108.124 75.0122 108.01 74.8499 107.598 74.9089Z" fill="#F5CF84"/>
<path d="M2.33125 23.4654C1.3211 25.6659 1.18758 28.1492 1.9597 30.4161C2.22675 31.2004 2.84502 32.0979 3.80292 32.0389C2.34866 30.0154 2.1803 27.3723 3.36751 25.2283C3.55619 24.8865 3.84066 24.5202 4.28187 24.4759C4.47635 24.4562 4.66793 24.503 4.85371 24.5472C6.75498 24.9972 8.74044 25.1914 10.7143 25.1226C10.8159 24.7537 10.2731 24.5128 9.84347 24.4144C7.72739 23.935 5.61131 23.4531 3.49523 22.9737C3.2456 22.9171 2.97855 22.8606 2.73472 22.9319C2.4909 23.0032 2.42123 23.2662 2.33125 23.4654Z" fill="#F5CF84"/>
<path d="M109.526 64.2829C109.395 65.8146 109.282 67.3513 109.218 68.8806C108.904 68.9003 108.588 68.9273 108.269 68.9667C108.135 68.9839 108.025 69.0773 108.005 69.188C107.999 69.2027 107.999 69.2199 107.999 69.2347C108.002 70.6435 107.801 72.2638 107.883 73.5988C107.604 73.648 106.672 73.5669 106.391 73.6185C106.475 72.2908 106.513 71.295 106.431 70.0485C105.604 57.2289 107.63 44.3847 107.055 31.5552C107.537 31.4372 108.048 31.3929 108.55 31.4274L108.542 32.6739L108.356 64.0198C108.356 64.0763 108.373 64.1304 108.408 64.1722C108.466 64.246 108.568 64.2927 108.681 64.2927L109.526 64.2829Z" fill="#F5CF84"/>
<path d="M122.623 68.8486C122.608 69.0305 122.588 69.2124 122.57 69.3944C122.196 69.4042 121.821 69.4116 121.447 69.419C121.36 69.4214 121.282 69.4534 121.224 69.505C121.168 69.5542 121.134 69.6157 121.134 69.687C121.107 71.0737 121.238 72.4825 121.232 73.0259C121.229 73.1168 121.36 73.0824 121.45 73.1316C121.467 73.1414 121.334 73.5791 121.354 73.5889C120.925 73.6528 120.335 73.6676 119.877 73.6258C117.972 61.4479 119.415 49.5331 120.306 37.2716C120.446 35.3612 120.57 33.436 120.306 31.5355C120.779 31.3953 121.366 31.3535 121.964 31.4076L121.949 32.3198L121.424 63.8254C121.424 63.8746 121.435 63.9213 121.464 63.9607C121.52 64.0443 121.627 64.1008 121.749 64.1008L122.774 64.0861C122.707 65.6768 122.759 67.2652 122.623 68.8486Z" fill="#F5CF84"/>
<path d="M136.126 69.3654L135.435 69.39C135.331 69.3924 135.238 69.4392 135.18 69.508C135.151 69.5473 135.13 69.5916 135.128 69.6408C135.011 70.9758 135.551 72.0429 135.519 72.6305C135.514 72.7117 135.847 72.5469 135.917 72.601C135.993 72.6551 135.798 72.8518 135.914 72.9428C135.386 72.9698 134.062 72.6797 133.531 72.7092C133.258 61.6205 133.383 52.3709 133.697 41.2798C133.789 38.0343 133.903 34.7667 133.31 31.5605C133.888 31.8753 134.454 31.8826 134.977 31.8163L134.98 32.0056L135.281 56.8113C135.281 56.9195 135.357 57.0055 135.456 57.0473C135.519 57.0769 135.595 57.0867 135.673 57.0719C135.818 57.0449 135.966 57.0178 136.117 56.9933C136.083 57.8317 136.071 58.6676 136.085 59.5011C135.911 59.5306 135.74 59.5626 135.566 59.597C135.525 59.6068 135.487 59.6216 135.456 59.6413C135.371 59.6904 135.316 59.7765 135.316 59.8675L135.363 63.5162V63.5285V63.6268C135.363 63.7792 135.511 63.8997 135.691 63.8973L136.44 63.885C136.498 64.3497 136.544 64.8168 136.559 65.284C136.596 66.6412 136.326 68.0082 136.126 69.3654Z" fill="#F5CF84"/>
<path d="M165.528 60.2701C165.293 59.0899 163.969 58.1335 162.555 58.1212C162.268 58.1187 161.934 58.1728 161.792 58.3867C162.497 59.0112 163.861 58.8834 164.448 59.5915C164.616 59.7955 164.695 60.0439 164.86 60.2479C165.023 60.4496 165.339 60.6069 165.528 60.2701Z" fill="#F5CF84"/>
<path d="M160.863 58.345C160.956 58.1753 161.023 57.9541 160.866 57.8213C160.698 57.6787 160.367 57.7942 160.323 57.9909C160.28 58.1876 160.483 58.3843 160.715 58.4187C160.822 58.4335 160.973 58.3843 160.863 58.345Z" fill="#F5CF84"/>
<path d="M103.621 26.085C103.868 26.149 103.816 26.4588 103.558 26.4612C76.1299 26.712 48.8908 26.8399 21.6546 26.9653C17.9014 26.9825 14.0118 26.9776 10.6011 25.6523C10.1947 25.4974 9.79992 25.3204 9.41676 25.1262C8.68528 24.7623 7.99443 24.3295 7.35873 23.8501C7.23972 23.7591 7.12071 23.6682 7.00751 23.5723C7.58224 23.7198 8.19472 23.8526 8.85363 23.9755C10.9 24.3517 12.9465 24.3271 15.0422 24.3492C33.161 24.5434 63.0734 24.4058 82.2168 24.2853C82.2197 24.2853 82.2226 24.2853 82.2256 24.2853C86.1994 24.7278 90.1877 25.0598 94.1963 25.1925C97.3603 25.3007 100.617 25.2934 103.621 26.085Z" fill="#F5CF84"/>
</g>
<mask id="mask1_221_12284" style="mask-type:luminance" maskUnits="userSpaceOnUse" x="0" y="0" width="253" height="78">
<path d="M252.664 21.4494C252.731 18.2679 251.402 9.63539 248.917 4.43772C248.194 2.92316 247.544 1.10127 246.238 0.641494C244.525 0.0415733 244.052 1.46761 242.908 2.69942C238.31 7.66352 234.743 11.5507 227.123 14.1643C222.435 15.7723 217.385 16.4386 212.38 17.0483C200.819 18.4547 189.582 19.6201 178.352 20.5397C168.413 21.3511 158.486 21.9756 148.352 22.3935C147.638 22.4255 146.918 22.4525 146.201 22.4796C145.911 22.4919 145.618 22.5017 145.328 22.514C144.959 22.5263 144.013 21.9461 143.856 20.879C143.833 20.6872 143.905 20.4979 143.987 20.3209C144.759 18.6268 146.756 17.3876 148.886 17.25C149.084 17.2352 149.212 17.0778 149.171 16.9156C149.156 16.8566 149.148 16.7976 149.139 16.7385C149.122 16.5886 149.124 16.4386 149.151 16.2886C149.182 16.0993 148.979 15.9469 148.762 15.9886C146.622 16.3771 144.233 17.0901 143.377 17.9581C142.747 18.5973 142.41 19.1997 142.216 19.9226C142.004 20.7069 142.239 21.4764 142.527 22.2731C142.553 22.3419 142.544 22.4108 142.512 22.4673C142.463 22.5583 142.361 22.6222 142.233 22.6247C140.753 22.6763 139.261 22.7206 137.769 22.7599C137.464 22.7697 137.159 22.7771 136.852 22.7845C136.35 22.7992 135.847 22.8115 135.342 22.8214C135.218 22.8238 135.087 22.8287 134.962 22.8312C134.791 22.8361 134.643 22.7255 134.634 22.5804C134.605 22.1723 134.649 21.5281 134.628 21.1298C134.608 20.7757 134.294 20.4831 133.882 20.434C133.421 20.3799 132.712 20.434 132.065 20.3995C131.995 20.3971 131.935 20.375 131.882 20.3381C131.879 20.3381 131.879 20.3381 131.879 20.3381C131.807 20.2938 131.763 20.2225 131.757 20.1414C131.743 19.8439 131.723 19.4333 131.708 19.1653C131.699 19.0153 131.836 18.9268 132.01 18.9194C132.051 18.917 132.463 18.9071 132.788 18.8997C133.014 18.8948 133.194 18.7326 133.186 18.5408L133.145 17.395C133.139 17.2598 133.009 17.1541 132.852 17.1565L128.469 17.191C128.242 17.1934 128.062 17.3508 128.065 17.5401L128.08 18.6662C128.083 18.8506 128.266 18.9956 128.483 18.9858C128.951 18.9637 129.665 18.9342 129.702 18.9563C129.778 19.0055 129.83 19.0792 129.836 19.1653C129.853 19.507 129.906 19.8488 129.92 20.1906C129.923 20.2766 129.882 20.3528 129.813 20.402H129.81C129.752 20.4512 129.676 20.4758 129.589 20.4758C129.273 20.4733 128.686 20.4905 128.219 20.5102C127.711 20.5299 127.264 20.8519 127.221 21.2822C127.218 21.3093 127.218 21.3363 127.218 21.3609C127.276 22.2288 127.25 22.3222 127.206 23.0721C127.206 23.0967 127.2 23.1213 127.189 23.1434C127.145 23.2516 127.029 23.3303 126.89 23.3328C125.299 23.3573 122.939 23.3795 122.089 23.3893C121.935 23.3918 121.586 23.3942 121.554 23.2688C121.552 23.2541 121.517 22.0223 121.493 21.2011C121.482 20.7979 121.105 20.4708 120.628 20.4512C119.804 20.4168 118.672 20.3725 118.672 20.3725C118.568 20.3233 118.492 20.3602 118.495 20.2545C118.492 20.0504 118.457 19.8488 118.457 19.6447C118.457 19.5365 118.527 19.4407 118.634 19.3989C118.681 19.3767 118.733 19.3694 118.788 19.3694C118.933 19.3718 119.697 19.3571 120.065 19.3497C120.179 19.3472 120.271 19.271 120.274 19.1727L120.324 17.8179C120.327 17.7171 120.234 17.6335 120.115 17.6311L115.078 17.5425C114.957 17.5401 114.858 17.6237 114.861 17.7245L114.875 19.2267C114.875 19.3226 114.968 19.4038 115.081 19.4062C115.409 19.4161 116.051 19.4308 116.385 19.4062C116.478 19.4013 116.568 19.4284 116.629 19.48C116.681 19.5193 116.716 19.5783 116.727 19.6447C116.748 19.7726 116.759 19.9349 116.75 20.107C116.742 20.2201 116.649 20.311 116.524 20.3455C116.521 20.3455 116.521 20.3455 116.518 20.3455C116.489 20.3553 116.463 20.3627 116.428 20.3602C116.062 20.3627 115.549 20.3479 115.096 20.3356C114.541 20.3184 114.083 20.6946 114.086 21.1642C114.089 21.8108 114.092 22.6468 114.077 23.0303C114.074 23.1926 114.068 23.3377 114.063 23.4508C114.06 23.5983 113.915 23.7163 113.74 23.7163L108.971 23.6991C108.788 23.6991 108.643 23.5713 108.649 23.4164C108.658 23.2565 108.666 23.0353 108.669 22.7894C108.684 22.2829 108.678 21.6682 108.617 21.2257C108.597 21.0806 108.574 20.9282 108.486 20.7978C108.28 20.4979 107.81 20.434 107.401 20.3995L105.485 20.3577C105.412 20.3577 105.349 20.3332 105.293 20.2963H105.291C105.212 20.2471 105.166 20.1684 105.172 20.0799C105.18 19.8513 105.154 19.5882 105.169 19.3644C105.174 19.2636 105.349 19.1284 105.351 19.1309C105.383 19.1161 105.418 19.1063 105.456 19.1038C105.627 19.0891 106.466 19.0473 106.858 19.0301C106.971 19.0251 107.058 18.944 107.058 18.8481L107.047 17.5007C107.047 17.3999 106.951 17.1959 106.829 17.1983L101.427 17.2475C101.308 17.25 101.212 17.518 101.215 17.6188L101.253 18.9342C101.256 19.0325 101.349 19.1112 101.465 19.1112L102.832 19.121C102.905 19.121 102.971 19.153 103.009 19.2046C103.076 19.2931 103.169 19.4308 103.163 19.507C103.154 19.6275 103.151 19.716 103.151 19.7996C103.145 20.0529 102.899 20.252 102.6 20.2471C102.597 20.2471 102.597 20.2471 102.597 20.2471C101.685 20.2324 100.501 20.3209 100.397 20.9429C100.35 21.2183 100.321 21.6977 100.301 22.2042C100.275 22.8484 100.269 23.5393 100.266 23.9056C100.266 24.0556 100.127 24.1736 99.9524 24.1761C99.9321 24.1761 99.9089 24.1761 99.8886 24.1786C99.8857 24.1786 99.8857 24.1786 99.8828 24.1786C98.2427 24.1933 91.491 24.2499 82.211 24.3089C82.2081 24.3089 82.2081 24.3089 82.2052 24.3089C63.0618 24.4293 33.1494 24.567 15.0306 24.3728C12.9349 24.3482 10.8914 24.3752 8.84204 23.9991C8.18312 23.8761 7.57065 23.7434 6.99591 23.5958H6.99301C5.60551 23.2418 4.42991 22.8066 3.27173 22.2362C1.19339 21.2134 0.609938 25.4226 0.670895 27.4584C0.720241 29.2508 0.787002 31.1022 1.68104 32.7274C1.8552 33.0397 2.07291 33.3544 2.42994 33.5167C3.0337 33.7847 3.76519 33.5142 4.36896 33.2487C4.59827 33.1479 4.80726 33.052 5.00174 32.9659C6.89431 32.1152 8.98427 31.6308 11.1236 31.5448C11.2339 31.5399 11.3035 31.5374 11.3093 31.5374C29.2278 31.3137 52.0954 31.2719 51.9154 31.4587C51.8951 31.4809 51.8719 31.4981 51.8457 31.5153C45.8923 35.2968 43.8226 42.2524 43.5382 44.1726C42.3452 52.1781 47.0998 60.6041 55.2013 64.8502C61.6453 68.226 69.5349 68.8087 77.111 68.9218C82.6348 69.003 89.1485 68.8751 93.163 68.8653C94.7624 68.8604 95.9554 68.7055 99.5519 68.9489C99.5983 68.9513 99.6448 68.9563 99.6912 68.9612C99.8567 68.9759 99.9815 69.0989 99.9757 69.2415C99.935 70.6503 99.8915 72.0591 99.8479 73.468C99.8479 73.5319 99.816 73.5933 99.7696 73.6401C99.189 74.1908 98.742 74.835 98.4604 75.5283C98.385 75.7201 98.3153 75.9217 98.3443 76.1233C98.4111 76.6274 99.0207 76.9421 99.5838 77.1265C102.051 77.9354 104.437 77.9723 107.052 77.6256C107.668 77.5445 108.658 77.188 109.166 76.888C110.173 76.2954 107.906 74.0457 107.891 73.822C107.886 73.7581 107.883 73.6966 107.88 73.6302C107.798 72.2952 107.999 70.6773 107.996 69.266C107.996 69.2513 107.996 69.2341 108.002 69.2193C108.022 69.1062 108.129 69.0153 108.266 68.9981C108.582 68.9587 108.902 68.9317 109.215 68.912C110.585 68.8333 111.941 68.9317 113.337 68.8825C113.421 68.88 113.502 68.9046 113.563 68.9489C113.63 68.9956 113.674 69.0694 113.676 69.1505C113.705 70.8347 113.72 72.0936 113.575 73.527C113.56 73.6548 113.145 73.8441 112.78 74.1121C112.42 74.3752 111.662 74.8129 111.459 76.1774C111.418 76.4553 111.552 76.5757 111.958 76.7429C115.16 78.0559 119.491 77.8666 121.351 77.1363C121.81 76.9568 122.318 76.7651 122.631 76.4307C123.084 75.9512 122.73 75.2874 122.329 74.7711C122.042 74.4023 121.592 73.9794 121.279 73.8048C121.258 73.795 121.238 73.7851 121.221 73.7753C121.128 73.7237 121.075 73.6376 121.078 73.5466C121.084 73.0033 121.107 71.1051 121.134 69.7184C121.136 69.6471 121.168 69.5832 121.224 69.5365C121.279 69.4849 121.36 69.4554 121.447 69.4504C121.821 69.4431 122.196 69.4357 122.57 69.4259C123.972 69.3964 125.377 69.3669 126.779 69.3349C126.837 69.3324 126.895 69.3472 126.942 69.3693C127.046 69.416 127.113 69.507 127.107 69.6127C127.067 71.1494 126.988 73.6646 126.988 73.6646C126.988 73.6646 123.752 76.084 125.879 76.7405C130.115 78.046 132.562 77.7534 136.004 76.9175C136.419 76.8167 136.797 76.6077 137.038 76.3028C137.641 75.5406 137.011 74.8424 136.605 74.5203C136.445 74.3949 134.921 73.4507 134.921 73.4507C134.921 73.4507 135.009 71.0068 135.128 69.6717C135.13 69.6226 135.151 69.5783 135.18 69.539C135.238 69.4677 135.331 69.4234 135.435 69.4209L136.126 69.3964L143.322 69.1308C143.322 69.1308 163.682 69.1456 169.647 68.0121C177.586 66.5049 183.075 62.5145 185.655 58.3888C191.327 49.3187 191.385 33.9715 177.591 28.142C177.464 28.0879 177.127 27.9109 176.77 27.724C176.671 27.6699 176.625 27.5937 176.616 27.5175C176.602 27.365 176.738 27.2052 176.961 27.22C183.275 27.6551 211.356 29.7819 228.847 34.3108C231.164 34.9107 234.964 36.3737 237.318 38.2988C239.675 40.2264 241.521 42.5573 243.149 44.9619C243.384 45.3086 243.637 45.6749 243.962 45.9576C244.455 46.3904 245.146 46.6461 246.133 46.3166C246.949 46.0462 247.576 45.4807 247.93 44.8021C252.026 36.8875 252.519 28.4075 252.664 21.4494ZM79.5841 58.7625C79.1313 59.4608 79.0906 60.2943 79.0587 61.0934C79.0413 61.472 79.0297 61.8506 79.0152 62.2293C78.989 62.8857 78.9658 63.5398 78.9397 64.1962C78.9368 64.2847 78.9368 64.3782 78.9397 64.4691C78.9513 64.624 78.8091 64.7543 78.6262 64.7568L73.8367 64.8281H73.8135C73.4507 64.8109 64.908 65.2338 57.0387 60.518C48.9924 55.6941 49.5932 51.5413 49.0475 48.4262C48.4989 45.3159 49.2943 38.5693 57.6918 34.3256C61.1432 32.5848 63.5872 32.1201 64.4261 31.7292H64.429C64.9196 31.5448 65.0038 31.5473 65.0038 31.5473L97.8422 31.1047L99.5722 31.0801C99.7522 31.0776 99.9002 31.2006 99.8973 31.353L99.8857 33.2659L99.7667 55.7924C99.7638 55.7949 99.7667 55.7949 99.7667 55.7973L99.7609 56.7833C99.7609 56.8374 99.7028 56.8939 99.6302 56.9431C99.4474 57.0636 99.2122 57.1176 98.9771 57.1103L97.4561 57.0636C97.4561 57.0636 96.3821 57.0759 96.3531 56.9873C96.3211 56.8964 97.0642 56.353 97.2442 56.1071C97.8915 55.2343 98.2631 53.6681 98.4953 52.124C98.5678 51.6446 98.5795 51.0668 97.7144 51.0545C96.7914 51.0398 96.9336 53.0215 96.4982 54.0099C95.8944 55.3769 93.999 56.235 92.3212 55.9031C90.6405 55.5687 89.3953 54.0861 89.5723 52.633C89.642 52.0626 89.7639 51.2807 89.1166 51.1111C88.4925 50.9439 88.0397 51.6274 87.9584 52.1757C87.761 53.5181 88.1906 54.9147 89.105 56.0186C89.2734 56.2178 88.9192 56.9357 88.6289 56.9308C86.0397 56.8914 84.2517 56.771 81.7379 57.2012C80.8003 57.3684 80.0456 58.0495 79.5841 58.7625ZM99.5374 64.4249C99.4996 64.4421 99.4561 64.4495 99.4096 64.4495L98.2456 64.4667L82.214 64.7052C82.1153 64.7052 82.0224 64.6732 81.9614 64.6093C80.7655 63.3849 80.7074 61.381 81.9875 60.1861C83.5202 58.7576 86.1123 58.7305 88.3851 58.8068C90.3212 58.8732 92.2573 58.9371 94.1935 59.0035C95.9438 59.0649 97.6912 59.1239 99.4416 59.1854C99.5373 59.1903 99.6244 59.2272 99.6796 59.2838C99.7231 59.3305 99.7492 59.3895 99.7492 59.4559L99.7231 64.1766C99.7202 64.2872 99.6477 64.3806 99.5374 64.4249ZM113.691 64.0241V64.034C113.65 64.152 113.531 64.238 113.383 64.2405L109.526 64.297L108.687 64.3093C108.574 64.3093 108.472 64.2651 108.414 64.1889C108.379 64.1471 108.362 64.093 108.362 64.0364L108.547 32.6905L108.556 31.444L108.559 31.235C108.559 31.085 108.704 30.9621 108.881 30.9596L113.557 30.8982C113.737 30.8957 113.885 31.0186 113.883 31.1711L113.874 32.5332L113.703 63.97C113.697 63.9897 113.694 64.0069 113.691 64.0241ZM126.742 63.8495C126.742 63.852 126.742 63.852 126.742 63.852C126.698 63.9627 126.585 64.0438 126.44 64.0462L122.774 64.1003L121.749 64.1151C121.627 64.1151 121.52 64.061 121.464 63.9749C121.435 63.9356 121.424 63.8889 121.424 63.8397L121.949 32.334L121.964 31.4219L121.97 31.0531C121.972 30.9031 122.118 30.7801 122.295 30.7777L126.591 30.7211C126.771 30.7187 126.919 30.8416 126.916 30.994L126.91 32.2136L126.756 63.7758C126.753 63.8004 126.75 63.825 126.742 63.8495ZM136.44 63.8987L135.696 63.9086C135.514 63.911 135.366 63.7881 135.363 63.6332V63.5398V63.5275L135.316 59.8788C135.316 59.7878 135.368 59.7017 135.456 59.6526C135.487 59.6304 135.525 59.6157 135.566 59.6083C135.737 59.5739 135.908 59.5419 136.085 59.5124C136.567 59.4288 137.049 59.3649 137.537 59.3133C140.225 59.0305 143.014 59.1879 145.734 59.3526C148.796 59.537 151.859 59.7239 154.924 59.9083C156.878 60.0263 158.834 60.1443 160.79 60.2623C161.716 60.3189 162.747 60.4197 163.336 61.0245C163.902 61.6023 163.859 62.4235 163.841 63.2201C163.841 63.2767 163.818 63.3283 163.786 63.3726C163.728 63.4439 163.632 63.4906 163.525 63.4906L142.35 63.8053L139.244 63.852L136.44 63.8987ZM143.302 51.3274C143.943 50.5308 144.936 49.953 146.027 49.6776C146.21 49.6309 146.402 49.5916 146.593 49.5645C147.267 49.4637 147.963 49.4908 148.59 49.7072C149.072 49.8719 149.496 50.1399 149.87 50.4448C150.872 51.2537 151.586 52.3748 151.522 53.5525C151.467 54.5852 150.622 56.0825 149.484 56.4587C148.245 56.8669 146.93 57.0414 145.592 56.6923C144.169 56.321 142.968 55.313 142.64 54.0836C142.393 53.1419 142.66 52.1241 143.302 51.3274ZM177.26 57.5061C176.512 58.1651 175.667 58.7797 174.784 59.3501C171.864 61.2409 168.549 62.6128 167.089 63.1734C166.935 63.2324 166.764 63.1808 166.686 63.0726C166.654 63.0308 166.637 62.9816 166.637 62.9275C166.625 61.2851 166.5 59.6747 165.179 58.5609C164.036 57.5946 162.314 57.3463 160.709 57.2037C157.679 56.9406 154.622 56.8988 151.58 57.0857C151.304 57.1004 151.133 56.8349 151.304 56.648C152.158 55.7162 152.904 54.6983 153.252 53.5648C153.667 52.2273 153.444 50.6857 152.349 49.6629C151.65 49.0064 150.66 48.6204 149.661 48.3623C147.139 47.7107 144.085 47.9 142.306 49.5473C141.244 50.5284 140.788 51.8806 140.643 53.2059C140.532 54.2385 140.785 55.4826 141.56 56.1883C141.757 56.3702 141.612 56.6579 141.322 56.653C139.923 56.6136 138.521 56.68 137.136 56.8595C136.794 56.9013 136.451 56.9529 136.114 57.0095C135.966 57.0341 135.818 57.0611 135.67 57.0881C135.592 57.1029 135.517 57.0931 135.453 57.0636C135.351 57.0218 135.278 56.9357 135.278 56.8275L134.977 32.0218L134.974 31.8325L134.962 30.8908C134.959 30.7383 135.104 30.6129 135.284 30.6105L136.434 30.5957H136.451L157.179 30.3179C160.605 30.2712 164.03 30.6425 167.304 31.4932C169.269 32.0046 171.316 32.7127 172.964 33.6863C177.707 36.4917 181.278 40.1281 181.571 44.1112C181.867 48.0869 181.289 53.9656 177.26 57.5061Z" fill="white"/>
</mask>
<g mask="url(#mask1_221_12284)">
<path d="M122.318 31.6544C122.321 31.5069 121.958 31.2561 122.132 31.2536L126.486 31.1971C126.669 31.1946 126.82 31.3176 126.814 31.47L126.808 32.6895C129.531 32.6231 132.831 32.5666 135.554 32.5027L135.389 31.6101C135.386 31.4602 135.098 31.084 135.278 31.0815L136.53 30.5873C123.984 30.0636 111.317 30.5726 98.7739 31.1676C98.414 31.1848 98.0424 31.2069 97.7261 31.3544C97.5925 31.4159 97.4822 31.4946 97.3893 31.5806L99.1397 31.5585C99.3226 31.556 99.4735 31.679 99.4677 31.8314L99.459 33.7443C102.365 33.437 105.601 33.2771 108.533 33.1714L108.806 31.9593C108.809 31.8118 108.881 31.443 109.058 31.4405L113.287 31.3717C113.47 31.3692 113.621 31.4921 113.616 31.6446L113.607 33.0067C113.749 33.0042 113.891 32.9993 114.033 32.9968C116.617 32.9354 119.851 32.9452 122.434 32.8813L122.318 31.6544Z" fill="#F0A741"/>
<path d="M247.956 25.1422C247.936 24.9455 247.599 24.9308 247.555 25.125C246.859 28.3164 246.368 31.702 245.399 34.977C240.403 31.552 234.212 29.5531 227.91 28.4664C221.582 27.3723 215.094 27.1485 208.642 26.9272C201.817 26.6937 189.185 26.2609 185.548 26.1355C184.886 26.1134 184.244 25.9511 183.678 25.661C182.961 25.2971 182.247 24.9308 181.527 24.5644C180.517 24.0506 179.469 23.5097 178.811 22.6835C178.308 22.059 178.091 21.2206 178.346 20.5199C168.407 21.3313 158.48 21.9558 148.347 22.3737C147.632 22.4057 146.913 22.4328 146.196 22.4598C145.905 22.4721 145.609 22.4844 145.319 22.4942C145.252 22.4967 145.185 22.4795 145.133 22.445C144.024 21.7443 143.9 21.3067 143.847 20.8592C143.824 20.6674 143.897 20.4781 143.978 20.3011C144.75 18.607 146.747 17.3678 148.878 17.2302C149.075 17.2154 149.203 17.058 149.162 16.8958C149.148 16.8368 149.139 16.7778 149.13 16.7188C147.891 16.9056 146.695 17.3064 145.638 17.894C144.84 18.3366 144.109 18.9021 143.676 19.6225C143.244 20.3429 143.148 21.2378 143.577 21.9607C143.766 22.2779 144.05 22.5508 144.352 22.7991C144.541 22.954 144.744 23.1015 144.965 23.2195C144.434 23.3179 143.844 23.2466 143.36 23.0302C143.032 22.8827 142.744 22.6811 142.5 22.4475C142.451 22.5385 142.35 22.6024 142.222 22.6049C140.678 22.6417 135.238 22.6762 134.672 22.686C134.698 22.8311 134.73 23.045 134.73 23.045C134.73 23.045 129.247 23.0843 127.18 23.1212C125.377 23.1531 121.813 23.249 121.813 23.249C121.813 23.249 114.344 23.2515 114.063 23.2466C114.06 23.3941 113.906 23.6965 113.732 23.6965L108.962 23.6793C108.78 23.6793 108.634 23.5515 108.64 23.3966C108.649 23.2367 108.658 23.0155 108.661 22.7696C105.868 22.6196 103.079 22.4205 100.298 22.182C100.272 22.8261 100.266 23.517 100.263 23.8834C100.263 24.0334 100.124 24.1514 99.9495 24.1538C99.9292 24.1538 99.906 24.1538 99.8857 24.1563C100.324 24.2251 100.783 24.2325 101.227 24.2423C112.095 24.444 133.363 24.3407 135.212 24.3309C135.299 24.3309 135.38 24.3382 135.467 24.3382C139.461 24.3186 154.21 24.4685 159.336 24.6161C159.507 24.621 159.682 24.6234 159.853 24.6284C159.856 24.6284 159.856 24.6284 159.859 24.6284H159.902C163.798 24.7243 167.722 24.9283 171.452 25.8749C173.208 26.3199 174.901 26.9272 176.613 27.4829C176.599 27.3305 176.735 27.1707 176.959 27.1854C183.272 27.6206 211.353 29.7474 228.845 34.2763C231.161 34.8762 234.961 36.3391 237.315 38.2643C239.672 40.1919 241.518 42.5227 243.146 44.9273C243.381 45.274 243.634 45.6403 243.959 45.9231C244.043 45.9206 244.127 45.9059 244.206 45.8764C244.554 45.751 244.685 45.4068 244.812 45.1068C246.162 41.9228 247.399 35.9408 247.573 34.6402C247.982 31.6873 248.313 28.7024 247.956 25.1422Z" fill="#F0A741"/>
<path d="M78.9397 64.4587C78.9484 64.6136 78.8091 64.7415 78.6262 64.7439C78.6262 64.7439 75.3287 64.9529 73.6568 64.8054C68.7541 64.38 62.4087 63.3572 57.3348 60.1388C51.4249 56.3918 49.5933 51.526 49.0475 48.4108C48.4989 45.3006 49.8748 38.6228 58.2695 34.3815C61.7208 32.6408 64.1649 31.9253 65.0038 31.5344C60.8413 31.3549 56.165 31.4434 51.9967 31.4311C51.9764 31.4532 51.9503 31.4139 51.9241 31.4311C49.1056 33.4472 47.7762 34.8438 46.2493 37.3295C47.9416 36.5058 49.7994 35.874 51.6803 35.4044C51.8777 35.3552 52.0315 35.5519 51.898 35.6846C49.213 38.3499 47.4743 41.706 47.0882 45.1973C46.5106 50.395 49.393 55.9369 54.197 59.207C61.6308 64.2645 66.1852 65.8872 78.7423 65.7151C79.4535 65.7249 80.6987 65.9389 80.3243 65.8233C79.0152 65.4201 78.9397 64.5325 78.9397 64.4587Z" fill="#F0A741"/>
<path d="M99.7638 56.778C99.7638 56.9378 99.5983 57.0656 99.4097 57.0484C98.7304 56.9845 98.057 56.8837 97.3923 56.7435C97.2733 56.719 97.192 56.6452 97.163 56.5591C96.3386 57.4639 95.4416 58.3245 94.3096 58.9318C94.2719 58.9539 94.2341 58.9736 94.1935 58.9908C95.9438 59.0523 97.6912 59.1113 99.4416 59.1727C99.5374 59.1777 99.6245 59.2145 99.6796 59.2711C99.8189 58.1106 99.9263 56.9402 99.7696 55.7871L99.7638 56.778Z" fill="#F0A741"/>
<path d="M113.691 64.0098L108.414 64.1745C108.263 65.5194 108.33 66.9922 108.179 68.3371C108.205 68.8903 108.132 69.232 108.266 69.2148C109.964 68.996 111.621 68.9149 113.343 68.8534C113.427 68.8509 113.508 68.8755 113.569 68.9198C113.595 67.6167 113.72 64.5605 113.694 64.0196L113.691 64.0098Z" fill="#F0A741"/>
<path d="M126.742 63.8404C126.742 63.8404 126.742 63.8403 126.742 63.8379L121.464 63.9633C121.322 65.7483 121.247 67.5407 121.224 69.3306C121.224 69.3872 121.224 69.4462 121.226 69.5052C121.282 69.4535 121.363 69.424 121.45 69.4191C123.226 69.3822 125.006 69.3429 126.782 69.3036C126.84 69.3011 126.898 69.3159 126.945 69.338C126.98 69.1315 126.919 68.9176 126.922 68.711C126.794 67.2211 126.811 65.6819 126.742 63.8404Z" fill="#F0A741"/>
<path d="M135.453 59.6398C135.485 59.6177 135.522 59.6029 135.563 59.5955C136.213 59.4652 136.872 59.3693 137.534 59.3005C137.374 58.4867 137.261 57.663 137.133 56.8418L135.45 57.0459C135.464 57.9113 135.461 58.7743 135.453 59.6398Z" fill="#F0A741"/>
<path d="M135.691 63.8961C135.511 63.8986 135.366 63.7781 135.363 63.6257V63.5273C135.316 64.8206 135.252 66.1114 135.165 67.4047C135.119 68.1054 135.069 68.816 135.18 69.5069C135.238 69.4356 135.331 69.3913 135.435 69.3889L143.322 69.0987C141.821 67.4268 140.332 65.7082 139.238 63.8421L135.691 63.8961Z" fill="#F0A741"/>
<path d="M99.7261 63.9199L98.2428 64.451C97.0323 65.9631 93.0963 69.0168 93.0963 69.0168L99.7696 69.2504C99.7986 67.8489 99.6912 65.6115 99.7261 63.9199Z" fill="#F0A741"/>
<path d="M151.676 51.1429C151.348 50.6167 150.921 50.125 150.358 49.7684C149.296 49.0972 147.772 49.0456 146.593 49.5521C147.267 49.4513 147.963 49.4783 148.59 49.6947C149.072 49.8594 149.496 50.1274 149.87 50.4323C150.872 51.2412 151.586 52.3648 151.522 53.5425C151.464 54.5727 150.413 55.6988 149.278 56.0725C149.003 56.1635 150.315 55.8217 151.008 55.2439C151.899 54.499 152.396 53.3975 152.193 52.3525C152.106 51.9272 151.914 51.5215 151.676 51.1429Z" fill="#F0A741"/>
<path d="M129.83 19.1482C129.848 19.49 129.9 19.8317 129.914 20.1735C129.917 20.2595 129.877 20.3358 129.807 20.3849C129.859 20.3874 129.911 20.3899 129.964 20.3874C130.602 20.3776 131.238 20.3579 131.874 20.321C131.801 20.2768 131.757 20.2055 131.752 20.1243C131.737 19.8268 131.717 19.4162 131.702 19.1482C131.694 18.9982 131.83 18.8728 132.004 18.8655C132.071 18.8606 132.126 18.8556 132.21 18.8433C131.371 18.8286 130.533 18.8606 129.697 18.9392C129.775 18.9884 129.827 19.0622 129.83 19.1482Z" fill="#F0A741"/>
<path d="M116.521 20.3287C117.093 20.3729 117.665 20.4172 118.237 20.459C118.376 20.4688 118.521 20.4787 118.666 20.4762C118.562 20.427 118.489 20.341 118.492 20.2352C118.489 20.0312 118.454 19.8296 118.454 19.6255C118.454 19.5173 118.524 19.4214 118.631 19.3796C118.309 19.328 117.978 19.3132 117.653 19.3108C117.314 19.3083 116.962 19.3231 116.658 19.4485C116.646 19.4534 116.634 19.4583 116.626 19.4657C116.678 19.505 116.713 19.564 116.724 19.6304C116.745 19.7583 116.756 19.9205 116.748 20.0926C116.739 20.2033 116.646 20.2943 116.521 20.3287Z" fill="#F0A741"/>
<path d="M105.293 20.2793C105.215 20.2301 105.169 20.1514 105.174 20.0629C105.183 19.8343 105.157 19.5712 105.172 19.3474C105.177 19.2466 105.244 19.1581 105.349 19.1139C104.608 19.0426 103.854 19.0671 103.122 19.1901C103.073 19.1999 103.021 19.2073 102.971 19.222C103.093 19.2638 103.18 19.3696 103.172 19.4876C103.16 19.699 103.16 19.817 103.154 19.967C103.148 20.1219 102.994 20.2399 102.812 20.2326C102.748 20.2301 102.678 20.2276 102.608 20.2276C102.655 20.2399 102.704 20.2473 102.751 20.2498C103.592 20.3309 104.446 20.3408 105.293 20.2793Z" fill="#F0A741"/>
<path d="M35.309 28.9909C26.7982 28.718 18.2875 28.4426 9.77962 28.1697C8.29052 28.1205 6.73177 28.0566 5.44296 27.4223C4.15416 26.7855 3.46621 25.6741 4.07869 24.5235C3.8784 24.521 3.62876 24.7423 3.39945 25.0226C2.91179 25.6127 2.63894 26.306 2.56056 27.024C2.45026 28.0271 2.33415 29.6252 2.55476 30.5817C2.72312 31.3144 3.08015 32.138 4.31961 32.0348C4.9466 31.9831 5.51553 31.693 5.9103 31.275C7.28619 29.8146 9.50676 29.7162 11.5503 29.6843C20.2642 29.5515 28.9869 29.7261 37.6863 30.2129C37.8779 30.2227 37.9998 30.0383 37.8808 29.908C37.0651 29.0204 36.5078 29.0302 35.309 28.9909Z" fill="#F0A741"/>
</g>
</svg>
