<svg width="144" height="118" viewBox="0 0 144 118" fill="none" xmlns="http://www.w3.org/2000/svg">
<path d="M110.263 12.5133C110.643 11.6899 110.35 10.6585 109.756 9.98573C109.162 9.31299 108.328 8.93312 107.499 8.64026C102.611 6.91703 97.2519 7.60675 92.1854 6.59233C84.6844 5.08982 77.7936 -0.130793 70.1848 0.563166C67.3942 0.81783 64.738 1.86832 62.1041 2.86363C56.4397 5.00705 50.578 6.96796 44.5536 6.92552C42.3142 6.90854 39.9936 6.62841 37.8966 7.4497C36.4281 8.02482 35.161 9.13897 34.3658 10.5502C34.2458 10.7646 34.1319 11.0044 34.1664 11.2506C34.2437 11.7832 34.8966 11.9382 35.4112 11.9679C42.0519 12.369 48.6946 12.7701 55.3353 13.1712C55.7786 13.1987 56.2403 13.2221 56.6532 13.0544C57.2125 12.8274 57.5888 12.2926 57.9732 11.8108C61.3576 7.56855 64.5346 6.40558 70.2071 5.75194C72.9997 5.42937 77.2912 6.19973 80.3807 7.19292C82.5427 7.889 85.6404 9.73743 87.6987 10.7179C94.4451 13.9351 102.206 13.4237 110.263 12.5133Z" fill="#1D2020"/>
<path d="M120.861 113.519C120.994 114.575 121.067 114.847 121.207 116.012C121.297 116.753 121.726 117.421 122.377 117.729C122.503 117.788 122.631 117.833 122.755 117.854C123.522 117.992 124.941 118.003 125.724 117.999C126.097 117.996 126.467 117.933 126.821 117.81C126.825 117.808 126.827 117.808 126.831 117.805C127.325 117.633 127.708 117.222 127.87 116.708C128.228 115.577 128.836 113.555 128.796 112.946C128.788 112.827 128.857 112.704 128.802 112.6C128.751 112.506 128.643 112.466 128.541 112.436C127.659 112.19 126.729 112.396 125.828 112.555C124.183 112.85 122.511 112.99 120.861 113.519Z" fill="#1D2020"/>
<path d="M13.6567 113.519C13.7889 114.575 13.8622 114.847 14.0025 116.012C14.092 116.753 14.5211 117.421 15.172 117.729C15.2981 117.788 15.4262 117.833 15.5503 117.854C16.3171 117.992 17.7367 118.003 18.5198 117.999C18.892 117.996 19.2622 117.933 19.6161 117.81C19.6201 117.808 19.6222 117.808 19.6262 117.805C20.1205 117.633 20.5028 117.222 20.6656 116.708C21.0235 115.577 21.6317 113.555 21.593 112.946C21.5849 112.827 21.654 112.704 21.5991 112.6C21.5483 112.506 21.4405 112.466 21.3388 112.436C20.4561 112.19 19.5266 112.396 18.6256 112.555C16.9781 112.85 15.3062 112.99 13.6567 113.519Z" fill="#1D2020"/>
<path d="M0.881836 107.087V16.6173C0.881836 12.8249 3.82692 9.75195 7.4615 9.75195H135.862C139.496 9.75195 142.441 12.8249 142.441 16.6173V107.087C142.441 110.879 139.496 113.952 135.862 113.952H7.4615C3.82692 113.952 0.881836 110.877 0.881836 107.087Z" fill="#B95435"/>
<path d="M4.44104 109.282V14.4199L138.882 14.8444L138.056 109.282H4.44104Z" fill="#F5D2A1"/>
<path d="M6.47498 105.133V41.5052C6.47498 40.0876 7.57531 38.9395 8.93396 38.9395H134.391C135.75 38.9395 136.85 40.0876 136.85 41.5052V105.135C136.85 106.553 135.75 107.701 134.391 107.701H8.93193C7.57532 107.699 6.47498 106.551 6.47498 105.133Z" fill="#404040"/>
<path d="M136.034 15.9948V9.75974C136.034 9.46263 136.266 9.2207 136.551 9.2207H138.467C140.942 9.2207 142.95 11.3153 142.95 13.898V16.4829C142.95 16.867 142.651 17.1789 142.283 17.1789H137.169C136.543 17.1789 136.034 16.6484 136.034 15.9948Z" fill="#1D2020"/>
<path d="M7.18686 15.8893V9.65427C7.18686 9.35716 6.955 9.11523 6.67025 9.11523H4.75432C2.27906 9.11523 0.271606 11.2098 0.271606 13.7926V16.3774C0.271606 16.7615 0.570589 17.0735 0.938725 17.0735H6.05195C6.67839 17.0735 7.18686 16.5429 7.18686 15.8893Z" fill="#1D2020"/>
<path d="M136.238 107.555V113.79C136.238 114.087 136.47 114.329 136.754 114.329H138.67C141.146 114.329 143.153 112.235 143.153 109.652V107.067C143.153 106.683 142.854 106.371 142.486 106.371H137.373C136.746 106.371 136.238 106.902 136.238 107.555Z" fill="#1D2020"/>
<path d="M7.10947 108.032V114.267C7.10947 114.564 6.87761 114.806 6.59286 114.806H4.67693C2.20167 114.806 0.194214 112.711 0.194214 110.129V107.544C0.194214 107.16 0.493197 106.848 0.861332 106.848H5.97455C6.601 106.848 7.10947 107.378 7.10947 108.032Z" fill="#1D2020"/>
<path d="M12.9978 40.9531V105.731" stroke="#1D2020" stroke-width="1.11944" stroke-miterlimit="10" stroke-linecap="round"/>
<path d="M18.8778 40.9531L18.8005 105.731" stroke="#1D2020" stroke-width="1.11944" stroke-miterlimit="10" stroke-linecap="round"/>
<path d="M24.8229 40.9531L24.9327 105.731" stroke="#1D2020" stroke-width="1.11944" stroke-miterlimit="10" stroke-linecap="round"/>
<path d="M31.2236 40.9531L31.1199 105.731" stroke="#1D2020" stroke-width="1.11944" stroke-miterlimit="10" stroke-linecap="round"/>
<path d="M37.8744 40.9531L37.7239 105.731" stroke="#1D2020" stroke-width="1.11944" stroke-miterlimit="10" stroke-linecap="round"/>
<path d="M44.5863 40.9531L44.3137 105.729" stroke="#1D2020" stroke-width="1.11944" stroke-miterlimit="10" stroke-linecap="round"/>
<path d="M51.0948 40.9531L50.9219 105.729" stroke="#1D2020" stroke-width="1.11944" stroke-miterlimit="10" stroke-linecap="round"/>
<path d="M57.5647 40.9531L57.4243 105.729" stroke="#1D2020" stroke-width="1.11944" stroke-miterlimit="10" stroke-linecap="round"/>
<path d="M64.8622 40.9531L64.1422 105.729" stroke="#1D2020" stroke-width="1.11944" stroke-miterlimit="10" stroke-linecap="round"/>
<path d="M70.6345 40.9531L70.4636 105.729" stroke="#1D2020" stroke-width="1.11944" stroke-miterlimit="10" stroke-linecap="round"/>
<path d="M77.2203 40.9531L76.9518 105.729" stroke="#1D2020" stroke-width="1.11944" stroke-miterlimit="10" stroke-linecap="round"/>
<path d="M83.936 40.9531L83.395 105.729" stroke="#1D2020" stroke-width="1.11944" stroke-miterlimit="10" stroke-linecap="round"/>
<path d="M90.2676 40.9531L90.1191 105.729" stroke="#1D2020" stroke-width="1.11944" stroke-miterlimit="10" stroke-linecap="round"/>
<path d="M96.5219 40.9531L96.4467 105.729" stroke="#1D2020" stroke-width="1.11944" stroke-miterlimit="10" stroke-linecap="round"/>
<path d="M103.571 40.9531L103.486 105.729" stroke="#1D2020" stroke-width="1.11944" stroke-miterlimit="10" stroke-linecap="round"/>
<path d="M110.379 40.9531L110.265 105.729" stroke="#1D2020" stroke-width="1.11944" stroke-miterlimit="10" stroke-linecap="round"/>
<path d="M124.413 40.9531L124.144 105.727" stroke="#1D2020" stroke-width="1.11944" stroke-miterlimit="10" stroke-linecap="round"/>
<path d="M130.323 40.9531L130.295 105.729" stroke="#1D2020" stroke-width="1.11944" stroke-miterlimit="10" stroke-linecap="round"/>
<path d="M117.595 40.9531L117.19 105.729" stroke="#1D2020" stroke-width="1.11944" stroke-miterlimit="10" stroke-linecap="round"/>
<path d="M134.845 46.2492L8.13269 45.9648" stroke="#1D2020" stroke-width="1.11944" stroke-miterlimit="10" stroke-linecap="round"/>
<path d="M134.843 53.0396L8.13269 52.8613" stroke="#1D2020" stroke-width="1.11944" stroke-miterlimit="10" stroke-linecap="round"/>
<path d="M134.843 59.791L8.13269 59.6445" stroke="#1D2020" stroke-width="1.11944" stroke-miterlimit="10" stroke-linecap="round"/>
<path d="M134.843 67.4077L8.13269 66.6543" stroke="#1D2020" stroke-width="1.11944" stroke-miterlimit="10" stroke-linecap="round"/>
<path d="M134.843 73.4281L8.13269 73.252" stroke="#1D2020" stroke-width="1.11944" stroke-miterlimit="10" stroke-linecap="round"/>
<path d="M134.843 80.3018L8.13269 80.0195" stroke="#1D2020" stroke-width="1.11944" stroke-miterlimit="10" stroke-linecap="round"/>
<path d="M134.843 87.3087L8.13269 86.7441" stroke="#1D2020" stroke-width="1.11944" stroke-miterlimit="10" stroke-linecap="round"/>
<path d="M134.844 93.9166L8.1344 93.7617" stroke="#1D2020" stroke-width="1.11944" stroke-miterlimit="10" stroke-linecap="round"/>
<path d="M134.843 100.442L8.13269 100.363" stroke="#1D2020" stroke-width="1.11944" stroke-miterlimit="10" stroke-linecap="round"/>
<path d="M6.47498 18.4355H33.5238" stroke="#1D2020" stroke-width="1.11944" stroke-miterlimit="10" stroke-linecap="round"/>
<path d="M54.8859 17.9414H61.1849" stroke="#1D2020" stroke-width="1.11944" stroke-miterlimit="10" stroke-linecap="round"/>
<path d="M87.2716 17.6484H104.269" stroke="#1D2020" stroke-width="1.11944" stroke-miterlimit="10" stroke-linecap="round"/>
<path d="M118.398 17.6484H135.233" stroke="#1D2020" stroke-width="1.11944" stroke-miterlimit="10" stroke-linecap="round"/>
<path d="M123.499 31.07V21.5561C123.499 21.1954 123.78 20.9004 124.128 20.9004H130.02C130.366 20.9004 130.649 21.1933 130.649 21.5561V31.07C130.649 31.4307 130.368 31.7257 130.02 31.7257H124.128C123.78 31.7257 123.499 31.4307 123.499 31.07Z" fill="#1D2020"/>
<path d="M115.767 26.6011C116.946 26.6011 117.902 25.6035 117.902 24.3728C117.902 23.1422 116.946 22.1445 115.767 22.1445C114.587 22.1445 113.631 23.1422 113.631 24.3728C113.631 25.6035 114.587 26.6011 115.767 26.6011Z" fill="#404040"/>
<path d="M76.4208 32.5435C78.6112 32.5435 80.3869 30.7145 80.3869 28.4583C80.3869 26.2021 78.6112 24.373 76.4208 24.373C74.2304 24.373 72.4547 26.2021 72.4547 28.4583C72.4547 30.7145 74.2304 32.5435 76.4208 32.5435Z" fill="#D2CB82"/>
<path d="M115.767 32.5426C116.946 32.5426 117.902 31.5449 117.902 30.3142C117.902 29.0836 116.946 28.0859 115.767 28.0859C114.587 28.0859 113.631 29.0836 113.631 30.3142C113.631 31.5449 114.587 32.5426 115.767 32.5426Z" fill="#404040"/>
<path d="M25.8418 28.8287C27.8503 28.8287 29.4784 27.1422 29.4784 25.0618C29.4784 22.9814 27.8503 21.2949 25.8418 21.2949C23.8334 21.2949 22.2052 22.9814 22.2052 25.0618C22.2052 27.1422 23.8334 28.8287 25.8418 28.8287Z" fill="#D2CB82" stroke="#1D2020" stroke-width="1.11944" stroke-miterlimit="10"/>
<path d="M16.3109 29.0944C18.3194 29.0944 19.9475 27.4079 19.9475 25.3275C19.9475 23.247 18.3194 21.5605 16.3109 21.5605C14.3025 21.5605 12.6743 23.247 12.6743 25.3275C12.6743 27.4079 14.3025 29.0944 16.3109 29.0944Z" fill="#D2CB82" stroke="#1D2020" stroke-width="1.11944" stroke-miterlimit="10"/>
<path d="M16.3109 27.5562C17.4903 27.5562 18.4465 26.5586 18.4465 25.3279C18.4465 24.0973 17.4903 23.0996 16.3109 23.0996C15.1314 23.0996 14.1753 24.0973 14.1753 25.3279C14.1753 26.5586 15.1314 27.5562 16.3109 27.5562Z" fill="#A84B36"/>
<path d="M25.8681 27.2379C27.0476 27.2379 28.0037 26.2402 28.0037 25.0096C28.0037 23.7789 27.0476 22.7812 25.8681 22.7812C24.6887 22.7812 23.7325 23.7789 23.7325 25.0096C23.7325 26.2402 24.6887 27.2379 25.8681 27.2379Z" fill="#A84B36"/>
<path d="M124.887 28.7827V23.8464C124.887 23.3817 125.249 23.0039 125.694 23.0039H128.454C128.899 23.0039 129.262 23.3817 129.262 23.8464V28.7827C129.262 29.2474 128.899 29.6252 128.454 29.6252H125.694C125.247 29.623 124.887 29.2474 124.887 28.7827Z" fill="#31797A"/>
<path d="M115.925 26.5765C117.245 26.5765 118.315 25.4725 118.315 24.1105C118.315 22.7486 117.245 21.6445 115.925 21.6445C114.605 21.6445 113.535 22.7486 113.535 24.1105C113.535 25.4725 114.605 26.5765 115.925 26.5765Z" fill="#1D2020"/>
<path d="M115.925 32.9593C117.245 32.9593 118.315 31.8553 118.315 30.4933C118.315 29.1314 117.245 28.0273 115.925 28.0273C114.605 28.0273 113.535 29.1314 113.535 30.4933C113.535 31.8553 114.605 32.9593 115.925 32.9593Z" fill="#1D2020"/>
<path d="M115.925 25.3223C116.571 25.3223 117.095 24.7788 117.095 24.1084C117.095 23.438 116.571 22.8945 115.925 22.8945C115.279 22.8945 114.756 23.438 114.756 24.1084C114.756 24.7788 115.279 25.3223 115.925 25.3223Z" fill="#31797A"/>
<path d="M115.925 31.7071C116.571 31.7071 117.095 31.1636 117.095 30.4932C117.095 29.8228 116.571 29.2793 115.925 29.2793C115.279 29.2793 114.756 29.8228 114.756 30.4932C114.756 31.1636 115.279 31.7071 115.925 31.7071Z" fill="#31797A"/>
<path d="M63.5746 26.1761C64.8945 26.1761 65.9645 25.0721 65.9645 23.7101C65.9645 22.3482 64.8945 21.2441 63.5746 21.2441C62.2548 21.2441 61.1848 22.3482 61.1848 23.7101C61.1848 25.0721 62.2548 26.1761 63.5746 26.1761Z" fill="#1D2020"/>
<path d="M63.5746 32.5629C64.8945 32.5629 65.9645 31.4588 65.9645 30.0969C65.9645 28.7349 64.8945 27.6309 63.5746 27.6309C62.2548 27.6309 61.1848 28.7349 61.1848 30.0969C61.1848 31.4588 62.2548 32.5629 63.5746 32.5629Z" fill="#1D2020"/>
<path d="M63.5746 24.9219C64.2205 24.9219 64.7441 24.3785 64.7441 23.708C64.7441 23.0376 64.2205 22.4941 63.5746 22.4941C62.9288 22.4941 62.4052 23.0376 62.4052 23.708C62.4052 24.3785 62.9288 24.9219 63.5746 24.9219Z" fill="#31797A"/>
<path d="M63.5746 31.3106C64.2205 31.3106 64.7441 30.7671 64.7441 30.0967C64.7441 29.4263 64.2205 28.8828 63.5746 28.8828C62.9288 28.8828 62.4052 29.4263 62.4052 30.0967C62.4052 30.7671 62.9288 31.3106 63.5746 31.3106Z" fill="#31797A"/>
<path d="M127.189 25.5254C127.708 25.5254 128.129 25.0864 128.129 24.5449C128.129 24.0034 127.708 23.5645 127.189 23.5645C126.67 23.5645 126.249 24.0034 126.249 24.5449C126.249 25.0864 126.67 25.5254 127.189 25.5254Z" stroke="#120000" stroke-width="0.746296" stroke-miterlimit="10" stroke-linecap="round"/>
<path d="M127.189 29.0627V27.5898" stroke="#120000" stroke-width="0.746296" stroke-miterlimit="10" stroke-linecap="round"/>
<path d="M125.499 26.3574H128.647" stroke="#120000" stroke-width="0.746296" stroke-miterlimit="10" stroke-linecap="round"/>
<path d="M93.4933 30.8482C95.6837 30.8482 97.4594 29.0192 97.4594 26.763C97.4594 24.5068 95.6837 22.6777 93.4933 22.6777C91.3029 22.6777 89.5272 24.5068 89.5272 26.763C89.5272 29.0192 91.3029 30.8482 93.4933 30.8482Z" fill="#1D2020"/>
<path d="M92.8199 20.1562V21.6269" stroke="#FFFBD1" stroke-width="1.11944" stroke-miterlimit="10" stroke-linecap="round"/>
<path d="M98.0837 21.627L97.0424 22.7135" stroke="#FFFBD1" stroke-width="1.11944" stroke-miterlimit="10" stroke-linecap="round"/>
<path d="M100.101 26.5371H98.7936" stroke="#FFFBD1" stroke-width="1.11944" stroke-miterlimit="10" stroke-linecap="round"/>
<path d="M97.5631 31.8223L96.6234 30.8418" stroke="#FFFBD1" stroke-width="1.11944" stroke-miterlimit="10" stroke-linecap="round"/>
<path d="M93.3346 31.8223V33.0192" stroke="#FFFBD1" stroke-width="1.11944" stroke-miterlimit="10" stroke-linecap="round"/>
<path d="M89.8321 30.543L89.0735 31.3324" stroke="#FFFBD1" stroke-width="1.11944" stroke-miterlimit="10" stroke-linecap="round"/>
<path d="M88.0505 26.8262H86.1854" stroke="#FFFBD1" stroke-width="1.11944" stroke-miterlimit="10" stroke-linecap="round"/>
<path d="M89.0736 23.5214L88.2987 22.7129" stroke="#FFFBD1" stroke-width="1.11944" stroke-miterlimit="10" stroke-linecap="round"/>
<path d="M93.4933 23.5215V25.4463" stroke="#FFFBD1" stroke-width="1.11944" stroke-miterlimit="10" stroke-linecap="round"/>
<path d="M95.0248 26.8262H96.6234" stroke="#FFFBD1" stroke-width="1.11944" stroke-miterlimit="10" stroke-linecap="round"/>
<path d="M46.7137 29.981C48.9041 29.981 50.6798 28.152 50.6798 25.8958C50.6798 23.6396 48.9041 21.8105 46.7137 21.8105C44.5232 21.8105 42.7476 23.6396 42.7476 25.8958C42.7476 28.152 44.5232 29.981 46.7137 29.981Z" fill="#1D2020"/>
<path d="M46.0403 19.2891V20.7597" stroke="#FFFBD1" stroke-width="1.11944" stroke-miterlimit="10" stroke-linecap="round"/>
<path d="M51.3041 20.7598L50.2627 21.8463" stroke="#FFFBD1" stroke-width="1.11944" stroke-miterlimit="10" stroke-linecap="round"/>
<path d="M53.3217 25.668H52.0139" stroke="#FFFBD1" stroke-width="1.11944" stroke-miterlimit="10" stroke-linecap="round"/>
<path d="M50.7833 30.9551L49.8436 29.9746" stroke="#FFFBD1" stroke-width="1.11944" stroke-miterlimit="10" stroke-linecap="round"/>
<path d="M46.5549 30.9551V32.152" stroke="#FFFBD1" stroke-width="1.11944" stroke-miterlimit="10" stroke-linecap="round"/>
<path d="M43.0526 29.6758L42.2939 30.4652" stroke="#FFFBD1" stroke-width="1.11944" stroke-miterlimit="10" stroke-linecap="round"/>
<path d="M41.2708 25.959H39.4058" stroke="#FFFBD1" stroke-width="1.11944" stroke-miterlimit="10" stroke-linecap="round"/>
<path d="M42.2938 22.6543L41.5189 21.8457" stroke="#FFFBD1" stroke-width="1.11944" stroke-miterlimit="10" stroke-linecap="round"/>
<path d="M46.7135 22.6543V24.577" stroke="#FFFBD1" stroke-width="1.11944" stroke-miterlimit="10" stroke-linecap="round"/>
<path d="M48.245 25.959H49.8436" stroke="#FFFBD1" stroke-width="1.11944" stroke-miterlimit="10" stroke-linecap="round"/>
<path d="M77.4031 24.3178H77.401L76.8722 22.9638C76.7583 22.6709 76.3597 22.6709 76.2458 22.9638L75.7393 24.2583C75.7231 24.2987 75.6885 24.3284 75.6458 24.339C73.8173 24.7655 72.4546 26.4208 72.4546 28.3987C72.4546 30.6992 74.2973 32.5625 76.5732 32.5625C78.8471 32.5625 80.6919 30.6992 80.6919 28.3987C80.6919 26.3869 79.2804 24.7061 77.4031 24.3178ZM79.5793 27.7833L77.9339 27.7897C77.7427 27.7897 77.6532 27.4353 77.7976 27.3058L78.898 26.2256C78.9895 26.1428 79.1278 26.1598 79.201 26.2596C79.4695 26.6267 79.6688 27.0511 79.7787 27.5117C79.8112 27.6475 79.7136 27.7812 79.5793 27.7833ZM78.1963 25.6802L77.1875 26.8941C77.0532 27.0151 76.8458 26.9493 76.8458 26.7625L76.9475 25.1772C76.9475 25.0414 77.0675 24.9396 77.1956 24.965C77.5393 25.0329 77.8648 25.156 78.1597 25.3237C78.2878 25.3979 78.3061 25.5826 78.1963 25.6802ZM76.077 25.2048L76.0831 26.6437C76.0831 26.8368 75.8614 26.9323 75.7312 26.7986L74.7529 25.7842C74.6573 25.6866 74.6756 25.521 74.7895 25.4468C75.1027 25.2409 75.4505 25.086 75.8227 24.9947C75.9488 24.9629 76.0749 25.0648 76.077 25.2048ZM74.1366 26.4018L75.119 27.4268C75.2492 27.5626 75.1576 27.7939 74.9726 27.796L73.5549 27.8003C73.4187 27.8003 73.321 27.6666 73.3536 27.5308C73.4451 27.136 73.6037 26.7668 73.8153 26.4378C73.8905 26.3232 74.0451 26.3063 74.1366 26.4018ZM73.4858 29.5596C73.4126 29.3643 73.3556 29.1606 73.319 28.9505C73.2946 28.8168 73.3922 28.6916 73.5224 28.6916L74.7692 28.5324C74.9603 28.5324 75.1007 28.6746 74.9563 28.8062L73.9231 29.8567C73.8153 29.9543 73.5366 29.6996 73.4858 29.5596ZM74.2566 30.4445L75.3407 29.5638C75.4749 29.4429 76.0139 29.4832 76.0139 29.6678L76.0973 31.4526C76.0973 31.5926 75.9732 31.6945 75.8431 31.6648C75.2309 31.5226 74.6817 31.2043 74.2505 30.765C74.161 30.6759 74.1631 30.5273 74.2566 30.4445ZM76.9475 31.4759V29.8567C76.9475 29.6636 77.1712 29.5681 77.3014 29.7039L78.4098 30.8605C78.5034 30.9581 78.4871 31.1215 78.3753 31.1958C78.0234 31.4335 77.6268 31.6054 77.1976 31.6881C77.0675 31.7136 76.9475 31.6117 76.9475 31.4759ZM79.0261 30.2175L77.757 29.0078C77.6268 28.872 77.7692 28.5855 77.9543 28.5855L79.6159 28.6916C79.7461 28.6916 79.8437 28.8168 79.8193 28.9505C79.74 29.3962 79.5773 29.8142 79.3454 30.1814C79.2742 30.296 79.1197 30.3151 79.0261 30.2175Z" fill="#1D2020"/>
<path d="M12.5218 31.1672C12.5462 31.5619 12.6093 31.9524 12.711 32.3344C12.9082 32.3598 13.1035 32.3853 13.3008 32.4108C13.2052 32.1455 13.134 31.8696 13.0893 31.5895C13.0669 31.4537 12.9815 31.0908 13.134 31.008C12.9652 30.9613 12.7943 30.9125 12.6255 30.8658C12.8493 31.1693 13.0913 31.4558 13.3516 31.7253C13.4798 31.8569 13.6099 31.9842 13.7462 32.1073C13.8886 32.2368 14.033 32.3704 14.2079 32.4511C14.3828 32.5339 14.635 32.5954 14.812 32.485C14.9849 32.3768 14.9462 32.1667 14.9279 31.9906C14.8852 31.5768 14.8445 31.165 14.8018 30.7512C14.7815 30.5454 14.1876 30.4265 14.212 30.6748C14.2465 31.0229 14.2832 31.3709 14.3177 31.7189C14.3259 31.7953 14.334 31.8739 14.3421 31.9503C14.3482 32.0139 14.3706 32.1031 14.3421 32.1667C14.3381 32.1731 14.3238 32.207 14.3218 32.1986C14.3198 32.1816 14.4113 32.1986 14.4357 32.1986C14.4723 32.2113 14.4723 32.2113 14.4377 32.1964C14.4642 32.2092 14.4621 32.207 14.4337 32.1901C14.3889 32.154 14.454 32.2113 14.3971 32.1604C13.9476 31.7635 13.5326 31.3391 13.1726 30.851C13.073 30.7151 12.8167 30.626 12.6642 30.7088C12.414 30.8446 12.4506 31.1566 12.4832 31.4027C12.5259 31.7211 12.6032 32.0309 12.711 32.3301C12.7577 32.4617 12.9225 32.5232 13.0465 32.5381C13.1198 32.5466 13.3374 32.5423 13.3008 32.4065C13.1991 32.0245 13.136 31.634 13.1116 31.2393C13.1096 31.1884 13.0343 31.1311 12.9998 31.1099C12.9347 31.0674 12.8513 31.0398 12.776 31.0313C12.6804 31.025 12.5137 31.0313 12.5218 31.1672Z" fill="#1D2020"/>
<path d="M15.2513 30.3248C15.2005 30.38 15.1659 30.4585 15.1618 30.5349C15.1577 30.6325 15.176 30.7089 15.2188 30.7959C15.2635 30.8851 15.3428 30.9572 15.4242 31.0081C15.5605 31.0888 15.7252 31.1355 15.8818 31.1227C16.0811 31.1058 16.2723 31.006 16.3496 30.8023C16.4208 30.6092 16.3211 30.4033 16.1889 30.2696C16.1462 30.225 16.0954 30.1868 16.0405 30.1571C15.9449 30.102 15.8371 30.0553 15.7272 30.0425C15.6805 30.0383 15.6316 30.0362 15.5869 30.0468C15.5401 30.0574 15.5096 30.0807 15.473 30.1105C15.4506 30.1295 15.4282 30.1487 15.4059 30.1678C15.3591 30.206 15.3123 30.2463 15.2655 30.2845C15.2269 30.3163 15.2432 30.3778 15.2655 30.4118C15.2981 30.4649 15.3693 30.5094 15.4242 30.5306C15.5421 30.5795 15.7069 30.6155 15.8147 30.5243C15.8899 30.4606 15.9672 30.397 16.0425 30.3333C15.9388 30.3439 15.833 30.3545 15.7293 30.3672C15.7394 30.3694 15.7476 30.3736 15.7577 30.3757C15.7557 30.3757 15.6703 30.3418 15.713 30.3609C15.7537 30.3778 15.6805 30.3418 15.6764 30.3397C15.6845 30.3439 15.6927 30.3503 15.7008 30.3545C15.711 30.3609 15.7374 30.3821 15.6988 30.3503C15.6601 30.3205 15.6866 30.3418 15.6947 30.3481C15.7089 30.3609 15.7232 30.3757 15.7374 30.3906C15.7252 30.3757 15.713 30.3609 15.6988 30.346C15.7252 30.3757 15.7455 30.4097 15.7638 30.4458C15.7577 30.4309 15.7496 30.416 15.7435 30.4012C15.7659 30.4521 15.7801 30.5073 15.7801 30.5646C15.7801 30.5497 15.7801 30.5349 15.7801 30.52C15.7781 30.5752 15.7659 30.6283 15.7415 30.6771C15.7476 30.6643 15.7557 30.6516 15.7618 30.6389C15.7333 30.6877 15.6967 30.7301 15.652 30.7641C15.6642 30.7556 15.6784 30.745 15.6906 30.7365C15.6601 30.7577 15.6276 30.7747 15.593 30.7853C15.6113 30.7789 15.6296 30.7726 15.6479 30.7662C15.6357 30.7705 15.6255 30.7726 15.6133 30.7747C15.5584 30.7853 15.6744 30.7726 15.6357 30.7726C15.5767 30.7726 15.7089 30.7811 15.6662 30.7747C15.6072 30.7662 15.7354 30.7917 15.7069 30.7832C15.654 30.7705 15.7883 30.815 15.7476 30.798C15.7089 30.7811 15.8269 30.8426 15.7781 30.8129C15.7455 30.7938 15.8391 30.8638 15.8005 30.8278C15.7923 30.8214 15.7842 30.8129 15.7781 30.8044C15.7903 30.8193 15.8025 30.8341 15.8167 30.849C15.7944 30.8235 15.7781 30.7959 15.7638 30.7641C15.7699 30.7789 15.7781 30.7938 15.7842 30.8087C15.7659 30.7641 15.7557 30.7174 15.7537 30.6686C15.7537 30.6834 15.7537 30.6983 15.7537 30.7132C15.7537 30.6622 15.7638 30.6155 15.7882 30.571C15.7821 30.5837 15.774 30.5964 15.7679 30.6092C15.7781 30.5922 15.7883 30.5773 15.8025 30.5625C15.8371 30.5243 15.8269 30.4755 15.8025 30.4351C15.7699 30.3821 15.6988 30.3375 15.6438 30.3163C15.5706 30.2866 15.4913 30.2633 15.412 30.2675C15.3571 30.276 15.292 30.2824 15.2513 30.3248Z" fill="#1D2020"/>
<path d="M17.2608 31.5116C17.7367 31.189 18.0804 30.6988 18.2106 30.1173C18.0133 30.077 17.8181 30.0366 17.6208 29.9963C17.7326 30.7921 17.8445 31.588 17.9564 32.3838C17.9848 32.5918 18.5787 32.7021 18.5462 32.4602C18.4343 31.6644 18.3225 30.8685 18.2106 30.0727C18.1943 29.9539 18.0052 29.8902 17.9157 29.8732C17.8384 29.8584 17.6472 29.8372 17.6208 29.9518C17.5069 30.4611 17.214 30.9237 16.7909 31.2123C16.557 31.3736 17.0981 31.6219 17.2608 31.5116Z" fill="#1D2020"/>
<path d="M24.1131 30.9634C24.1782 31.3475 24.2433 31.7338 24.3084 32.1179C24.5056 32.1434 24.7009 32.1688 24.8982 32.1943C24.7192 31.6531 24.6277 31.078 24.6419 30.505C24.4446 30.4647 24.2494 30.4244 24.0521 30.3841C24.2778 30.9464 24.5931 31.4536 24.9938 31.8951C25.2033 32.1285 25.4961 32.3025 25.8094 32.2983C25.9294 32.2962 26.0697 32.2643 26.1409 32.154C26.2304 32.016 26.1938 31.8526 26.1694 31.6998C26.1084 31.3178 26.0494 30.9358 25.9884 30.5538C25.9558 30.3459 25.3619 30.2376 25.3985 30.4774C25.4433 30.7576 25.486 31.0398 25.5307 31.3199C25.5531 31.46 25.5755 31.598 25.5958 31.738C25.6039 31.7911 25.6121 31.842 25.5958 31.8929C25.5897 31.912 25.5856 31.9184 25.5755 31.9354C25.5694 31.9439 25.5633 31.9481 25.5572 31.9545C25.5673 31.9417 25.5694 31.946 25.5531 31.9545C25.5572 31.9524 25.5897 31.946 25.5653 31.9502C25.5368 31.9545 25.5877 31.9481 25.5877 31.9481C25.5877 31.9481 25.6467 31.9524 25.6161 31.9502C25.5816 31.946 25.6487 31.9566 25.6467 31.9566C25.5917 31.9439 25.6975 31.9799 25.6446 31.9566C25.6385 31.9545 25.606 31.9375 25.6385 31.9545C25.6731 31.9715 25.6304 31.9481 25.6243 31.9439C25.608 31.9333 25.5633 31.8929 25.5958 31.9269C25.5795 31.912 25.5633 31.8993 25.547 31.8844C25.5043 31.842 25.4636 31.7974 25.425 31.7507C25.2724 31.5746 25.1341 31.3857 25.01 31.1862C24.8656 30.957 24.7416 30.713 24.6399 30.4604C24.5911 30.3395 24.4609 30.2843 24.345 30.261C24.2839 30.2482 24.0541 30.2249 24.05 30.3395C24.0358 30.9443 24.1172 31.5428 24.3063 32.1158C24.349 32.2473 24.5199 32.3131 24.6419 32.3237C24.7253 32.3322 24.9206 32.3301 24.8962 32.1922C24.8311 31.808 24.766 31.4218 24.7009 31.0377C24.6683 30.8318 24.0724 30.7257 24.1131 30.9634Z" fill="#1D2020"/>
<path d="M27.1171 30.6081C27.0622 30.5105 26.9585 30.4404 26.8588 30.4001C26.7286 30.3449 26.5781 30.3152 26.4398 30.347C26.4113 30.3534 26.3808 30.3619 26.3544 30.3746C26.3218 30.3916 26.2995 30.4192 26.2893 30.4553C26.2832 30.4786 26.2791 30.5041 26.2771 30.5296C26.273 30.5869 26.2771 30.6463 26.2934 30.7015C26.391 31.0113 26.7103 31.1811 26.9991 31.2299C27.0866 31.2447 27.1842 31.2447 27.2717 31.2256C27.3571 31.2065 27.4242 31.1705 27.4934 31.1174C27.5137 31.0941 27.5219 31.0665 27.5137 31.0346C27.4812 30.9073 27.4486 30.78 27.4161 30.6505C27.4018 30.5953 27.349 30.5487 27.3042 30.5211C27.2412 30.4807 27.1557 30.4489 27.0805 30.4425C27.0195 30.4362 26.9422 30.4298 26.8852 30.4638C26.8466 30.4871 26.812 30.5211 26.8242 30.5741C26.8568 30.7015 26.8893 30.8288 26.9219 30.9582C26.928 30.9306 26.9361 30.9031 26.9422 30.8755C26.9381 30.8776 26.9341 30.8818 26.93 30.884C26.9422 30.8755 26.9564 30.8649 26.9686 30.8564C26.9422 30.8755 26.9157 30.8882 26.8852 30.8988C26.9035 30.8924 26.9218 30.8861 26.9402 30.8797C26.9218 30.8861 26.9035 30.8903 26.8852 30.8924C26.8486 30.8988 26.9646 30.8861 26.9157 30.8882C26.9056 30.8882 26.8974 30.8882 26.8873 30.8882C26.9503 30.8925 26.9686 30.8924 26.9402 30.8903C26.9361 30.8903 26.93 30.8903 26.9259 30.8882C26.9218 30.8882 26.9157 30.8861 26.9117 30.8861C26.8832 30.8818 26.9015 30.884 26.9707 30.8988C26.9605 30.8967 26.9524 30.8946 26.9422 30.8924C26.8913 30.8776 27.0174 30.9222 26.989 30.9094C26.9727 30.9031 26.9564 30.8946 26.9381 30.8882C26.993 30.9179 27.0093 30.9264 26.9849 30.9137C26.9808 30.9115 26.9768 30.9094 26.9727 30.9052C26.9646 30.9009 26.9564 30.8946 26.9483 30.8882C26.9056 30.8585 27.0012 30.9306 26.9727 30.9073C26.9646 30.9009 26.9585 30.8946 26.9503 30.8882C26.9361 30.8755 26.9219 30.8606 26.9096 30.8458C26.9219 30.8606 26.9341 30.8755 26.9483 30.8903C26.9178 30.8542 26.8934 30.816 26.873 30.7736C26.8791 30.7885 26.8873 30.8033 26.8934 30.8182C26.873 30.7715 26.8608 30.7227 26.8608 30.6717C26.8608 30.6866 26.8608 30.7015 26.8608 30.7163C26.8608 30.6781 26.8669 30.642 26.8791 30.606C26.8588 30.6272 26.8385 30.6505 26.8181 30.6717C26.8242 30.6696 26.8283 30.6675 26.8344 30.6654C26.8161 30.6717 26.7978 30.6781 26.7795 30.6845C26.7856 30.6824 26.7978 30.6823 26.8039 30.6781C26.8018 30.6802 26.7286 30.6845 26.7673 30.6824C26.7978 30.6824 26.6839 30.6739 26.7225 30.6802C26.7652 30.6866 26.633 30.6569 26.6758 30.6696C26.6778 30.6696 26.5842 30.6335 26.6269 30.6526C26.6554 30.6654 26.5537 30.6102 26.5863 30.6314C26.6188 30.6526 26.5334 30.5826 26.5598 30.6102C26.5659 30.6166 26.572 30.6229 26.5781 30.6272C26.5659 30.6123 26.5537 30.5975 26.5395 30.5826C26.5496 30.5932 26.5578 30.6059 26.5639 30.6187C26.5944 30.6717 26.6696 30.7163 26.7225 30.7375C26.7896 30.7672 26.8791 30.7906 26.9544 30.7863C27.0052 30.7842 27.0805 30.7778 27.113 30.7333C27.1456 30.693 27.1415 30.6526 27.1171 30.6081Z" fill="#1D2020"/>
<path d="M37.0853 17.0714C36.6032 17.8269 37.5185 18.593 38.1998 18.61C39.0683 18.6312 39.5402 17.7059 39.4873 16.9016C39.29 16.8761 39.0947 16.8507 38.8975 16.8252C39.0886 17.6635 39.8656 18.2386 40.673 18.2853C41.4785 18.332 42.2473 17.7823 42.4405 16.9547C42.2514 16.9292 42.0602 16.9037 41.871 16.8783C42.4039 17.5171 43.0792 17.8439 43.8968 17.7611C44.8283 17.6677 45.7456 17.5192 46.6832 17.4831C48.5808 17.4067 50.4886 17.5701 52.3476 17.9733C52.4351 17.9924 52.6486 18.0327 52.6812 17.9012C52.7137 17.7781 52.5083 17.6826 52.4269 17.6656C50.7185 17.2942 48.9795 17.1053 47.2344 17.116C46.3659 17.1223 45.4995 17.1796 44.6371 17.2815C44.2283 17.3303 43.8093 17.43 43.3964 17.4322C42.9876 17.4343 42.6744 17.1754 42.4181 16.8677C42.3368 16.77 41.9036 16.5621 41.8486 16.7913C41.7144 17.3685 41.2425 17.8757 40.6568 17.9372C40.073 17.9988 39.6093 17.4534 39.4852 16.9037C39.4405 16.7106 38.8791 16.5705 38.8954 16.8273C38.93 17.3473 38.7144 18.0009 38.2161 18.2153C37.7442 18.419 37.3781 17.708 37.6283 17.3154C37.7666 17.1032 37.1951 16.8974 37.0853 17.0714Z" fill="#1D2020"/>
<path d="M64.8906 16.5085C65.2913 17.1048 65.875 17.5335 66.5422 17.7415C66.8554 17.8391 67.1035 17.7839 67.2947 17.489C67.4594 17.2364 67.494 16.9138 67.3699 16.6358C67.3008 16.4809 66.7557 16.2793 66.7801 16.5594C66.9347 18.2254 69.2899 18.6859 70.0059 17.1918C69.8167 17.1664 69.6255 17.1409 69.4364 17.1154C69.9693 17.8009 70.8581 17.9028 71.6472 17.7797C72.0845 17.7118 72.4994 17.5526 72.9266 17.438C73.3944 17.3128 73.9496 17.177 74.395 17.438C74.4988 17.4974 74.7001 17.576 74.812 17.4953C74.9198 17.4189 74.8567 17.3128 74.7611 17.2555C73.9272 16.7717 73.0242 16.9584 72.1537 17.2258C71.5008 17.4253 70.5001 17.7648 69.9855 17.1048C69.8839 16.9754 69.5157 16.8226 69.4161 17.0284C69.2045 17.472 68.6961 17.8497 68.2038 17.7585C67.7137 17.6672 67.4147 17.1154 67.3699 16.6401C67.1727 16.6146 66.9774 16.5891 66.7801 16.5637C66.9306 16.9011 66.8249 17.3128 66.4974 17.4868C66.5889 17.4847 66.6805 17.4826 66.772 17.4826C66.2208 17.3362 65.7652 16.986 65.4398 16.5021C65.3605 16.3833 65.1835 16.3281 65.0513 16.3345C64.9598 16.3324 64.8093 16.3875 64.8906 16.5085Z" fill="#1D2020"/>
<path d="M78.3613 17.0913C80.2508 17.9126 82.3742 17.5751 84.3532 17.4245C84.461 17.416 84.5728 17.3714 84.5138 17.2441C84.4589 17.1252 84.2372 17.0679 84.1254 17.0764C83.1715 17.1486 82.2155 17.2441 81.2596 17.2632C80.3525 17.2802 79.4392 17.2059 78.5952 16.8366C78.4996 16.7963 78.284 16.7369 78.2047 16.843C78.1254 16.9533 78.282 17.0552 78.3613 17.0913Z" fill="#1D2020"/>
<path d="M108.583 18.3626C109.022 17.9276 109.37 17.414 109.628 16.841C109.691 16.6988 109.362 16.5927 109.293 16.5885C108.662 16.5396 107.985 16.8919 107.843 17.5859C107.7 18.2798 108.211 18.925 108.817 19.133C109.604 19.4025 110.47 18.9589 111.196 18.6661C112.041 18.3244 112.876 17.9785 113.773 17.8257C114.784 17.6517 115.822 17.6899 116.82 17.9297C116.908 17.9509 117.121 17.987 117.154 17.8575C117.186 17.7323 116.979 17.6411 116.899 17.622C115.962 17.3949 114.998 17.3121 114.038 17.4076C113.1 17.501 112.213 17.7684 111.337 18.1186C110.885 18.2989 110.438 18.4921 109.982 18.6555C109.586 18.7977 109.065 19.0311 108.717 18.6788C108.447 18.4051 108.343 17.9785 108.473 17.6092C108.601 17.2442 108.984 16.8983 109.374 16.928C109.262 16.8431 109.15 16.7604 109.038 16.6755C108.792 17.223 108.455 17.7047 108.036 18.1207C107.879 18.2777 108.432 18.5133 108.583 18.3626Z" fill="#1D2020"/>
<path d="M77.092 20.5734C77.0289 20.3803 76.8398 20.2636 76.6588 20.2169C76.492 20.1723 76.2866 20.1596 76.1361 20.2615C75.8513 20.4503 75.8554 20.8217 75.9591 21.1188C76.01 21.2589 76.0628 21.4202 76.1544 21.539C76.3089 21.7449 76.5855 21.8552 76.8337 21.8085C76.9944 21.7788 77.1123 21.6706 77.1896 21.5263C77.2567 21.4011 77.271 21.261 77.2649 21.1209C77.2506 20.7729 77.0391 20.4652 76.7625 20.2869C76.6527 20.2148 76.4676 20.1638 76.3455 20.2296C76.2215 20.2954 76.3171 20.4185 76.3964 20.4694C76.4066 20.4758 76.4147 20.4822 76.4249 20.4885C76.4676 20.5161 76.4106 20.48 76.4127 20.4779C76.4188 20.4758 76.4656 20.5246 76.4696 20.5288C76.4778 20.5373 76.4859 20.5458 76.494 20.5543C76.5164 20.5755 76.4696 20.5246 76.49 20.5501C76.5062 20.5713 76.5225 20.5904 76.5367 20.6116C76.551 20.6328 76.5652 20.6562 76.5774 20.6774C76.5835 20.688 76.5876 20.6986 76.5937 20.7092C76.5957 20.7135 76.612 20.7474 76.6018 20.7262C76.5916 20.705 76.6079 20.7389 76.6079 20.7432C76.612 20.7538 76.6161 20.7644 76.6201 20.7771C76.6303 20.8047 76.6384 20.8323 76.6445 20.862C76.6567 20.9066 76.6628 20.9533 76.6669 21C76.6689 21.0148 76.6689 21.0297 76.6689 21.0445C76.6689 21.0467 76.6689 21.0764 76.6689 21.053C76.6689 21.0785 76.6669 21.1061 76.6628 21.1316C76.6567 21.1804 76.6466 21.2313 76.6303 21.278C76.61 21.3332 76.5998 21.3523 76.5632 21.399C76.5489 21.4181 76.5306 21.4329 76.5144 21.4499C76.5083 21.4541 76.4859 21.4711 76.5144 21.452C76.5042 21.4584 76.4961 21.4626 76.4859 21.469C76.4737 21.4754 76.4493 21.4796 76.4961 21.469C76.4778 21.4732 76.4574 21.4711 76.5164 21.469C76.4513 21.4711 76.6161 21.486 76.6059 21.4838C76.6283 21.4902 76.6486 21.4987 76.6689 21.5114C76.6913 21.5242 76.6933 21.5242 76.673 21.5135C76.6771 21.5157 76.7259 21.5475 76.6893 21.522C76.6954 21.5263 76.7178 21.5624 76.6933 21.5284C76.6791 21.5093 76.6669 21.4902 76.6547 21.469C76.6425 21.4478 76.6323 21.4265 76.6222 21.4053C76.6364 21.435 76.6222 21.4074 76.6201 21.4011C76.612 21.382 76.6039 21.3629 76.5957 21.3438C76.5469 21.2271 76.5001 21.1061 76.4798 20.9788C76.4635 20.8769 76.4676 20.792 76.5103 20.6838C76.5225 20.6541 76.5286 20.6413 76.5388 20.6286C76.5571 20.6052 76.5733 20.5819 76.5937 20.5628C76.6018 20.5543 76.61 20.5479 76.6201 20.5395C76.6018 20.5543 76.6161 20.5437 76.6283 20.5373C76.6567 20.5225 76.6344 20.5331 76.6344 20.5331C76.6161 20.5395 76.6161 20.5395 76.6344 20.5331C76.6384 20.5331 76.6445 20.531 76.6486 20.531C76.6974 20.5182 76.5998 20.5352 76.6323 20.5331C76.6669 20.531 76.5611 20.5246 76.6079 20.531C76.5144 20.5161 76.5489 20.5161 76.5693 20.5225C76.5164 20.5034 76.5022 20.497 76.5266 20.5076C76.5469 20.5161 76.5367 20.5097 76.492 20.4885C76.4961 20.4928 76.5123 20.5034 76.5164 20.5034C76.5062 20.4949 76.4961 20.4885 76.4839 20.48C76.5001 20.497 76.4981 20.4928 76.4737 20.4673C76.4737 20.4673 76.49 20.4928 76.49 20.4907C76.5123 20.5204 76.4798 20.4588 76.492 20.4991C76.5347 20.6307 76.7056 20.6965 76.8276 20.7071C76.9028 20.7114 77.1367 20.7092 77.092 20.5734Z" fill="#1D2020"/>
<path d="M28.732 30.5634C28.6608 30.5358 28.7258 30.5612 28.7238 30.5591C28.7096 30.54 28.6933 30.5188 28.6852 30.4976C28.6526 30.4254 28.6486 30.3469 28.6648 30.2705C28.6953 30.1262 28.8133 29.95 28.9638 29.9331C28.917 29.9352 28.8703 29.9352 28.8235 29.9352C28.7848 29.9161 28.7462 29.8991 28.7075 29.88C28.7218 29.8906 28.734 29.9033 28.7462 29.9182C28.7564 29.9288 28.7625 29.9394 28.7726 29.95C28.8031 29.9882 28.8296 30.0307 28.8499 30.0752C28.8926 30.158 28.917 30.2514 28.9333 30.3448C28.9679 30.5485 28.9414 30.7586 28.8743 30.9538C28.7279 31.3655 28.3842 31.669 28.0282 31.8834C28.2052 31.9449 28.3801 32.0086 28.557 32.0701C28.5489 31.9852 28.5733 31.8982 28.6262 31.8324C28.6587 31.7942 28.7035 31.7857 28.732 31.7539H28.7442C28.7421 31.773 28.6384 31.7242 28.6384 31.7221C28.6384 31.7242 28.8031 31.8982 28.8194 31.9152C28.8947 32.0022 28.9821 32.0722 29.0797 32.1274C29.3157 32.2569 29.5882 32.2972 29.8526 32.2547C30.0906 32.2165 30.3082 32.0956 30.5157 31.9725C30.6336 31.9025 30.5482 31.7879 30.4648 31.7327C30.3611 31.6648 30.1659 31.6054 30.0479 31.6754C29.8628 31.7836 29.6411 31.9385 29.4194 31.9237C29.4011 31.9216 29.3808 31.9067 29.4153 31.9258C29.3889 31.9109 29.3564 31.8812 29.3279 31.8515C29.2567 31.7751 29.1936 31.686 29.1123 31.6181C28.8845 31.4271 28.5591 31.3464 28.2804 31.4483C28.0608 31.529 27.9428 31.7518 27.9692 31.9895C27.9794 32.0807 28.1198 32.1444 28.1869 32.1677C28.2764 32.1996 28.4126 32.2293 28.5001 32.1762C29.035 31.8558 29.5394 31.3507 29.5435 30.6631C29.5455 30.3426 29.4418 30.0413 29.2221 29.8121C28.9191 29.498 28.3964 29.5129 28.1625 29.9012C27.9448 30.262 28.1381 30.6652 28.5021 30.8116C28.6038 30.852 28.8052 30.9093 28.8926 30.8053C28.976 30.7077 28.8072 30.5931 28.732 30.5634Z" fill="#1D2020"/>
</svg>
