<svg width="64" height="157" viewBox="0 0 64 157" fill="none" xmlns="http://www.w3.org/2000/svg">
<path d="M32.0105 81.3691C16.1051 81.3691 8.06059 89.5755 8.48576 95.2829C8.65743 97.5797 9.57348 101.216 10.5754 103.339C11.5772 105.461 12.276 107.921 11.4431 110.075C9.47289 115.225 5.59948 119.615 3.07667 124.569C0.231973 130.153 -0.791367 136.769 1.9058 142.412C5.83285 150.624 16.3774 154.644 26.2755 155.974C34.245 157.045 42.7576 156.815 49.8647 153.425C56.2756 150.367 61.0973 144.775 62.7684 138.464C64.4382 132.154 62.928 125.229 58.7273 119.937C56.4379 117.052 53.3169 114.486 52.4666 111.035C50.9939 105.06 56.2542 99.1109 55.0498 93.0877C53.7729 86.7021 45.8866 81.3691 32.0105 81.3691Z" fill="#D37D33"/>
<path d="M32.0038 82.6484C17.0279 82.6484 9.45276 90.5749 9.85378 96.0885C10.0147 98.3075 10.8771 101.82 11.8213 103.869C12.7655 105.918 13.4227 108.296 12.6381 110.375C10.7832 115.349 7.1365 119.59 4.76122 124.375C2.08284 129.769 1.11851 136.161 3.65875 141.611C7.35646 149.545 17.2841 153.427 26.6054 154.711C34.1095 155.746 42.1245 155.524 48.8172 152.249C54.8526 149.296 59.3939 143.894 60.9658 137.797C62.5377 131.701 61.116 125.012 57.1608 119.9C55.0055 117.114 52.0669 114.635 51.2662 111.301C49.8794 105.529 54.8325 99.7825 53.6978 93.9651C52.4947 87.8007 45.0685 82.6484 32.0038 82.6484Z" stroke="#BA6316" stroke-width="0.410256" stroke-miterlimit="10"/>
<path d="M17.3538 134.395C16.6604 134.84 16.6228 135.89 17.284 136.373C17.7467 136.711 18.3865 136.749 18.9793 136.821C23.5005 137.367 27.3055 140.627 31.867 140.672C36.2527 140.713 40.0135 137.769 44.359 137.229C45.2535 137.117 46.3077 137.035 46.7745 136.346C47.2774 135.602 46.69 134.581 45.8222 134.185C44.9558 133.789 43.9284 133.838 42.9561 133.883C34.8699 134.254 26.7529 133.64 17.3538 134.395Z" fill="#C46A2D"/>
<path d="M44.8579 98.2733C44.6795 97.8845 44.4837 97.5065 44.2624 97.1369C41.9073 93.1868 37.2506 90.5 31.8858 90.5C24.1483 90.5 17.8782 96.0925 17.8782 102.994C17.8782 109.895 24.1483 115.488 31.8858 115.488C39.1766 115.488 45.165 110.522 45.8316 104.176C45.8705 103.787 45.892 103.392 45.892 102.995C45.892 101.323 45.5245 99.728 44.8579 98.2733ZM31.9743 92.0922C36.5961 92.0922 40.6318 94.3328 42.7911 97.662C42.2198 97.869 41.6524 98.0795 41.0891 98.2949C39.2691 95.5387 35.8678 93.6833 31.9743 93.6833C28.3597 93.6833 25.173 95.2815 23.2739 97.7135C23.1022 97.6429 22.9346 97.5735 22.7629 97.5029C22.3739 97.3402 21.9783 97.1811 21.5705 97.0639C23.809 94.0661 27.6355 92.0922 31.9743 92.0922ZM20.9442 98.0066C21.5075 98.2171 22.0614 98.4528 22.6006 98.7135C21.93 99.8596 21.5263 101.14 21.4592 102.501C20.8168 102.438 20.1502 102.593 19.5105 102.545C19.6204 100.912 20.1261 99.3751 20.9442 98.0066ZM19.4917 103.624C20.1515 103.601 20.8114 103.58 21.4753 103.557C21.5464 104.525 21.7932 105.451 22.1848 106.313C21.5464 106.59 20.9174 106.883 20.2964 107.191C19.8203 106.078 19.5413 104.878 19.4917 103.624ZM23.5596 111.463C22.4812 110.588 21.5759 109.545 20.8973 108.382C21.5075 108.077 22.0856 107.726 22.6314 107.335C22.6529 107.319 22.6784 107.303 22.6998 107.287C23.2564 108.192 23.9807 109.009 24.8377 109.7C24.4273 110.263 24.0209 110.823 23.6132 111.387C23.5958 111.413 23.577 111.438 23.5596 111.463ZM24.5225 112.174C24.8686 111.537 25.2615 110.917 25.6934 110.321C27.2881 111.365 29.1551 112.2 31.2634 112.305C31.246 113.047 31.3318 113.613 31.3707 114.357C28.8131 114.252 26.4539 113.456 24.5225 112.174ZM33.0593 114.332C32.9587 113.594 32.948 113.094 32.8876 112.352C34.261 112.26 35.4936 111.693 36.6672 111.177C37.0092 111.829 37.3807 112.469 37.7871 113.094C36.3533 113.769 34.7546 114.202 33.0593 114.332ZM38.9982 112.444C38.5663 111.849 38.1666 111.235 37.7884 110.61C38.9378 109.942 39.929 109.079 40.7002 108.08C41.179 108.427 41.6779 108.742 42.1956 109.029C42.3029 109.086 42.4129 109.146 42.5202 109.207C41.6068 110.487 40.4038 111.591 38.9982 112.444ZM43.0553 108.379C42.9239 108.287 42.7871 108.192 42.6557 108.096C42.2131 107.784 41.7664 107.471 41.3211 107.16V107.157C41.8603 106.252 42.2305 105.263 42.3955 104.213C43.0661 104.245 43.7447 104.255 44.4153 104.238C44.2651 105.721 43.7903 107.122 43.0553 108.379ZM44.4649 103.29C43.8077 103.271 43.1519 103.246 42.4947 103.208C42.5014 103.112 42.5014 103.014 42.5014 102.915C42.5014 101.591 42.1835 100.333 41.6095 99.1968C42.1916 99.0126 42.7804 98.8368 43.3719 98.6717C44.0746 100.063 44.4636 101.61 44.4636 103.233V103.29H44.4649Z" fill="#C46A2D"/>
<path d="M35.2535 71.9511C34.0813 71.8841 32.9078 71.8482 31.7342 71.8422C31.2152 71.8398 30.6867 71.8434 30.1905 71.9798C30.0617 72.0145 29.9303 72.0623 29.8404 72.152C29.7506 72.2418 29.717 72.3853 29.7948 72.4834C29.8552 72.5588 29.9625 72.5899 30.0644 72.6126C31.4995 72.9368 33.011 72.6258 34.4917 72.6628C34.6875 72.6676 34.8887 72.6784 35.0752 72.6234C35.2616 72.5683 35.4333 72.4308 35.448 72.2573C35.4628 72.0803 35.2602 71.9032 35.2535 71.9511Z" fill="#1D2020"/>
<path d="M23.0338 8.63033L39.4234 8.46166L39.4341 8.4485L39.6581 8.44371C39.9089 8.43773 40.1315 8.33246 40.2482 8.17455C40.3756 8.0011 40.5674 7.85156 40.8155 7.85156C41.6592 7.85156 41.9797 8.29059 41.9448 8.74278C41.91 9.19497 41.8402 9.58256 41.6323 9.74764C41.4244 9.91272 41.1736 9.98211 40.8397 9.98211C40.6707 9.98211 40.5138 9.86368 40.3984 9.74644C40.2603 9.60528 40.0403 9.51676 39.7989 9.51796C37.2989 9.52633 24.3267 9.56581 22.4906 9.567C22.3726 9.567 22.276 9.63041 22.264 9.71414C22.2331 9.91033 22.1258 10.2345 21.7476 10.2345C21.2044 10.2345 20.4896 9.92588 20.4372 9.38039C20.3849 8.83489 20.5566 7.95325 21.3627 7.97239C22.1674 7.99153 22.1862 8.22599 22.3082 8.44969C22.4289 8.6734 23.0338 8.63033 23.0338 8.63033Z" fill="#F5CFAA"/>
<path d="M22.9037 11.9878L39.5534 11.8191L39.5655 11.8059L39.7935 11.8011C40.0483 11.7952 40.275 11.6899 40.393 11.532C40.5218 11.3585 40.7176 11.209 40.9698 11.209C41.8281 11.209 42.1514 11.648 42.1165 12.1002C42.0816 12.5524 42.0105 12.94 41.8 13.1051C41.588 13.2689 41.3346 13.3395 40.9939 13.3395C40.8222 13.3395 40.6626 13.2211 40.5459 13.1039C40.4064 12.9627 40.1825 12.8742 39.937 12.8754C37.3968 12.8838 24.2181 12.9232 22.3525 12.9244C22.2331 12.9244 22.1352 12.9878 22.1218 13.0716C22.0909 13.2678 21.981 13.5919 21.5974 13.5919C21.0461 13.5919 20.3192 13.2833 20.2669 12.7378C20.2132 12.1935 20.3889 11.3107 21.2071 11.3298C22.0252 11.3489 22.044 11.5834 22.1674 11.8071C22.2894 12.032 22.9037 11.9878 22.9037 11.9878Z" fill="#F5CFAA"/>
<path d="M23.2055 15.9565L39.595 15.7878L39.6058 15.7747L39.8297 15.7699C40.0805 15.7639 40.3032 15.6586 40.4199 15.5007C40.5473 15.3273 40.7391 15.1777 40.9872 15.1777C41.8308 15.1777 42.1514 15.6168 42.1165 16.069C42.0816 16.5211 42.0119 16.9087 41.804 17.0738C41.5961 17.2389 41.3453 17.3083 41.0113 17.3083C40.8423 17.3083 40.6854 17.1899 40.5701 17.0726C40.4319 16.9315 40.212 16.8429 39.9706 16.8441C37.4706 16.8525 24.4984 16.892 22.6623 16.8932C22.5443 16.8932 22.4477 16.9566 22.4356 17.0403C22.4048 17.2365 22.2975 17.5607 21.9193 17.5607C21.3761 17.5607 20.6612 17.2521 20.6089 16.7066C20.5566 16.1623 20.7283 15.2794 21.5343 15.2986C22.3391 15.3177 22.3578 15.5522 22.4799 15.7759C22.6006 15.9996 23.2055 15.9565 23.2055 15.9565Z" fill="#F5CFAA"/>
<path d="M16.6604 131.867L47.1782 132.073L47.256 135.908C47.26 136.127 47.0266 136.287 46.7906 136.225C46.1736 136.062 45.0363 135.826 43.8681 135.906C40.782 136.119 36.643 138.713 31.7463 138.679C28.239 138.679 23.4549 136.163 21.1749 135.954C19.497 135.799 17.7562 135.931 16.9528 136.011C16.7114 136.035 16.5048 135.862 16.5129 135.645L16.6604 131.867Z" fill="#43241A"/>
<path d="M25.4466 135.049L38.3235 135.072C38.3235 135.072 35.613 137.63 31.6645 137.481C28.6937 137.368 25.4466 135.049 25.4466 135.049Z" fill="#66371F"/>
<path d="M31.8858 111.768C37.2072 111.768 41.521 107.849 41.521 103.015C41.521 98.1806 37.2072 94.2617 31.8858 94.2617C26.5644 94.2617 22.2505 98.1806 22.2505 103.015C22.2505 107.849 26.5644 111.768 31.8858 111.768Z" fill="#47231A"/>
<path d="M32.3995 10.57C31.8214 10.57 31.2393 10.5736 30.6653 10.576C30.7082 11.6012 30.7404 12.6288 30.7551 13.6576L32.4075 13.6348C32.4075 12.6132 32.4035 11.5916 32.3995 10.57ZM32.3995 10.57C31.8214 10.57 31.2393 10.5736 30.6653 10.576C30.7082 11.6012 30.7404 12.6288 30.7551 13.6576L32.4075 13.6348C32.4075 12.6132 32.4035 11.5916 32.3995 10.57ZM32.3995 10.57C31.8214 10.57 31.2393 10.5736 30.6653 10.576C30.7082 11.6012 30.7404 12.6288 30.7551 13.6576L32.4075 13.6348C32.4075 12.6132 32.4035 11.5916 32.3995 10.57ZM32.3995 10.57C31.8214 10.57 31.2393 10.5736 30.6653 10.576C30.7082 11.6012 30.7404 12.6288 30.7551 13.6576L32.4075 13.6348C32.4075 12.6132 32.4035 11.5916 32.3995 10.57ZM32.3995 10.57C31.8214 10.57 31.2393 10.5736 30.6653 10.576C30.7082 11.6012 30.7404 12.6288 30.7551 13.6576L32.4075 13.6348C32.4075 12.6132 32.4035 11.5916 32.3995 10.57ZM32.3995 10.57C31.8214 10.57 31.2393 10.5736 30.6653 10.576C30.7082 11.6012 30.7404 12.6288 30.7551 13.6576L32.4075 13.6348C32.4075 12.6132 32.4035 11.5916 32.3995 10.57ZM32.3995 10.57C31.8214 10.57 31.2393 10.5736 30.6653 10.576C30.7082 11.6012 30.7404 12.6288 30.7551 13.6576L32.4075 13.6348C32.4075 12.6132 32.4035 11.5916 32.3995 10.57ZM32.3995 10.57C31.8214 10.57 31.2393 10.5736 30.6653 10.576C30.7082 11.6012 30.7404 12.6288 30.7551 13.6576L32.4075 13.6348C32.4075 12.6132 32.4035 11.5916 32.3995 10.57ZM32.3995 10.57C31.8214 10.57 31.2393 10.5736 30.6653 10.576C30.7082 11.6012 30.7404 12.6288 30.7551 13.6576L32.4075 13.6348C32.4075 12.6132 32.4035 11.5916 32.3995 10.57ZM32.3995 10.57C31.8214 10.57 31.2393 10.5736 30.6653 10.576C30.7082 11.6012 30.7404 12.6288 30.7551 13.6576L32.4075 13.6348C32.4075 12.6132 32.4035 11.5916 32.3995 10.57ZM32.3995 10.57C31.8214 10.57 31.2393 10.5736 30.6653 10.576C30.7082 11.6012 30.7404 12.6288 30.7551 13.6576L32.4075 13.6348C32.4075 12.6132 32.4035 11.5916 32.3995 10.57ZM32.3995 10.57C31.8214 10.57 31.2393 10.5736 30.6653 10.576C30.7082 11.6012 30.7404 12.6288 30.7551 13.6576L32.4075 13.6348C32.4075 12.6132 32.4035 11.5916 32.3995 10.57ZM32.3995 10.57C31.8214 10.57 31.2393 10.5736 30.6653 10.576C30.7082 11.6012 30.7404 12.6288 30.7551 13.6576L32.4075 13.6348C32.4075 12.6132 32.4035 11.5916 32.3995 10.57ZM32.3995 10.57C31.8214 10.57 31.2393 10.5736 30.6653 10.576C30.7082 11.6012 30.7404 12.6288 30.7551 13.6576L32.4075 13.6348C32.4075 12.6132 32.4035 11.5916 32.3995 10.57ZM32.3995 10.57C31.8214 10.57 31.2393 10.5736 30.6653 10.576C30.7082 11.6012 30.7404 12.6288 30.7551 13.6576L32.4075 13.6348C32.4075 12.6132 32.4035 11.5916 32.3995 10.57ZM38.9378 5.31484C38.7984 4.66288 38.0956 4.22983 37.3995 4.00373C36.6994 3.77405 35.9429 3.67955 35.3045 3.33861C34.5695 2.94743 34.0773 2.28829 33.5314 1.69973C32.9856 1.11356 32.2828 0.550122 31.4298 0.503468C30.4239 0.446047 29.5561 1.11117 28.907 1.79902C28.2538 2.48328 27.6368 3.26684 26.698 3.59461C26.1347 3.79558 25.5137 3.80516 24.9142 3.89368C24.3147 3.9834 23.687 4.18317 23.3477 4.63177C22.9694 5.13181 23.0875 5.79095 23.1478 6.39148C23.2337 7.23843 23.3047 8.25645 23.3691 9.37735C23.3946 9.77212 23.4161 10.18 23.4335 10.5999C23.4872 11.606 23.5341 12.6719 23.5797 13.7509C23.5944 14.1552 23.6119 14.5655 23.6293 14.9759C23.687 16.3229 23.7433 17.6651 23.8117 18.9223C23.8332 19.3422 23.8587 19.7501 23.8828 20.1473C23.9539 21.3507 24.0397 22.4417 24.143 23.3365C24.1752 23.6009 24.882 23.9574 25.0456 24.0459C25.5164 24.2948 25.7551 24.2971 26.1977 24.5555C26.2876 24.607 26.3828 24.6668 26.4901 24.7434L26.4834 25.2147L26.3694 34.2836L26.3587 35.1401L26.2661 42.4002L26.2514 43.2531L26.1722 49.5622L26.1615 50.4152L26.0864 56.0902L26.0757 56.9396L26.0261 60.8645L26.0153 61.7115L25.9684 65.3206L25.9577 66.1676L25.9107 69.7767L25.9 70.6201L25.8638 73.4373L25.853 74.2806L25.8101 77.562L25.7994 78.4149L25.7605 81.3816L25.7498 82.2501L25.7283 84.0864L25.7176 84.9393L25.7001 86.3174L25.6894 87.1644L25.6505 90.1347L25.6398 90.9912L25.6224 92.3657L25.6116 93.2151L25.4547 96.4247C25.4547 96.4247 28.6629 94.1601 31.7973 94.2606C35.5044 94.3802 37.3351 95.8134 37.6691 96.073C37.6972 96.0957 37.5993 94.6183 37.5886 93.361C37.5886 93.0524 37.5846 92.7114 37.5779 92.3358C37.5738 91.9662 37.5712 91.5654 37.5631 91.136C37.5564 90.8118 37.5524 90.4673 37.5457 90.1084C37.5309 89.2614 37.5175 88.3224 37.4961 87.3103C37.492 86.979 37.4853 86.6392 37.4746 86.2887C37.4706 85.8975 37.4639 85.4932 37.4572 85.0829C37.4464 84.7491 37.4397 84.4082 37.4317 84.0613C37.4209 83.517 37.4102 82.9571 37.3995 82.3841C37.3928 82.0468 37.3847 81.7034 37.378 81.3565C37.3606 80.4521 37.3391 79.5203 37.3177 78.562C37.311 78.2247 37.3029 77.8838 37.2922 77.5368C37.2748 76.5284 37.2493 75.49 37.2238 74.4302C37.2171 74.0928 37.209 73.7495 37.2023 73.405C37.1849 72.5365 37.1634 71.6572 37.142 70.766C37.1353 70.4251 37.1272 70.0853 37.1205 69.7444C37.095 68.6115 37.0669 67.4619 37.0387 66.3039C37.032 65.9702 37.0239 65.6328 37.0172 65.2919C36.9918 64.1519 36.9636 63.0034 36.9354 61.8538C36.9287 61.5129 36.9207 61.1732 36.914 60.8322C36.8818 59.5785 36.8536 58.3273 36.8241 57.076C36.8134 56.735 36.8067 56.3977 36.7986 56.0579C36.7517 54.1954 36.7088 52.3531 36.6632 50.5456C36.6565 50.2082 36.6484 49.8709 36.6377 49.5371C36.5881 47.4137 36.5371 45.3478 36.4915 43.3811C36.4848 43.0438 36.4741 42.7064 36.466 42.3751C36.4016 39.7971 36.3453 37.4034 36.2916 35.2765C36.2849 34.9295 36.2769 34.5886 36.2702 34.2548C36.1388 28.965 36.0596 25.5748 36.0663 25.5939C36.0771 25.5054 36.0985 25.4157 36.1307 25.3331C36.2514 24.9826 36.5304 24.6776 36.8912 24.5053C36.8952 24.5017 36.9019 24.5017 36.9059 24.4993C37.2627 24.3366 37.6838 24.2924 38.0191 24.0914C38.3759 23.8749 38.5864 23.4992 38.6616 23.1176C38.683 23.0064 38.7192 21.8161 38.7581 20.0971C38.7689 19.67 38.7796 19.2118 38.7903 18.7321C38.8118 17.561 38.8373 16.2523 38.8614 14.922C38.8681 14.4675 38.8762 14.0081 38.8829 13.5535C38.9003 12.5187 38.915 11.4971 38.9258 10.5461C38.9325 10.0724 38.9365 9.61301 38.9432 9.18116C38.97 6.91903 38.9727 5.30527 38.9378 5.31484ZM27.9172 19.4224C27.8957 19.2381 27.8783 19.0563 27.8595 18.8721C27.7173 17.5729 27.5953 16.2714 27.496 14.9663C27.4598 14.5464 27.4276 14.1229 27.3995 13.6994C27.3284 12.6647 27.268 11.6275 27.2211 10.5892C27.1996 10.1693 27.1849 9.74939 27.1674 9.3283C27.1527 8.91081 27.1393 8.49092 27.1285 8.07462C27.1218 7.83537 27.1218 7.58774 27.2533 7.38438C27.382 7.1834 27.614 7.06258 27.8353 6.94774C28.2994 6.70849 28.7916 6.46445 29.3268 6.45727C29.8619 6.45129 30.444 6.77548 30.4789 7.25279C30.5258 7.92748 30.5687 8.60217 30.6036 9.28404C30.6291 9.7135 30.6465 10.143 30.6639 10.576C30.7069 11.6012 30.7391 12.6288 30.7538 13.6576C30.7605 14.087 30.7645 14.5201 30.7645 14.9495C30.7686 16.2451 30.7471 17.5407 30.7002 18.8362C30.6854 19.2657 30.672 19.6951 30.6505 20.1258C30.6505 20.1485 30.6465 20.17 30.6465 20.1928C30.6398 20.3172 30.6251 20.4595 30.507 20.5301C30.4748 20.5493 30.4359 20.5624 30.3997 20.5648C30.3501 20.5744 30.2991 20.5744 30.2495 20.5744C30.0282 20.5744 29.8109 20.5708 29.5896 20.5708H29.4394C29.0009 20.5672 28.5086 20.5457 28.2149 20.2526C28.1787 20.2179 28.1465 20.176 28.1224 20.1353C27.9815 19.9284 27.9467 19.67 27.9172 19.4224ZM35.6264 10.5605C35.558 11.5725 35.4869 12.5845 35.4199 13.5966C35.3877 14.0452 35.3555 14.4914 35.3273 14.9364C35.2375 16.2188 35.1489 17.4988 35.0591 18.7788C35.0309 19.2214 34.9987 19.6664 34.9665 20.109V20.1341C34.9665 20.1784 34.9625 20.2227 34.9384 20.2586C34.8847 20.3351 34.7707 20.3471 34.6742 20.3543C34.1994 20.377 33.7246 20.3985 33.2498 20.4213C33.0969 20.4272 32.9319 20.4344 32.7898 20.377C32.661 20.3232 32.5752 20.231 32.5188 20.1186C32.433 19.9439 32.4156 19.7238 32.4156 19.5264V18.8135C32.4115 17.5239 32.4115 16.2355 32.4089 14.946V13.6348C32.4089 12.6132 32.4048 11.5916 32.4021 10.57C32.4062 10.1334 32.4021 9.69795 32.4021 9.26131C32.4021 8.56269 32.3995 7.86288 32.3981 7.16426C32.3981 6.91424 32.5457 6.67379 32.7965 6.56254C32.834 6.54579 32.8729 6.53264 32.9118 6.52307C33.1505 6.47163 33.4013 6.53264 33.632 6.59604C34.4596 6.82811 35.3662 7.18819 35.6559 7.9203C35.7874 8.25406 35.7632 8.6237 35.7377 8.9766C35.731 9.05675 35.727 9.13929 35.7203 9.21825C35.6908 9.66565 35.6586 10.1154 35.6264 10.5605ZM32.3995 10.57C31.8214 10.57 31.2393 10.5736 30.6653 10.576C30.7082 11.6012 30.7404 12.6288 30.7551 13.6576L32.4075 13.6348C32.4075 12.6132 32.4035 11.5916 32.3995 10.57ZM32.3995 10.57C31.8214 10.57 31.2393 10.5736 30.6653 10.576C30.7082 11.6012 30.7404 12.6288 30.7551 13.6576L32.4075 13.6348C32.4075 12.6132 32.4035 11.5916 32.3995 10.57ZM32.3995 10.57C31.8214 10.57 31.2393 10.5736 30.6653 10.576C30.7082 11.6012 30.7404 12.6288 30.7551 13.6576L32.4075 13.6348C32.4075 12.6132 32.4035 11.5916 32.3995 10.57ZM32.3995 10.57C31.8214 10.57 31.2393 10.5736 30.6653 10.576C30.7082 11.6012 30.7404 12.6288 30.7551 13.6576L32.4075 13.6348C32.4075 12.6132 32.4035 11.5916 32.3995 10.57ZM32.3995 10.57C31.8214 10.57 31.2393 10.5736 30.6653 10.576C30.7082 11.6012 30.7404 12.6288 30.7551 13.6576L32.4075 13.6348C32.4075 12.6132 32.4035 11.5916 32.3995 10.57ZM32.3995 10.57C31.8214 10.57 31.2393 10.5736 30.6653 10.576C30.7082 11.6012 30.7404 12.6288 30.7551 13.6576L32.4075 13.6348C32.4075 12.6132 32.4035 11.5916 32.3995 10.57ZM32.3995 10.57C31.8214 10.57 31.2393 10.5736 30.6653 10.576C30.7082 11.6012 30.7404 12.6288 30.7551 13.6576L32.4075 13.6348C32.4075 12.6132 32.4035 11.5916 32.3995 10.57ZM32.3995 10.57C31.8214 10.57 31.2393 10.5736 30.6653 10.576C30.7082 11.6012 30.7404 12.6288 30.7551 13.6576L32.4075 13.6348C32.4075 12.6132 32.4035 11.5916 32.3995 10.57ZM32.3995 10.57C31.8214 10.57 31.2393 10.5736 30.6653 10.576C30.7082 11.6012 30.7404 12.6288 30.7551 13.6576L32.4075 13.6348C32.4075 12.6132 32.4035 11.5916 32.3995 10.57ZM32.3995 10.57C31.8214 10.57 31.2393 10.5736 30.6653 10.576C30.7082 11.6012 30.7404 12.6288 30.7551 13.6576L32.4075 13.6348C32.4075 12.6132 32.4035 11.5916 32.3995 10.57ZM32.3995 10.57C31.8214 10.57 31.2393 10.5736 30.6653 10.576C30.7082 11.6012 30.7404 12.6288 30.7551 13.6576L32.4075 13.6348C32.4075 12.6132 32.4035 11.5916 32.3995 10.57ZM32.3995 10.57C31.8214 10.57 31.2393 10.5736 30.6653 10.576C30.7082 11.6012 30.7404 12.6288 30.7551 13.6576L32.4075 13.6348C32.4075 12.6132 32.4035 11.5916 32.3995 10.57ZM32.3995 10.57C31.8214 10.57 31.2393 10.5736 30.6653 10.576C30.7082 11.6012 30.7404 12.6288 30.7551 13.6576L32.4075 13.6348C32.4075 12.6132 32.4035 11.5916 32.3995 10.57ZM32.3995 10.57C31.8214 10.57 31.2393 10.5736 30.6653 10.576C30.7082 11.6012 30.7404 12.6288 30.7551 13.6576L32.4075 13.6348C32.4075 12.6132 32.4035 11.5916 32.3995 10.57ZM32.3995 10.57C31.8214 10.57 31.2393 10.5736 30.6653 10.576C30.7082 11.6012 30.7404 12.6288 30.7551 13.6576L32.4075 13.6348C32.4075 12.6132 32.4035 11.5916 32.3995 10.57Z" fill="#72301F"/>
<path d="M36.9073 24.5C36.9033 24.5036 36.8966 24.5036 36.8925 24.506C36.5317 24.6782 36.2541 24.9833 36.1321 25.3338L35.6506 25.3278L34.0626 25.3087L32.5349 25.2895L31.018 25.2704L29.4985 25.2513L27.9748 25.2321L26.4834 25.2166L26.4901 24.7452C26.3828 24.6687 26.2863 24.6089 26.1977 24.5574L26.191 24.5251L27.9856 24.5215L29.5025 24.5179L31.0194 24.512L32.5363 24.5084L34.0559 24.5048L35.6398 24.5012L36.9073 24.5Z" fill="#50241A"/>
<path d="M36.293 35.2772L35.786 35.2712L34.127 35.2484L32.5457 35.2257L31.0288 35.203L29.4515 35.1803L27.8246 35.1575L26.3574 35.1384L26.3681 34.2819L27.8381 34.2783L29.4542 34.2723L31.0274 34.2687L32.5443 34.2651L34.1176 34.2591L35.7699 34.2555L36.2689 34.252C36.2796 34.5893 36.2863 34.9302 36.293 35.2772Z" fill="#50241A"/>
<path d="M36.4929 43.3815L35.9 43.3755L34.1806 43.3528L32.5564 43.3336L31.0395 43.3145L29.4153 43.2954L27.7026 43.2726L26.2501 43.2535L26.2648 42.4006L27.7133 42.397L29.4193 42.3934L31.0355 42.3874L32.5551 42.3838L34.1712 42.3802L35.8839 42.3766L36.466 42.373C36.4754 42.7068 36.4861 43.0441 36.4929 43.3815Z" fill="#50241A"/>
<path d="M36.6645 50.546L35.9966 50.5364L34.2302 50.5173L32.5631 50.4946L31.0462 50.4754L29.3831 50.4527L27.5913 50.43L26.1602 50.4144L26.1709 49.5615L27.606 49.5579L29.3871 49.5543L31.0435 49.5483L32.5631 49.5447L34.2222 49.5411L35.9845 49.5352H36.6377C36.6498 49.8713 36.6578 50.2087 36.6645 50.546Z" fill="#50241A"/>
<path d="M36.8255 57.0778L36.0905 57.0682L34.2731 57.0455L32.5711 57.0228L31.0542 57.0036L29.3523 56.9809L27.496 56.9558L26.0757 56.9402L26.0864 56.0909L27.5108 56.0849L29.3563 56.0813L31.0516 56.0753L32.5711 56.0718L34.2664 56.0682L36.0757 56.0622L36.8 56.0586C36.8067 56.3995 36.8147 56.7369 36.8255 57.0778Z" fill="#50241A"/>
<path d="M36.9354 61.8548L36.1535 61.8417L34.3053 61.8189L32.5752 61.7974L31.0583 61.7783L29.3308 61.7556L27.425 61.7304L26.0154 61.7113L26.0261 60.8643L27.4357 60.8584L29.3348 60.8548L31.0583 60.8488L32.5752 60.8452L34.2986 60.8416L36.1401 60.8356L36.914 60.832L36.9354 61.8548Z" fill="#50241A"/>
<path d="M37.0387 66.3043L36.2179 66.2947L34.3335 66.272L32.5819 66.2492L31.0623 66.2301L29.3107 66.2074L27.3592 66.1822L25.9604 66.1667L25.9711 65.3197L27.374 65.3161L29.3147 65.3102L31.0636 65.3066L32.5805 65.3006L34.3295 65.297L36.2072 65.291H37.0213C37.0253 65.6331 37.032 65.9705 37.0387 66.3043Z" fill="#50241A"/>
<path d="M37.142 70.7677L36.2782 70.7581L34.3617 70.733L32.5846 70.7103L31.0677 70.6911L29.2919 70.666L27.2895 70.6409L25.9013 70.6218L25.9121 69.7784L27.3042 69.7748L29.2959 69.7688L31.0663 69.7628L32.5859 69.7593L34.3563 69.7557L36.2662 69.7497L37.1232 69.7461C37.1286 70.0858 37.1353 70.4268 37.142 70.7677Z" fill="#50241A"/>
<path d="M37.2251 74.4314L36.3292 74.4183L34.3885 74.3932L32.5899 74.3704L31.073 74.3513L29.2745 74.3262L27.2372 74.3011L25.8557 74.2819L25.8665 73.4386L27.2479 73.435L29.2785 73.429L31.073 73.423L32.5899 73.4194L34.3818 73.4158L36.3158 73.4098L37.205 73.4062C37.2104 73.7508 37.2171 74.0941 37.2251 74.4314Z" fill="#50241A"/>
<path d="M37.3177 78.5627L36.3869 78.5496L34.4167 78.5269L32.5926 78.5017L31.0757 78.4826L29.2557 78.4599L27.1715 78.4347L25.8008 78.4156L25.8115 77.5627L27.1849 77.5591L29.2584 77.5555L31.0744 77.5519L32.5913 77.5459L34.4073 77.5423L36.3695 77.5387L37.2909 77.5352C37.3029 77.8845 37.311 78.2254 37.3177 78.5627Z" fill="#50241A"/>
<path d="M37.3995 82.3855L36.4392 82.3723L34.4408 82.3496L32.5953 82.3304L31.0784 82.3113L29.2369 82.2886L27.1138 82.2658L25.7511 82.2503L25.7619 81.3818L27.1285 81.3782L29.2409 81.3722L31.0784 81.3686L32.5953 81.365L34.4328 81.3615L36.4244 81.3555H37.3767C37.3848 81.7036 37.3928 82.0481 37.3995 82.3855Z" fill="#50241A"/>
<path d="M37.4572 85.0853L36.4754 85.0757L34.4596 85.0506L32.6007 85.0279L31.0838 85.0087L29.2248 84.986L27.0762 84.9573L25.7203 84.9418L25.731 84.0888H27.087L29.2275 84.0828L31.0838 84.0792L32.6007 84.0757L34.4529 84.0697L36.462 84.0661L37.433 84.0625C37.4384 84.4106 37.4464 84.7515 37.4572 85.0853Z" fill="#50241A"/>
<path d="M37.4961 87.3131L36.5076 87.2999L34.473 87.2748L32.6033 87.2521L31.0864 87.2329L29.2128 87.2102L27.04 87.1851L25.6908 87.1659L25.7015 86.319L27.0534 86.3154L29.2195 86.3094L31.0824 86.3058L32.602 86.3022L34.4649 86.2962L36.4915 86.2926L37.4733 86.2891C37.4853 86.642 37.492 86.9829 37.4961 87.3131Z" fill="#50241A"/>
<path d="M37.5631 91.1386L36.5599 91.1254L34.4971 91.1003L32.606 91.0776L31.0891 91.0585L29.194 91.0357L26.981 91.007L25.6398 90.9915L25.6505 90.1349L26.9958 90.1313L29.2007 90.1278L31.0891 90.1218L32.606 90.1182L34.4904 90.1146L36.5465 90.111L37.5457 90.1074C37.5524 90.4699 37.5564 90.8132 37.5631 91.1386Z" fill="#50241A"/>
<path d="M37.5886 93.3643L36.5894 93.3511L34.5119 93.326L32.61 93.3033L31.0905 93.2841L29.1886 93.2614L26.9515 93.2327L25.613 93.2171L25.6237 92.3678L26.9622 92.3642L29.1927 92.3582L31.0918 92.3546L32.6087 92.351L34.5079 92.3451L36.5773 92.3415L37.5806 92.3379C37.5846 92.7147 37.5886 93.0556 37.5886 93.3643Z" fill="#50241A"/>
<path d="M28.6602 20.3984L28.0378 23.9418L26.6363 135.224" stroke="#F0BB78" stroke-width="0.205128" stroke-miterlimit="10" stroke-linecap="round"/>
<path d="M29.5521 20.3984L29.4649 24.4406L28.9566 135.224" stroke="#F0BB78" stroke-width="0.205128" stroke-miterlimit="10" stroke-linecap="round"/>
<path d="M30.3554 20.3984L30.8812 23.8221L31.0971 135.224" stroke="#F0BB78" stroke-width="0.205128" stroke-miterlimit="10" stroke-linecap="round"/>
<path d="M33.0325 20.3984L32.547 23.7552L32.6141 135.224" stroke="#F0BB78" stroke-width="0.205128" stroke-miterlimit="10" stroke-linecap="round"/>
<path d="M33.9244 20.3984L34.0156 23.8042L34.7546 135.224" stroke="#F0BB78" stroke-width="0.205128" stroke-miterlimit="10" stroke-linecap="round"/>
<path d="M34.5213 20.3984L35.3475 23.6953L37.2251 135.224" stroke="#F0BB78" stroke-width="0.205128" stroke-miterlimit="10" stroke-linecap="round"/>
<path d="M25.4467 134.336L38.3236 134.349" stroke="#F0BB78" stroke-width="0.205128" stroke-miterlimit="10" stroke-linecap="round"/>
</svg>
