<svg width="160" height="121" viewBox="0 0 160 121" fill="none" xmlns="http://www.w3.org/2000/svg">
<path d="M156.203 105.193V90.6995C156.203 84.7119 154.019 79.529 149.714 75.2953L126.742 52.7068V2.3757C126.742 2.12935 126.693 1.88542 126.597 1.65783C126.501 1.43024 126.361 1.22345 126.183 1.04927C126.006 0.875089 125.796 0.736933 125.565 0.642689C125.333 0.548445 125.085 0.499959 124.834 0.5H35.1747C34.6688 0.5 34.1836 0.697608 33.8258 1.04936C33.468 1.40111 33.267 1.8782 33.2669 2.3757V52.7064L10.2968 75.2935C5.98441 79.5243 3.79755 84.7076 3.79755 90.6992V105.194C1.61419 105.773 0 107.732 0 110.059V115.465C0 118.242 2.30113 120.5 5.12922 120.5H35.4896C38.0819 120.5 40.2255 118.601 40.5665 116.146H119.443C119.783 118.601 121.923 120.5 124.51 120.5H154.88C157.703 120.5 160 118.242 160 115.465V110.059C160 107.73 158.386 105.769 156.203 105.193V105.193ZM147.016 77.9483C150.581 81.4531 152.387 85.7433 152.387 90.6995V105.016H125.472C123.061 99.9544 123.435 93.5301 124.661 89.0255C124.748 88.7075 124.748 88.3726 124.661 88.0545C124.575 87.7365 124.404 87.4465 124.168 87.2138L112.515 75.7555C111.721 74.9748 111.284 73.9319 111.285 72.8188C111.286 71.71 111.722 70.673 112.517 69.8939C113.305 69.1157 114.36 68.6869 115.487 68.6859H115.491C116.618 68.6859 117.674 69.1136 118.464 69.8877L123.484 74.8237L123.486 74.8256L133.546 84.7088C133.918 85.0746 134.406 85.2575 134.894 85.2575C135.382 85.2575 135.871 85.0743 136.244 84.7075C136.421 84.5333 136.561 84.3264 136.657 84.0988C136.753 83.8711 136.802 83.6272 136.802 83.3808C136.802 83.1345 136.752 82.8905 136.656 82.663C136.56 82.4354 136.42 82.2287 136.242 82.0546L126.742 72.7211V58.0123L147.016 77.9483H147.016ZM122.927 4.25171V68.9697L121.16 67.2322C119.647 65.7502 117.634 64.9345 115.491 64.9345H115.485C113.337 64.9361 111.323 65.757 109.819 67.2413C108.306 68.7237 107.472 70.7033 107.47 72.8153C107.468 74.932 108.301 76.9185 109.817 78.4087L120.71 89.1198C119.966 92.3577 118.907 99.4004 121.677 105.862C120.3 106.767 119.391 108.31 119.391 110.06V112.395H40.6189V110.06C40.6189 108.309 39.7065 106.766 38.326 105.861C41.096 99.4072 40.0348 92.3605 39.29 89.1201L50.1948 78.4059C53.3178 75.3234 53.3165 70.316 50.1919 67.2438C47.0651 64.1688 41.9731 64.1632 38.8367 67.236L37.0826 68.964V4.2514L122.927 4.25171ZM12.9929 77.948L33.2669 58.012V72.7207L23.7662 82.0543C23.4991 82.3165 23.3172 82.6508 23.2434 83.0147C23.1696 83.3787 23.2072 83.756 23.3516 84.0989C23.4959 84.4418 23.7404 84.7349 24.0542 84.9411C24.368 85.1473 24.737 85.2573 25.1144 85.2572C25.3648 85.2576 25.6128 85.2093 25.8442 85.1152C26.0755 85.021 26.2857 84.8828 26.4625 84.7085L36.5223 74.8252L36.5245 74.8231L41.5328 69.8896C43.1784 68.2779 45.8516 68.2811 47.494 69.8961C49.1336 71.5084 49.1323 74.1379 47.494 75.7548L35.8321 87.2132C35.5953 87.446 35.4249 87.736 35.3381 88.054C35.2514 88.3721 35.2513 88.7071 35.3379 89.0252C36.5658 93.5357 36.9419 99.9628 34.5287 105.016H7.6132V90.6992C7.6132 85.7404 9.42261 81.4509 12.9929 77.948ZM36.8035 115.465C36.8035 116.173 36.2143 116.749 35.4896 116.749H5.12954C4.40513 116.749 3.81565 116.173 3.81565 115.465V110.059C3.81598 109.717 3.95452 109.388 4.20085 109.146C4.44718 108.904 4.78117 108.768 5.12954 108.767H35.4896C35.838 108.768 36.1719 108.904 36.4182 109.146C36.6645 109.388 36.8031 109.717 36.8035 110.059V115.465ZM156.184 115.465C156.184 115.806 156.046 116.132 155.802 116.372C155.557 116.613 155.226 116.748 154.88 116.749H124.51C124.164 116.748 123.833 116.613 123.588 116.372C123.344 116.132 123.206 115.806 123.206 115.465V110.059C123.206 109.347 123.791 108.767 124.51 108.767H154.88C155.587 108.767 156.184 109.359 156.184 110.059V115.465ZM79.3734 66.4728C79.7818 66.6139 80.227 66.6139 80.6355 66.4728C90.0312 63.2333 96.7768 57.0887 100.685 48.209C104.037 40.5945 105.294 30.9463 104.42 19.5329C104.388 19.1042 104.206 18.6995 103.906 18.3867C103.606 18.0739 103.206 17.8719 102.773 17.8145C93.7487 16.6218 86.0822 13.8771 81.1844 10.0861C80.8483 9.82578 80.433 9.68418 80.0052 9.68401C79.5775 9.68384 79.162 9.82512 78.8258 10.0851C73.9181 13.8774 66.2475 16.6224 57.2274 17.8148C56.7938 17.8722 56.3935 18.0743 56.0935 18.3873C55.7934 18.7003 55.6119 19.1052 55.5792 19.5342C54.711 30.9485 55.9703 40.5963 59.3225 48.2096C63.2321 57.089 69.9781 63.2339 79.3734 66.4731V66.4728ZM59.2819 21.3122C67.6407 20.028 74.8917 17.4315 80.0035 13.8968C85.1076 17.4309 92.3577 20.028 100.719 21.3125C102.053 43.2786 95.0889 57.197 80.0044 62.7086C64.9234 57.1983 57.9562 43.2802 59.2819 21.3122ZM79.1867 57.8591C79.4422 57.9785 79.7215 58.0404 80.0044 58.0404C80.2873 58.0404 80.5667 57.9785 80.8222 57.8591C91.3907 52.9287 96.7193 42.3178 96.6606 26.3209C96.659 25.897 96.5114 25.4861 96.2419 25.1553C95.9724 24.8244 95.5969 24.593 95.1766 24.4989C89.7645 23.2862 84.9705 21.5569 80.9272 19.3594C80.6449 19.206 80.3277 19.1255 80.0052 19.1254C79.6826 19.1253 79.3653 19.2056 79.0829 19.3587C75.0289 21.5575 70.2314 23.2868 64.8231 24.4989C64.4029 24.5931 64.0274 24.8245 63.7579 25.1554C63.4885 25.4862 63.3408 25.897 63.3391 26.3209C63.28 42.315 68.6118 52.9259 79.1864 57.8591H79.1867ZM80.0035 23.1304C83.7664 25.066 88.0722 26.6349 92.8351 27.8058C92.5977 41.1457 88.39 49.7573 80.0044 54.069C71.6122 49.7551 67.4026 41.1442 67.1649 27.8058C71.9249 26.6352 76.2332 25.0667 80.0035 23.1304ZM75.3384 44.4145L71.3342 37.6013C71.0893 37.171 71.0265 36.6632 71.1594 36.1878C71.2923 35.7124 71.6102 35.3075 72.0443 35.0608C72.4785 34.814 72.9939 34.7453 73.4792 34.8694C73.9645 34.9936 74.3806 35.3006 74.6375 35.724L77.3982 40.4215L85.6654 32.2923C86.0249 31.949 86.5074 31.7587 87.0085 31.7623C87.5096 31.766 87.9891 31.9634 88.3434 32.3118C88.6977 32.6603 88.8984 33.1318 88.9021 33.6246C88.9057 34.1173 88.7121 34.5917 88.363 34.9452L78.3388 44.8022C78.132 45.0056 77.8803 45.1595 77.6033 45.2519C77.3263 45.3444 77.0314 45.373 76.7414 45.3355C76.4514 45.298 76.174 45.1955 75.9308 45.0358C75.6875 44.8761 75.4848 44.6635 75.3384 44.4145ZM112.876 104.255C112.876 104.501 112.826 104.745 112.73 104.973C112.634 105.2 112.494 105.407 112.317 105.581C112.14 105.755 111.929 105.894 111.698 105.988C111.466 106.082 111.218 106.131 110.968 106.131H49.0415C48.7881 106.135 48.5363 106.09 48.3008 105.998C48.0653 105.906 47.8509 105.768 47.67 105.593C47.4892 105.419 47.3455 105.211 47.2475 104.981C47.1494 104.751 47.0989 104.504 47.0989 104.255C47.0989 104.006 47.1494 103.759 47.2475 103.529C47.3455 103.299 47.4892 103.091 47.67 102.916C47.8509 102.742 48.0653 102.604 48.3008 102.512C48.5363 102.42 48.7881 102.375 49.0415 102.379H110.968C111.474 102.379 111.959 102.577 112.317 102.929C112.675 103.28 112.876 103.757 112.876 104.255H112.876ZM49.0412 84.7622H110.968C111.221 84.7576 111.473 84.8028 111.708 84.895C111.944 84.9872 112.158 85.1247 112.339 85.2993C112.52 85.4739 112.664 85.6822 112.762 85.912C112.86 86.1419 112.91 86.3886 112.91 86.6379C112.91 86.8871 112.86 87.1339 112.762 87.3637C112.664 87.5935 112.52 87.8018 112.339 87.9764C112.158 88.1511 111.944 88.2885 111.708 88.3807C111.473 88.473 111.221 88.5181 110.968 88.5136H49.0415C48.7881 88.5181 48.5363 88.473 48.3008 88.3807C48.0653 88.2885 47.8509 88.1511 47.67 87.9764C47.4892 87.8018 47.3455 87.5935 47.2475 87.3637C47.1494 87.1339 47.0989 86.8871 47.0989 86.6379C47.0989 86.3886 47.1494 86.1419 47.2475 85.912C47.3455 85.6822 47.4892 85.4739 47.67 85.2993C47.8509 85.1247 48.0653 84.9872 48.3008 84.895C48.5363 84.8028 48.7881 84.7576 49.0415 84.7622H49.0412ZM60.352 79.701C60.0985 79.7055 59.8467 79.6604 59.6112 79.5682C59.3758 79.4759 59.1613 79.3385 58.9805 79.1639C58.7996 78.9893 58.656 78.7809 58.5579 78.5511C58.4598 78.3213 58.4093 78.0745 58.4093 77.8253C58.4093 77.5761 58.4598 77.3293 58.5579 77.0995C58.656 76.8697 58.7996 76.6613 58.9805 76.4867C59.1613 76.3121 59.3758 76.1747 59.6112 76.0824C59.8467 75.9902 60.0985 75.9451 60.352 75.9496H99.6477C99.9011 75.9451 100.153 75.9902 100.388 76.0824C100.624 76.1747 100.838 76.3121 101.019 76.4867C101.2 76.6613 101.344 76.8697 101.442 77.0995C101.54 77.3293 101.59 77.5761 101.59 77.8253C101.59 78.0745 101.54 78.3213 101.442 78.5511C101.344 78.7809 101.2 78.9893 101.019 79.1639C100.838 79.3385 100.624 79.4759 100.388 79.5682C100.153 79.6604 99.9011 79.7055 99.6477 79.701H60.352ZM112.876 95.442C112.876 95.6884 112.826 95.9323 112.73 96.1599C112.634 96.3875 112.494 96.5943 112.317 96.7684C112.14 96.9426 111.929 97.0808 111.698 97.175C111.466 97.2693 111.218 97.3177 110.968 97.3177H49.0415C48.7881 97.3223 48.5363 97.2771 48.3008 97.1849C48.0653 97.0927 47.8509 96.9552 47.67 96.7806C47.4892 96.606 47.3455 96.3977 47.2475 96.1678C47.1494 95.938 47.0989 95.6912 47.0989 95.442C47.0989 95.1928 47.1494 94.946 47.2475 94.7162C47.3455 94.4864 47.4892 94.278 47.67 94.1034C47.8509 93.9288 48.0653 93.7914 48.3008 93.6991C48.5363 93.6069 48.7881 93.5618 49.0415 93.5663H110.968C111.474 93.5663 111.959 93.7639 112.317 94.1157C112.675 94.4674 112.876 94.9445 112.876 95.442H112.876Z" fill="#00998E"/>
</svg>
