<svg width="251" height="20" viewBox="0 0 251 20" fill="none" xmlns="http://www.w3.org/2000/svg">
<path d="M250.742 3.36024C250.733 3.43749 250.71 3.51188 250.661 3.57196C250.601 3.64634 250.507 3.68353 250.415 3.71787C248.742 4.3387 246.943 4.51609 245.216 4.96526C243.492 5.41444 241.744 6.2098 240.762 7.69466C239.951 8.9163 239.765 10.4355 239.221 11.7945C238.568 13.4195 237.379 14.8214 235.887 15.7369C235.566 15.9343 235.193 16.0316 234.818 16.0287C231.137 16.0144 227.468 16.1232 223.804 16.2862C223.644 16.292 223.506 16.3978 223.458 16.5494C223.412 16.6868 223.383 16.8441 223.323 16.99C223.225 17.2418 223.042 17.4535 222.842 17.6366C222.1 18.3147 221.048 18.6437 220.052 18.5064C219.118 18.3805 218.058 16.9099 217.491 16.023C217.422 15.9143 217.302 15.8514 217.173 15.8514C215.322 15.8485 213.859 15.8056 211.65 15.8056C206.918 15.8056 202.197 15.3106 197.468 15.4222C194.005 15.5023 189.934 15.7369 187.505 15.8027C187.359 15.8056 187.233 15.8943 187.173 16.0259C186.145 18.2861 184.844 18.3805 183.678 18.3547C182.662 18.3318 181.679 17.6538 181.304 16.7297C181.212 16.5037 180.94 16.4178 180.737 16.5523L180.714 16.5666C180.055 16.9958 179.161 16.7755 178.754 16.1031C178.686 15.9915 178.617 15.8657 178.548 15.7226C178.485 15.5939 178.353 15.5138 178.21 15.5138C172.71 15.4794 75.3609 15.3593 75.3609 15.3593L47.7873 15.4365C47.6785 15.4365 47.5782 15.4851 47.5066 15.5653C47.0655 16.0459 46.5126 16.4264 45.9054 16.6667C45.6189 16.7783 45.3096 16.8613 45.0059 16.8212C44.2698 16.7268 43.8114 15.9973 43.187 15.5967C42.6456 15.2506 41.9839 15.1619 41.3451 15.0903C37.9221 14.7098 34.5334 13.9974 30.5059 14.5811C29.976 14.6583 29.5406 15.0188 29.3343 15.5138C29.1625 15.9315 28.7643 16.3835 28.4578 16.5123C28.2258 16.6124 27.544 16.6181 27.4466 16.6067C27.1 16.558 26.785 16.3778 26.4956 16.1804C26.3467 16.0802 26.2035 15.9744 26.0602 15.8599C26.0201 15.8285 25.9714 15.8027 25.9227 15.7884C25.7394 15.7369 25.5675 15.6797 25.4186 15.6225C25.2639 15.5624 25.1722 15.405 25.1837 15.2391C25.1866 15.1847 25.1923 15.1304 25.1952 15.076C25.1608 15.0503 25.1264 15.0274 25.0863 15.0074C24.9087 14.9187 24.6996 14.9301 24.502 14.9273C24.035 14.9244 23.5424 14.8271 23.1499 14.5925C22.958 14.4781 22.789 14.3322 22.6572 14.1462C22.5512 13.9946 22.4682 13.8172 22.3192 13.7056C22.176 13.5998 21.9984 13.5683 21.8179 13.5511L21.7062 13.5425C18.5009 13.3251 15.1895 13.1191 12.1159 13.9602H12.1131C11.735 14.0604 11.3626 14.1805 10.9931 14.3179C10.8813 14.3579 10.7983 14.4495 10.761 14.5639C10.7037 14.7499 10.6436 14.9416 10.5691 15.1275C10.4402 15.4623 10.2712 15.7827 10.0077 16.0373C9.67539 16.3606 9.13973 16.5094 8.71865 16.3749C8.50668 16.3063 8.27752 16.4178 8.2231 16.6324C7.9166 17.8254 6.99423 18.8611 5.82552 19.2674C4.48495 19.7309 2.89229 19.3475 1.90977 18.329C1.19652 17.588 0.835593 16.6095 0.640808 15.5882C2.72615 16.5952 5.2383 16.0001 7.3838 15.1075C7.50697 15.056 7.63301 14.9959 7.75619 14.9273C8.07128 14.7499 8.36059 14.5096 8.46085 14.2091C8.59548 14.1233 8.72438 14.0403 8.85901 13.9574C9.44337 14.006 10.0506 13.7829 10.4545 13.3537C10.466 13.3423 10.4774 13.328 10.4889 13.3137C10.6665 13.1162 10.8155 12.8845 11.0446 12.7443C11.1707 12.6671 11.3139 12.6242 11.4628 12.5955C11.5574 12.5784 11.6547 12.5641 11.7521 12.5526C15.0606 12.1607 18.3949 12.0062 21.7205 12.0949C22.0242 12.1035 22.3278 12.112 22.6314 12.1235C22.6859 12.2064 22.7403 12.2894 22.7976 12.3667C23.2616 13.019 23.7858 13.4825 24.3759 13.8315C24.5621 13.9402 24.7684 14.0432 24.9832 14.0146C25.0834 14.0003 25.1694 13.966 25.241 13.9087C25.3527 13.8258 25.4787 13.6913 25.5933 13.534C25.7566 13.3108 26.0746 13.3308 26.235 13.5597C26.2522 13.5855 26.2722 13.6083 26.2951 13.6341C26.5185 13.8744 26.7678 14.0833 27.0513 14.2521C27.6701 14.6183 28.4664 14.7442 29.1138 14.4352C29.6523 14.1777 30.0247 13.5797 29.9932 13.0018C29.9817 12.7987 30.1335 12.6213 30.3369 12.6013C34.3672 12.2036 38.4291 12.1378 42.4709 12.3953C42.7831 12.4153 43.0953 12.4382 43.4075 12.4611C43.4104 12.4954 43.4104 12.5297 43.4161 12.5641C43.4161 12.5641 43.419 12.5669 43.4161 12.5698C43.525 13.7199 44.6364 14.6927 45.7965 14.6326C46.8764 14.5754 47.816 13.6312 47.9334 12.5698C47.9563 12.3724 48.111 12.215 48.3115 12.2179C55.6905 12.2436 170.866 12.9846 178.038 13.0276C178.098 13.0276 178.15 13.0276 178.193 13.0304C178.316 13.0304 178.428 13.0934 178.499 13.1935C178.597 13.3308 178.694 13.471 178.792 13.6083C178.815 13.6427 178.832 13.6799 178.846 13.7199C179.253 15.1161 179.866 14.8472 179.866 14.8472C179.866 14.8472 180.57 14.5553 180.748 14.172V14.1691C180.768 14.129 180.785 14.089 180.802 14.0489C181.112 14.3551 181.453 14.6326 181.814 14.8729C182.229 15.1533 182.673 15.385 183.14 15.5653C183.822 15.8313 184.586 15.983 185.291 15.7798C185.896 15.6053 186.431 15.1104 186.563 14.5096C186.6 14.3322 186.743 14.1977 186.924 14.1948C196.528 13.9831 206.136 13.8172 215.746 13.6484C216.236 13.6398 216.735 13.6341 217.196 13.8C217.686 13.9745 218.084 14.3293 218.533 14.5925C218.551 14.6011 218.568 14.6125 218.582 14.6269C220.318 16.086 221.621 15.9086 222.787 14.2063C222.925 14.0032 223.151 13.8601 223.38 13.7743C223.632 13.6799 223.913 13.7171 224.179 13.7514C227.577 14.1948 231.028 14.1977 234.426 13.76C235.228 13.657 236.053 13.5168 236.72 13.0619C238.874 11.5856 237.986 8.09805 239.398 5.90367C240.633 3.98966 243.217 3.58912 245.485 3.36882C247.087 3.21433 248.688 3.05984 250.292 2.9082C250.484 3.09989 250.544 3.15997 250.742 3.36024Z" fill="#F5CC8E"/>
<path d="M216.803 6.89988C216.528 5.14036 216.313 3.49243 216.067 1.4182C216.311 1.37529 216.554 1.32379 216.798 1.26371C216.884 0.800224 216.998 0.393964 217.147 0.0449219C217.179 0.242331 217.167 0.451185 217.156 0.654316C217.027 2.70279 217.05 4.73982 216.958 6.89129C216.955 6.9857 216.818 6.99143 216.803 6.89988Z" fill="#F5CC8E"/>
<path d="M181.181 0.265625C181.183 2.00797 181.149 3.75318 181.08 5.49267C180.742 4.32538 180.757 3.13521 180.493 1.5216L180.496 1.51588C180.674 1.07243 180.9 0.648999 181.181 0.265625Z" fill="#F5CC8E"/>
<path d="M182.982 16.19C182.507 15.9955 182.152 15.5806 181.922 15.1228C181.693 14.6651 181.582 14.1587 181.467 13.658C181.155 12.2676 181.375 8.9059 181.181 8.5025C180.456 7.77867 180.628 12.6252 180.837 15.3431C180.871 15.8038 181.521 16.7422 181.92 16.9768C182.318 17.2114 182.957 17.0569 182.982 16.19Z" fill="#F5CC8E"/>
<path d="M179.674 15.3289C178.981 14.5479 178.706 13.475 178.628 12.4336C178.554 11.3922 178.654 10.3422 178.603 9.30079C178.597 9.16919 178.537 8.9918 178.405 9.00897C178.285 10.6569 178.279 12.1217 178.058 13.8355C178.001 14.2703 178.107 14.731 178.345 15.1C178.666 15.5864 179.353 15.7981 179.674 15.3289Z" fill="#F5CC8E"/>
<path d="M178.726 2.40861C178.726 2.40861 178.694 6.01061 178.479 6.07641C178.285 6.13649 178.239 3.3699 178.239 1.9766C178.23 1.91938 178.222 1.8593 178.213 1.79922C178.293 1.79922 178.333 1.79922 178.333 1.79922C178.385 1.38723 178.62 0.983831 178.958 0.757812C178.895 0.872252 178.849 0.995274 178.815 1.1183C178.7 1.536 178.711 1.97373 178.726 2.40861Z" fill="#F5CC8E"/>
<path d="M43.3732 13.5776C43.3732 11.2316 43.3818 9.0544 43.3818 6.86287C43.3818 6.79993 43.2958 6.78849 43.2758 6.84571C42.8432 8.17607 42.5052 11.3146 42.3419 13.2028C42.3219 13.4289 42.3076 13.6778 42.4107 13.8609C42.511 14.0411 42.7029 14.0983 42.8719 14.064C43.0409 14.0239 43.1927 13.9095 43.3732 13.5776Z" fill="#F5CC8E"/>
<path d="M43.2901 5.29714C43.1469 4.56759 42.869 3.18 42.6513 2.38178C42.6427 2.34745 42.6628 2.31598 42.6972 2.31026C43.0209 2.23873 43.2815 2.01844 43.5021 1.76953C43.5479 2.68505 43.462 4.43598 43.4133 5.2857C43.4076 5.36008 43.3044 5.36581 43.2901 5.29714Z" fill="#F5CC8E"/>
<path d="M27.65 0.0968253C27.5698 0.136879 27.4925 0.182656 27.418 0.231293C26.6933 0.709079 26.2206 1.49872 25.96 2.32555C25.7022 3.15524 25.811 4.96625 25.6477 4.98341C25.4787 5.00344 25.4873 2.99788 25.4902 2.00512C25.5188 1.98795 25.5446 1.95934 25.5589 1.92214C25.728 1.48155 25.897 1.25267 26.2808 0.832104C26.6303 0.451591 27.0342 0.151185 27.5326 0.102549C27.5727 0.0968265 27.6099 0.0939643 27.65 0.0968253Z" fill="#F5CC8E"/>
<path d="M26.5787 15.7892C26.381 15.7549 26.1862 15.7119 26 15.6633C25.6706 15.5775 25.3756 15.4688 25.1636 15.3629C25.1751 15.2199 25.1837 15.0739 25.1951 14.9309C25.218 14.5418 24.7339 14.4617 24.7397 14.0726C25.9857 13.4489 25.6449 12.3589 25.6449 11.7638C25.6449 10.3419 25.3785 6.94012 25.6649 6.96301C26.2779 7.01164 26.1862 11.1429 26.1862 13.0569C26.1862 13.2028 26.2493 13.5891 26.3266 13.6663C26.8365 14.1727 26.6761 15.0167 26.5787 15.7892Z" fill="#F5CC8E"/>
<path d="M23.697 14.2784C23.5452 14.3929 23.3562 14.5159 23.1499 14.5903C22.958 14.4759 22.789 14.3299 22.6572 14.144C22.5512 13.9923 22.4682 13.815 22.3192 13.7034C22.176 13.5975 21.9984 13.566 21.8179 13.5489C21.795 13.423 21.7807 13.2971 21.7721 13.177C21.7463 12.8165 21.9669 12.4503 22.007 12.0926C22.1474 10.8595 22.1961 10.3789 22.2648 9.22878C22.3049 8.58219 22.282 7.03439 22.4882 7.10591C22.5742 7.13738 22.4682 9.73803 22.5656 10.9311C22.6057 11.4117 22.6773 11.8952 22.7976 12.3644C22.9752 13.0568 23.2588 13.7148 23.697 14.2784Z" fill="#F5CC8E"/>
<path d="M23.2129 2.38281C22.6515 3.33839 22.6572 5.7874 22.4367 5.77596C22.2161 5.76451 22.1846 4.28251 22.133 3.71318C22.1244 3.62162 22.1216 3.52721 22.1216 3.43566C22.2476 3.4185 22.3708 3.40133 22.4968 3.38416C22.7002 2.84916 22.8406 2.60883 23.2129 2.38281Z" fill="#F5CC8E"/>
<path d="M12.3508 13.3863C12.2935 13.5866 12.2133 13.7783 12.1159 13.9585H12.1131C11.6748 14.0758 11.2451 14.216 10.8155 14.3819C10.7439 14.6223 10.6665 14.8769 10.5691 15.1258C10.4173 15.0228 10.403 14.7911 10.4173 14.5994C10.4402 14.1702 10.3514 13.7182 10.4889 13.3119C11.0589 11.6325 11.0418 9.9245 11.1334 8.23079C11.1363 8.18215 11.1936 8.14782 11.2337 8.17643C11.566 8.41962 11.4199 10.0218 11.5602 10.8486C11.7693 12.0817 11.7751 12.282 12.0214 13.7325C12.1732 13.5809 12.2792 13.4693 12.3508 13.3863Z" fill="#F5CC8E"/>
<path d="M12.3508 13.3853C12.3623 13.3481 12.3737 13.308 12.3823 13.268C12.3938 13.2222 12.4167 13.165 12.4654 13.1621C12.4998 13.1621 12.4998 13.2107 12.3508 13.3853Z" fill="#F5CC8E"/>
<path d="M9.13397 14.6355C8.19728 13.823 8.34051 11.2567 8.34051 9.87196C8.34051 8.16394 8.44649 6.22991 8.20015 4.53906C7.5671 7.51736 8.20301 12.135 7.72178 15.1419C7.67881 15.4166 7.67881 15.7856 7.94521 15.8715C8.05692 15.9058 8.17723 15.8715 8.28608 15.8257C8.88189 15.5739 9.43188 14.8901 9.13397 14.6355Z" fill="#F5CC8E"/>
<path d="M12.6688 3.67573C12.2305 4.59698 11.8868 5.56685 11.6462 6.55962C11.5946 6.77992 11.3024 7.33209 11.3024 7.10607C11.3024 6.82855 11.3569 6.15336 11.3626 5.9302C11.3855 5.09479 11.4113 4.25938 11.3311 3.42969C11.7722 3.53268 12.2191 3.61279 12.6688 3.67573Z" fill="#F5CC8E"/>
<path d="M9.94181 0.832245C9.75848 0.878021 9.57516 0.92952 9.41474 1.02966C9.24574 1.13265 9.11111 1.28428 8.9908 1.44164C8.39785 2.20839 8.62415 3.95932 8.20593 4.07662C8.27468 3.04094 8.2002 1.48455 8.27182 0.448873C8.27755 0.351599 8.28327 0.251462 8.32624 0.165632C8.34343 0.1313 8.36634 0.0969694 8.39499 0.0683594C8.40645 0.245741 8.40072 0.420261 8.38067 0.594782C8.55826 0.371624 8.93638 0.297241 9.25433 0.391654C9.52073 0.471762 9.74989 0.631976 9.94181 0.832245Z" fill="#F5CC8E"/>
<path d="M167.007 3.86463C167.007 4.03343 166.938 4.19365 166.818 4.33383C166.732 4.43111 166.62 4.52266 166.486 4.59705C166.191 4.76298 165.795 4.86598 165.36 4.86598C164.991 4.86598 164.65 4.79159 164.375 4.66857C164.372 4.66571 164.369 4.66285 164.363 4.65999C164.014 4.49977 163.776 4.25659 163.724 3.97907C163.716 3.94188 163.713 3.90468 163.713 3.86463C163.713 3.3096 164.449 2.86328 165.36 2.86328C166.271 2.86328 167.007 3.3096 167.007 3.86463Z" fill="#F5CC8E"/>
<path d="M144.951 3.86463C144.951 4.0134 144.899 4.15359 144.802 4.27947C144.799 4.28234 144.796 4.28806 144.793 4.29092C144.713 4.39677 144.604 4.48833 144.475 4.56843C144.177 4.73723 143.762 4.84023 143.304 4.84023C142.845 4.84023 142.433 4.73723 142.135 4.56557C142.126 4.56271 142.115 4.55699 142.106 4.54841C142.095 4.54269 142.086 4.53696 142.075 4.52838C141.814 4.35386 141.656 4.12212 141.656 3.86463C141.656 3.3096 142.393 2.86328 143.304 2.86328C144.214 2.86328 144.951 3.3096 144.951 3.86463Z" fill="#F5CC8E"/>
<path d="M117.022 3.43299C117.022 3.71909 116.821 3.9823 116.501 4.16255C116.48 4.17685 116.458 4.1883 116.435 4.19974C116.257 4.29129 116.045 4.35996 115.813 4.40001C115.776 4.40573 115.741 4.41145 115.707 4.41431C115.687 4.41718 115.67 4.42003 115.653 4.42003C115.564 4.43148 115.469 4.43434 115.375 4.43434C115.318 4.43434 115.26 4.43148 115.203 4.42862C114.942 4.41145 114.702 4.35996 114.493 4.27985C114.455 4.26554 114.421 4.25124 114.389 4.23407C113.988 4.05383 113.728 3.762 113.728 3.43299C113.728 2.88082 114.464 2.43164 115.375 2.43164C116.286 2.43164 117.022 2.88082 117.022 3.43299Z" fill="#F5CC8E"/>
<path d="M88.9901 3.86463C88.9901 4.12498 88.8268 4.36244 88.5575 4.53696C88.2568 4.74009 87.8242 4.86598 87.343 4.86598C87.1052 4.86598 86.8761 4.83451 86.6727 4.78015C86.097 4.62279 85.6959 4.27089 85.6959 3.86463C85.6959 3.3096 86.4321 2.86328 87.343 2.86328C88.251 2.86328 88.9901 3.3096 88.9901 3.86463Z" fill="#F5CC8E"/>
<path d="M71.3735 3.55799C71.3735 3.85839 71.1587 4.12447 70.8178 4.30757C70.7233 4.35907 70.623 4.40199 70.5113 4.43918C70.5113 4.43918 70.5113 4.43918 70.5084 4.43918C70.4511 4.45921 70.3939 4.47351 70.3337 4.49067C70.3108 4.49354 70.2879 4.49926 70.2649 4.50212C70.1303 4.53359 69.9842 4.55076 69.8353 4.55362C69.7952 4.55648 69.7637 4.55934 69.7551 4.55934H69.7264C69.6978 4.55934 69.6605 4.55648 69.6204 4.55362C69.291 4.54217 68.9903 4.47351 68.7439 4.36193C68.34 4.17883 68.0793 3.887 68.0793 3.55799C68.0793 3.00582 68.8155 2.55664 69.7264 2.55664C70.6345 2.55664 71.3735 3.00582 71.3735 3.55799Z" fill="#F5CC8E"/>
<path d="M56.1173 3.86463C56.1173 4.15359 55.9139 4.4168 55.5902 4.59991C55.3324 4.74582 54.9973 4.84023 54.6249 4.86026C54.5733 4.86312 54.5218 4.86598 54.4702 4.86598C54.2897 4.86598 54.1179 4.84881 53.9546 4.81448C53.7025 4.76298 53.4762 4.67715 53.2929 4.56271C53.0007 4.38247 52.8231 4.13643 52.8231 3.86463C52.8231 3.3096 53.5622 2.86328 54.4702 2.86328C55.3811 2.86328 56.1173 3.3096 56.1173 3.86463Z" fill="#F5CC8E"/>
<path d="M36.8565 4.43494C36.8565 4.76396 36.5958 5.05578 36.1919 5.23888C36.106 5.27894 36.0114 5.31327 35.9141 5.34188C35.9112 5.34188 35.9055 5.34474 35.9026 5.34474C35.8224 5.36763 35.7365 5.3848 35.6505 5.3991C35.5245 5.42199 35.3899 5.43343 35.2524 5.43343C35.2323 5.43629 35.2151 5.43629 35.2094 5.43629C35.175 5.43629 35.1235 5.43343 35.0633 5.43057C35.0203 5.42771 34.9745 5.42485 34.9229 5.41913C34.8714 5.41341 34.8198 5.40482 34.7625 5.39624C34.7368 5.39338 34.7081 5.38766 34.6795 5.38193C34.6709 5.37907 34.6594 5.37908 34.6508 5.37621C34.6136 5.37049 34.5763 5.36191 34.5391 5.35046C34.4303 5.31899 34.3271 5.2818 34.2297 5.23888C34.2126 5.2303 34.1954 5.22172 34.1839 5.21599C34.1094 5.18166 34.0435 5.14161 33.9805 5.0987C33.7199 4.92418 33.5623 4.69243 33.5623 4.43494C33.5623 3.88277 34.2985 3.43359 35.2094 3.43359C36.1174 3.43359 36.8565 3.88277 36.8565 4.43494Z" fill="#F5CC8E"/>
</svg>
