<svg width="338" height="161" viewBox="0 0 338 161" fill="none" xmlns="http://www.w3.org/2000/svg">
<path d="M296.75 77.1866C296.75 77.321 296.747 77.4669 296.661 77.5728C296.601 77.6472 296.507 77.6844 296.415 77.7187C294.742 78.3396 292.943 78.5169 291.216 78.9661C289.492 79.4153 287.744 80.2106 286.762 81.6955C285.951 82.9172 285.765 84.4363 285.221 85.7953C284.665 87.1772 283.723 88.3988 282.534 89.2972C281.886 89.7836 281.09 90.0296 280.282 90.0296C276.713 90.0267 273.156 90.1383 269.601 90.2957C269.437 90.4559 269.426 90.7363 269.323 90.9909C269.225 91.2427 269.042 91.4544 268.842 91.6375C268.1 92.3155 267.048 92.6446 266.052 92.5072C265.055 92.3728 263.915 90.7048 263.382 89.8522C261.431 89.8522 259.942 89.8064 257.65 89.8064C252.918 89.8064 248.197 89.3115 243.468 89.4231C239.89 89.506 235.665 89.7521 233.27 89.8093C232.228 92.2812 230.881 92.3842 229.681 92.3556C228.478 92.327 227.327 91.3886 227.163 90.2012C227.155 90.2098 227.149 90.2156 227.14 90.2241C226.364 90.9823 225.058 90.742 224.577 89.7721C224.537 89.692 224.497 89.6062 224.456 89.5146C224.439 89.486 121.364 89.3573 121.364 89.3573L93.6212 89.4345C93.1629 89.9752 92.5671 90.4015 91.9082 90.6619C91.6218 90.7735 91.3124 90.8564 91.0088 90.8164C90.2726 90.722 89.8143 89.9924 89.1898 89.5919C88.6484 89.2457 87.9868 89.157 87.348 89.0855C83.9249 88.7049 80.5362 87.9926 76.5088 88.5762C75.9788 88.6535 75.5434 89.0139 75.3372 89.5089C75.1653 89.9266 74.7672 90.3786 74.4607 90.5074C74.2286 90.6075 73.5469 90.6132 73.4495 90.6018C73.1029 90.5532 72.7878 90.3729 72.4985 90.1755C72.3266 90.0611 72.1634 89.938 72.0029 89.8064C71.7938 89.6405 71.5933 89.4574 71.4014 89.2657C71.3384 89.1999 71.2725 89.1312 71.198 89.074C71.1636 89.0483 71.1293 89.0254 71.0892 89.0054C70.9116 88.9167 70.7025 88.9281 70.5048 88.9252C70.0379 88.9224 69.5452 88.8251 69.1528 88.5905C68.9609 88.4761 68.7919 88.3302 68.6601 88.1442C68.5541 87.9926 68.471 87.8152 68.3221 87.7036C68.1789 87.5977 68.0013 87.5663 67.8208 87.5491L67.7091 87.5405C64.5037 87.3231 61.1924 87.1171 58.1188 87.9582H58.1159C57.6777 88.0755 57.248 88.2157 56.8183 88.3817C56.7467 88.622 56.6694 88.8766 56.572 89.1255C56.4431 89.4603 56.2741 89.7807 56.0105 90.0353C55.5551 90.4759 54.7244 90.5932 54.3176 90.1068C54.1801 91.5145 53.1661 92.8019 51.8284 93.2654C50.4878 93.7289 48.8952 93.3455 47.9126 92.327C47.1994 91.586 46.8385 90.6075 46.6437 89.5861V89.5833C46.5635 89.1656 46.509 88.7421 46.4718 88.3244C46.363 87.1114 46.3515 85.8926 46.34 84.6738C46.3114 81.3522 46.2799 78.0277 46.5377 74.7175C46.5663 74.3485 46.6036 73.9679 46.6666 73.596C46.7984 72.8064 47.0533 72.0511 47.6061 71.4875C48.265 70.8151 49.2504 70.5491 50.1899 70.5548C51.3643 70.5605 52.556 70.9753 53.3838 71.8079C53.9767 72.4058 54.3549 73.2298 54.3978 74.0681C54.4093 74.2455 54.4036 74.42 54.3835 74.5945C54.5611 74.3713 54.9392 74.297 55.2572 74.3914C55.5236 74.4715 55.7527 74.6317 55.9446 74.832C56.0993 74.9893 56.234 75.1667 56.3543 75.347C56.7811 75.9821 57.0962 76.6888 57.291 77.4298C57.3511 77.4441 57.4084 77.4584 57.4686 77.4698C57.9097 77.5728 58.3565 77.6529 58.8063 77.7159C61.8655 78.1708 65.048 77.8618 68.1244 77.4355C68.2505 77.4183 68.3736 77.4011 68.4997 77.384C68.7031 76.849 68.8434 76.6086 69.2158 76.3826C69.445 76.2539 69.7572 76.0937 70.2212 75.9764C70.5764 75.8877 70.9402 75.9478 71.2954 76.0279C71.367 76.045 71.4386 76.0364 71.4931 76.0021C71.5217 75.985 71.5475 75.9563 71.5618 75.9191C71.7308 75.4786 72.0087 75.3441 72.3266 74.872C72.6073 74.4572 73.037 74.1482 73.5354 74.0996C73.5755 74.0938 73.6128 74.091 73.6529 74.0938H73.6557C74.6325 74.0709 75.1911 75.038 75.5148 75.9048C75.5578 76.0193 75.6065 76.1394 75.7039 76.211C75.7755 76.2682 75.87 76.2882 75.9617 76.3054C76.8468 76.4799 77.7491 76.5886 78.6514 76.6287C79.4248 76.663 80.2011 76.6458 80.9774 76.6315C83.69 76.5772 85.7868 76.7002 88.6083 76.3254C88.6169 76.3254 88.6284 76.3225 88.637 76.3197C88.9893 76.2653 89.27 76.0336 89.5049 75.7675C89.7455 75.4957 89.9375 75.181 90.1036 74.975C90.4416 74.5659 90.9687 74.2483 91.4871 74.3656C91.6934 74.4114 91.8796 74.523 92.0543 74.6403C92.378 74.8577 92.6845 75.1038 92.9652 75.3727C93.2918 75.6817 93.647 76.0508 94.0938 76.0336C94.174 76.0078 219.767 75.8047 224.216 75.7961C224.296 75.7961 224.336 75.7961 224.336 75.7961C224.388 75.3841 224.623 74.9807 224.961 74.7547C225.118 74.6517 225.299 74.5831 225.491 74.5716C226.052 74.5373 226.588 75.1352 226.442 75.6531C226.459 75.6073 226.476 75.5615 226.496 75.5186L226.499 75.5129C226.676 75.0694 226.903 74.646 227.183 74.2626V74.2483C227.467 73.8449 227.805 73.4902 228.206 73.2012C229.068 72.5746 230.243 72.32 231.234 72.7148C232.225 73.1068 232.932 74.2197 232.698 75.2583C240.838 75.6474 248.988 75.8133 257.137 75.7561C257.438 75.7532 257.739 75.7532 258.04 75.7475C259.085 75.7303 260.134 75.6903 261.168 75.5587C261.468 75.5215 261.769 75.4757 262.07 75.4156C262.313 75.3727 262.557 75.3212 262.8 75.2611C262.886 74.7976 263.001 74.3914 263.15 74.0423C263.665 72.835 264.588 72.2742 266.109 72.1913C266.753 72.1541 267.361 72.1798 268.489 73.0753C268.993 73.4759 269.377 74.2855 269.016 74.8177C278.145 74.8463 287.323 73.6332 296.372 74.8434C296.467 74.8577 296.564 74.872 296.633 74.9378C296.722 75.0208 296.727 75.1524 296.73 75.2726C296.736 75.7332 296.739 76.1909 296.747 76.6487C296.747 76.7174 296.75 76.786 296.75 76.8547C296.747 76.9663 296.747 77.0779 296.75 77.1866Z" fill="#FFE7C2"/>
<path d="M296.745 76.6516C287.55 76.1909 278.337 76.0364 269.131 76.1938C269.237 74.8005 267.429 73.9107 266.1 74.3485C264.771 74.7891 263.892 76.0164 263.107 77.1723C262.422 77.1437 261.735 77.1179 261.05 77.0922C260.778 77.0807 260.506 77.0721 260.234 77.0635C250.936 76.7317 241.632 76.683 232.334 76.9148C232.829 75.6474 231.222 74.3599 229.89 74.6403C228.558 74.9207 227.642 76.128 226.969 77.3125C227.215 75.8848 224.379 75.6102 224.348 77.0578C203.74 77.1551 183.136 77.2495 162.472 77.3439C161.733 77.3468 160.991 77.3496 160.249 77.3525C151.449 77.3926 142.641 77.4326 133.816 77.4698C133.538 77.4698 133.26 77.4727 132.979 77.4727C127.628 77.4956 122.272 77.5184 116.907 77.5413C116.11 77.5442 115.311 77.5471 114.515 77.5499C110.069 77.5699 105.62 77.5871 101.166 77.6071C100.699 77.6071 100.23 77.61 99.7598 77.6129C97.6859 77.6186 95.612 77.6272 93.5381 77.6357C93.0683 76.7288 92.3236 75.676 91.3153 75.8448C90.8197 75.9277 90.433 76.3025 89.9976 76.5543C89.164 77.0378 88.1529 77.075 87.1904 77.1007C83.1773 77.2037 79.1641 77.3096 75.151 77.4126C75.3544 76.5715 74.4349 75.7761 73.5727 75.8448C72.7104 75.9106 72.0058 76.58 71.5646 77.3239C71.4615 76.7689 70.7368 76.5428 70.1983 76.7116C69.6569 76.8833 69.2444 77.3067 68.789 77.6415C67.8265 78.351 66.6349 78.6743 65.4604 78.8975C63.1545 79.3323 60.7885 79.4439 58.451 79.2236C58.1646 79.1979 57.8524 79.1549 57.6547 78.9461C57.4743 78.7573 57.4342 78.4797 57.3425 78.2337C57.1047 77.5986 56.4545 77.1437 55.7785 77.1351C55.0996 77.1265 54.6384 77.2238 54.3835 77.8503C54.3233 76.6687 54.3061 76.0536 53.8478 75.1181C53.2692 73.9308 51.4159 72.4573 50.0925 72.4631C48.8722 72.4688 47.8009 72.7835 46.6637 73.596C46.7955 72.8064 47.0504 72.0511 47.6032 71.4875C48.2621 70.8151 49.2475 70.5491 50.187 70.5548C51.3614 70.5605 52.5531 70.9753 53.3809 71.8079C53.9739 72.4058 54.352 73.2298 54.3949 74.0681C54.4064 74.2455 54.4007 74.42 54.3806 74.5945C54.5582 74.3713 54.9363 74.297 55.2543 74.3914C55.5207 74.4715 55.7498 74.6317 55.9418 74.832C56.0964 74.9893 56.2311 75.1667 56.3514 75.347C56.7782 75.9821 57.0933 76.6888 57.2881 77.4298C57.3482 77.4441 57.4055 77.4584 57.4657 77.4698C57.9068 77.5728 58.3537 77.6529 58.8034 77.7159C61.8626 78.1708 65.0451 77.8618 68.1215 77.4355C68.2476 77.4183 68.3707 77.4011 68.4968 77.384C68.7002 76.849 68.8405 76.6086 69.2129 76.3826C69.3103 76.3283 69.4535 76.2024 69.5824 76.1366C70.161 75.8448 70.5993 75.8305 71.3126 76.0336C71.3785 76.045 71.4415 76.0365 71.4902 76.005C71.5188 75.9878 71.5446 75.9592 71.5589 75.922C71.7279 75.4814 72.0058 75.3469 72.3237 74.8749C72.6045 74.46 73.0341 74.1511 73.5325 74.1024C73.5727 74.0967 73.6099 74.0938 73.65 74.0967H73.6529C74.6296 74.0738 75.1882 75.0408 75.5119 75.9077C75.5549 76.0221 75.6036 76.1423 75.701 76.2138C75.7726 76.2711 75.8671 76.2911 75.9588 76.3082C76.8439 76.4828 77.7462 76.5915 78.6485 76.6315C79.4219 76.6659 80.1982 76.6487 80.9745 76.6344C83.6871 76.58 85.7839 76.7031 88.6055 76.3283C88.614 76.3283 88.6255 76.3254 88.6341 76.3226C88.9864 76.2682 89.2672 76.0364 89.502 75.7704C89.7427 75.4986 89.9346 75.1839 90.1007 74.9779C90.4387 74.5688 90.9658 74.2512 91.4843 74.3685C91.6905 74.4143 91.8767 74.5258 92.0514 74.6431C92.3751 74.8606 92.6816 75.1066 92.9623 75.3756C93.2889 75.6845 93.6441 76.0536 94.0909 76.0365C94.1711 76.0107 219.764 75.8076 224.213 75.799C224.293 75.799 224.333 75.799 224.333 75.799C224.385 75.387 224.62 74.9836 224.958 74.7576C225.115 74.6546 225.296 74.5859 225.488 74.5745C226.049 74.5401 226.585 75.1381 226.439 75.6559C226.456 75.6102 226.473 75.5644 226.493 75.5215L226.496 75.5157C226.674 75.0723 226.9 74.6489 227.181 74.2655V74.2512C227.464 73.8478 227.802 73.493 228.203 73.2041C229.065 72.5775 230.24 72.3229 231.231 72.7177C232.222 73.1096 232.93 74.2226 232.695 75.2611C240.836 75.6502 248.985 75.8162 257.134 75.7589C257.435 75.7561 257.736 75.7561 258.037 75.7504C259.082 75.7332 260.131 75.6931 261.165 75.5615C261.466 75.5243 261.766 75.4786 262.067 75.4185C262.311 75.3756 262.554 75.3241 262.798 75.264C262.883 74.8005 262.998 74.3942 263.147 74.0452C263.663 72.8379 264.585 72.2771 266.106 72.1941C266.751 72.1569 267.358 72.1827 268.486 73.0782C268.991 73.4787 269.374 74.2884 269.013 74.8205C278.143 74.8491 287.32 73.6361 296.369 74.8463C296.464 74.8606 296.561 74.8749 296.63 74.9407C296.719 75.0237 296.724 75.1553 296.727 75.2754C296.733 75.736 296.736 76.1938 296.745 76.6516Z" fill="#FFF4E0"/>
<path d="M72.656 75.262C72.1375 75.8943 71.8024 76.6725 71.6935 77.4822C71.6162 78.0687 71.6563 78.6666 71.6964 79.256C71.831 81.2415 71.9685 83.2242 72.1032 85.2097C72.2979 82.9352 72.4899 80.6636 72.6846 78.3891C72.7248 77.9199 72.7677 77.445 72.951 77.013C73.1372 76.5809 73.4924 76.1947 73.9536 76.1003C74.6067 75.9658 75.3057 76.5581 75.277 77.2247C75.3142 76.6868 75.32 76.1346 75.1367 75.6254C74.9562 75.119 74.5523 74.6612 74.0252 74.5439C73.4982 74.4266 73.0055 74.8329 72.656 75.262Z" fill="#FFF4E0"/>
<path d="M90.2382 75.5047C89.9231 75.5448 89.6711 75.8109 89.5565 76.1055C89.4419 76.4031 89.439 76.7292 89.4362 77.0468C89.4104 80.1338 89.3846 83.218 89.3588 86.305C89.6567 83.6843 89.9546 81.0665 90.2525 78.4458C90.3299 77.7649 90.4158 77.0583 90.7939 76.4861C91.1692 75.9139 91.9283 75.5305 92.5556 75.8051C92.547 75.2787 92.1001 74.8181 91.5845 74.7008C91.0689 74.5835 90.5189 74.758 90.0921 75.0699C89.9403 75.1814 89.7885 75.3445 90.2382 75.5047Z" fill="#FFF4E0"/>
<path d="M231.798 74.5827C230.882 74.1564 229.75 74.6943 229.18 75.5268C228.61 76.3594 228.467 77.4008 228.355 78.405C227.971 81.8868 227.791 85.3915 227.762 88.8963C227.009 85.1455 227.086 81.2803 227.166 77.4551C227.178 76.923 227.189 76.3822 227.341 75.873C227.607 74.9661 228.329 74.2079 229.223 73.8903C230.117 73.5727 231.154 73.7101 231.798 74.5827Z" fill="#FFF4E0"/>
<path d="M268.28 73.9026C266.665 74.0972 265.562 75.6507 265.003 77.1785C263.708 80.7118 264.321 84.268 264.554 88.6024C264.244 88.2276 263.674 87.8328 263.19 87.7956C263.19 84.5026 263.007 83.0063 262.898 79.8621C262.852 78.5231 262.932 77.1441 263.436 75.9024C263.86 74.861 264.622 73.9627 265.579 73.3705C266.083 73.0615 266.673 72.8297 267.255 72.9299C267.839 73.0329 268.372 73.5679 268.28 73.9026Z" fill="#FFF4E0"/>
<path d="M296.742 77.3602C296.733 77.4375 296.71 77.5119 296.661 77.572C296.601 77.6463 296.507 77.6835 296.415 77.7179C294.742 78.3387 292.943 78.5161 291.216 78.9653C289.492 79.4144 287.744 80.2098 286.762 81.6947C285.951 82.9163 285.765 84.4355 285.221 85.7945C284.568 87.4195 283.379 88.8214 281.887 89.7369C281.566 89.9343 281.193 90.0316 280.818 90.0287C277.137 90.0144 273.468 90.1232 269.804 90.2862C269.644 90.292 269.506 90.3978 269.458 90.5494C269.412 90.6868 269.383 90.8441 269.323 90.99C269.225 91.2418 269.042 91.4535 268.842 91.6366C268.1 92.3147 267.048 92.6437 266.052 92.5064C265.118 92.3805 264.058 90.9099 263.491 90.023C263.422 89.9143 263.302 89.8514 263.173 89.8514C261.322 89.8485 259.859 89.8056 257.65 89.8056C252.918 89.8056 248.197 89.3106 243.468 89.4222C240.005 89.5023 235.934 89.7369 233.505 89.8027C233.359 89.8056 233.233 89.8943 233.173 90.0259C232.145 92.2861 230.844 92.3805 229.678 92.3547C228.662 92.3318 227.679 91.6538 227.304 90.7297C227.212 90.5037 226.94 90.4178 226.737 90.5523L226.714 90.5666C226.055 90.9958 225.161 90.7755 224.754 90.1031C224.686 89.9915 224.617 89.8657 224.548 89.7226C224.485 89.5939 224.353 89.5138 224.21 89.5138C218.71 89.4794 121.361 89.3593 121.361 89.3593L93.7873 89.4365C93.6785 89.4365 93.5782 89.4851 93.5066 89.5653C93.0655 90.0459 92.5126 90.4264 91.9054 90.6667C91.6189 90.7783 91.3096 90.8613 91.0059 90.8212C90.2698 90.7268 89.8114 89.9973 89.187 89.5967C88.6456 89.2506 87.9839 89.1619 87.3451 89.0903C83.9221 88.7098 80.5334 87.9974 76.5059 88.5811C75.976 88.6583 75.5406 89.0188 75.3343 89.5138C75.1625 89.9315 74.7643 90.3835 74.4578 90.5123C74.2258 90.6124 73.544 90.6181 73.4466 90.6067C73.1 90.558 72.785 90.3778 72.4956 90.1804C72.3467 90.0802 72.2035 89.9744 72.0602 89.8599C72.0201 89.8285 71.9714 89.8027 71.9227 89.7884C71.7394 89.7369 71.5675 89.6797 71.4186 89.6225C71.2639 89.5624 71.1722 89.405 71.1837 89.2391C71.1866 89.1847 71.1923 89.1304 71.1952 89.076C71.1608 89.0503 71.1264 89.0274 71.0863 89.0074C70.9087 88.9187 70.6996 88.9301 70.502 88.9273C70.035 88.9244 69.5424 88.8271 69.1499 88.5925C68.958 88.4781 68.789 88.3322 68.6572 88.1462C68.5512 87.9946 68.4682 87.8172 68.3192 87.7056C68.176 87.5998 67.9984 87.5683 67.8179 87.5511L67.7062 87.5425C64.5009 87.3251 61.1895 87.1191 58.1159 87.9602H58.1131C57.735 88.0604 57.3626 88.1805 56.9931 88.3179C56.8813 88.3579 56.7983 88.4495 56.761 88.5639C56.7037 88.7499 56.6436 88.9416 56.5691 89.1275C56.4402 89.4623 56.2712 89.7827 56.0077 90.0373C55.6754 90.3606 55.1397 90.5094 54.7187 90.3749C54.5067 90.3063 54.2775 90.4178 54.2231 90.6324C53.9166 91.8254 52.9942 92.8611 51.8255 93.2674C50.4849 93.7309 48.8923 93.3475 47.9098 92.329C47.1965 91.588 46.8356 90.6095 46.6408 89.5882C48.7262 90.5952 51.2383 90.0001 53.3838 89.1075C53.507 89.056 53.633 88.9959 53.7562 88.9273C54.0713 88.7499 54.3606 88.5096 54.4608 88.2091C54.5955 88.1233 54.7244 88.0403 54.859 87.9574C55.4434 88.006 56.0506 87.7829 56.4545 87.3537C56.466 87.3423 56.4774 87.328 56.4889 87.3137C56.6665 87.1162 56.8155 86.8845 57.0446 86.7443C57.1707 86.6671 57.3139 86.6242 57.4628 86.5955C57.5574 86.5784 57.6547 86.5641 57.7521 86.5526C61.0606 86.1607 64.3949 86.0062 67.7205 86.0949C68.0242 86.1035 68.3278 86.112 68.6314 86.1235C68.6859 86.2064 68.7403 86.2894 68.7976 86.3667C69.2616 87.019 69.7858 87.4825 70.3759 87.8315C70.5621 87.9402 70.7684 88.0432 70.9832 88.0146C71.0834 88.0003 71.1694 87.966 71.241 87.9087C71.3527 87.8258 71.4787 87.6913 71.5933 87.534C71.7566 87.3108 72.0746 87.3308 72.235 87.5597C72.2522 87.5855 72.2722 87.6083 72.2951 87.6341C72.5185 87.8744 72.7678 88.0833 73.0513 88.2521C73.6701 88.6183 74.4664 88.7442 75.1138 88.4352C75.6523 88.1777 76.0247 87.5797 75.9932 87.0018C75.9817 86.7987 76.1335 86.6213 76.3369 86.6013C80.3672 86.2036 84.4291 86.1378 88.4709 86.3953C88.7831 86.4153 89.0953 86.4382 89.4075 86.4611C89.4104 86.4954 89.4104 86.5297 89.4161 86.5641C89.4161 86.5641 89.419 86.5669 89.4161 86.5698C89.525 87.7199 90.6364 88.6927 91.7965 88.6326C92.8764 88.5754 93.816 87.6312 93.9334 86.5698C93.9563 86.3724 94.111 86.215 94.3115 86.2179C101.69 86.2436 216.866 86.9846 224.038 87.0276C224.098 87.0276 224.15 87.0276 224.193 87.0304C224.316 87.0304 224.428 87.0934 224.499 87.1935C224.597 87.3308 224.694 87.471 224.792 87.6083C224.815 87.6427 224.832 87.6799 224.846 87.7199C225.253 89.1161 225.866 88.8472 225.866 88.8472C225.866 88.8472 226.57 88.5553 226.748 88.172V88.1691C226.768 88.129 226.785 88.089 226.802 88.0489C227.112 88.3551 227.453 88.6326 227.814 88.8729C228.229 89.1533 228.673 89.385 229.14 89.5653C229.822 89.8313 230.586 89.983 231.291 89.7798C231.896 89.6053 232.431 89.1104 232.563 88.5096C232.6 88.3322 232.743 88.1977 232.924 88.1948C242.528 87.9831 252.136 87.8172 261.746 87.6484C262.236 87.6398 262.735 87.6341 263.196 87.8C263.686 87.9745 264.084 88.3293 264.533 88.5925C264.551 88.6011 264.568 88.6125 264.582 88.6269C266.318 90.086 267.621 89.9086 268.787 88.2063C268.925 88.0032 269.151 87.8601 269.38 87.7743C269.632 87.6799 269.913 87.7171 270.179 87.7514C273.577 88.1948 277.028 88.1977 280.426 87.76C281.228 87.657 282.053 87.5168 282.72 87.0619C284.874 85.5856 283.986 82.0981 285.398 79.9037C286.633 77.9897 289.217 77.5891 291.485 77.3688C293.087 77.2143 294.688 77.0598 296.292 76.9082C296.484 77.0999 296.544 77.16 296.742 77.3602Z" fill="#F5CC8E"/>
<path d="M262.803 80.8999C262.528 79.1404 262.313 77.4924 262.067 75.4182C262.311 75.3753 262.554 75.3238 262.798 75.2637C262.884 74.8002 262.998 74.394 263.147 74.0449C263.179 74.2423 263.167 74.4512 263.156 74.6543C263.027 76.7028 263.05 78.7398 262.958 80.8913C262.955 80.9857 262.818 80.9914 262.803 80.8999Z" fill="#F5CC8E"/>
<path d="M227.181 74.2656C227.183 76.008 227.149 77.7532 227.08 79.4927C226.742 78.3254 226.757 77.1352 226.493 75.5216L226.496 75.5159C226.674 75.0724 226.9 74.649 227.181 74.2656Z" fill="#F5CC8E"/>
<path d="M228.982 90.19C228.507 89.9955 228.152 89.5806 227.922 89.1228C227.693 88.6651 227.582 88.1587 227.467 87.658C227.155 86.2676 227.375 82.9059 227.181 82.5025C226.456 81.7787 226.628 86.6252 226.837 89.3431C226.871 89.8038 227.521 90.7422 227.92 90.9768C228.318 91.2114 228.957 91.0569 228.982 90.19Z" fill="#F5CC8E"/>
<path d="M225.674 89.3289C224.981 88.5479 224.706 87.475 224.628 86.4336C224.554 85.3922 224.654 84.3422 224.603 83.3008C224.597 83.1692 224.537 82.9918 224.405 83.009C224.285 84.6569 224.279 86.1217 224.058 87.8355C224.001 88.2703 224.107 88.731 224.345 89.1C224.666 89.5864 225.353 89.7981 225.674 89.3289Z" fill="#F5CC8E"/>
<path d="M224.726 76.4086C224.726 76.4086 224.694 80.0106 224.479 80.0764C224.285 80.1365 224.239 77.3699 224.239 75.9766C224.23 75.9194 224.222 75.8593 224.213 75.7992C224.293 75.7992 224.333 75.7992 224.333 75.7992C224.385 75.3872 224.62 74.9838 224.958 74.7578C224.895 74.8723 224.849 74.9953 224.815 75.1183C224.7 75.536 224.711 75.9737 224.726 76.4086Z" fill="#F5CC8E"/>
<path d="M89.3732 87.5776C89.3732 85.2316 89.3818 83.0544 89.3818 80.8629C89.3818 80.7999 89.2958 80.7885 89.2758 80.8457C88.8432 82.1761 88.5052 85.3146 88.3419 87.2028C88.3219 87.4289 88.3076 87.6778 88.4107 87.8609C88.511 88.0411 88.7029 88.0983 88.8719 88.064C89.0409 88.0239 89.1927 87.9095 89.3732 87.5776Z" fill="#F5CC8E"/>
<path d="M89.2901 79.2971C89.1469 78.5676 88.869 77.18 88.6513 76.3818C88.6427 76.3475 88.6628 76.316 88.6972 76.3103C89.0209 76.2387 89.2815 76.0184 89.5021 75.7695C89.5479 76.6851 89.462 78.436 89.4133 79.2857C89.4076 79.3601 89.3044 79.3658 89.2901 79.2971Z" fill="#F5CC8E"/>
<path d="M73.65 74.0968C73.5698 74.1369 73.4925 74.1827 73.418 74.2313C72.6933 74.7091 72.2206 75.4987 71.96 76.3255C71.7022 77.1552 71.811 78.9662 71.6477 78.9834C71.4787 79.0034 71.4873 76.9979 71.4902 76.0051C71.5188 75.9879 71.5446 75.9593 71.5589 75.9221C71.728 75.4816 71.897 75.2527 72.2808 74.8321C72.6303 74.4516 73.0342 74.1512 73.5326 74.1025C73.5727 74.0968 73.6099 74.094 73.65 74.0968Z" fill="#F5CC8E"/>
<path d="M72.5787 89.7892C72.381 89.7549 72.1862 89.7119 72 89.6633C71.6706 89.5775 71.3756 89.4688 71.1636 89.3629C71.1751 89.2199 71.1837 89.0739 71.1951 88.9309C71.218 88.5418 70.7339 88.4617 70.7397 88.0726C71.9857 87.4489 71.6449 86.3589 71.6449 85.7638C71.6449 84.3419 71.3785 80.9401 71.6649 80.963C72.2779 81.0116 72.1862 85.1429 72.1862 87.0569C72.1862 87.2028 72.2493 87.5891 72.3266 87.6663C72.8365 88.1727 72.6761 89.0167 72.5787 89.7892Z" fill="#F5CC8E"/>
<path d="M69.697 88.2784C69.5452 88.3929 69.3562 88.5159 69.1499 88.5903C68.958 88.4759 68.789 88.3299 68.6572 88.144C68.5512 87.9923 68.4682 87.815 68.3192 87.7034C68.176 87.5975 67.9984 87.566 67.8179 87.5489C67.795 87.423 67.7807 87.2971 67.7721 87.177C67.7463 86.8165 67.9669 86.4503 68.007 86.0926C68.1474 84.8595 68.1961 84.3789 68.2648 83.2288C68.3049 82.5822 68.282 81.0344 68.4882 81.1059C68.5742 81.1374 68.4682 83.738 68.5656 84.9311C68.6057 85.4117 68.6773 85.8952 68.7976 86.3644C68.9752 87.0568 69.2588 87.7148 69.697 88.2784Z" fill="#F5CC8E"/>
<path d="M69.2129 76.3828C68.6515 77.3384 68.6572 79.7874 68.4367 79.776C68.2161 79.7645 68.1846 78.2825 68.133 77.7132C68.1244 77.6216 68.1216 77.5272 68.1216 77.4357C68.2476 77.4185 68.3708 77.4013 68.4968 77.3842C68.7002 76.8492 68.8406 76.6088 69.2129 76.3828Z" fill="#F5CC8E"/>
<path d="M58.3508 87.3863C58.2935 87.5866 58.2133 87.7783 58.1159 87.9585H58.1131C57.6748 88.0758 57.2451 88.216 56.8155 88.3819C56.7439 88.6223 56.6665 88.8769 56.5691 89.1258C56.4173 89.0228 56.403 88.7911 56.4173 88.5994C56.4402 88.1702 56.3514 87.7182 56.4889 87.3119C57.0589 85.6325 57.0418 83.9245 57.1334 82.2308C57.1363 82.1822 57.1936 82.1478 57.2337 82.1764C57.566 82.4196 57.4199 84.0218 57.5602 84.8486C57.7693 86.0817 57.7751 86.282 58.0214 87.7325C58.1732 87.5809 58.2792 87.4693 58.3508 87.3863Z" fill="#F5CC8E"/>
<path d="M58.3508 87.3853C58.3623 87.3481 58.3737 87.308 58.3823 87.268C58.3938 87.2222 58.4167 87.165 58.4654 87.1621C58.4998 87.1621 58.4998 87.2107 58.3508 87.3853Z" fill="#F5CC8E"/>
<path d="M55.134 88.6355C54.1973 87.823 54.3405 85.2567 54.3405 83.872C54.3405 82.1639 54.4465 80.2299 54.2001 78.5391C53.5671 81.5174 54.203 86.135 53.7218 89.1419C53.6788 89.4166 53.6788 89.7856 53.9452 89.8715C54.0569 89.9058 54.1772 89.8715 54.2861 89.8257C54.8819 89.5739 55.4319 88.8901 55.134 88.6355Z" fill="#F5CC8E"/>
<path d="M58.6688 77.6757C58.2305 78.597 57.8868 79.5669 57.6462 80.5596C57.5946 80.7799 57.3024 81.3321 57.3024 81.1061C57.3024 80.8286 57.3569 80.1534 57.3626 79.9302C57.3855 79.0948 57.4113 78.2594 57.3311 77.4297C57.7722 77.5327 58.2191 77.6128 58.6688 77.6757Z" fill="#F5CC8E"/>
<path d="M55.9418 74.8322C55.7585 74.878 55.5752 74.9295 55.4147 75.0297C55.2457 75.1327 55.1111 75.2843 54.9908 75.4416C54.3979 76.2084 54.6241 77.9593 54.2059 78.0766C54.2747 77.0409 54.2002 75.4846 54.2718 74.4489C54.2775 74.3516 54.2833 74.2515 54.3262 74.1656C54.3434 74.1313 54.3663 74.097 54.395 74.0684C54.4064 74.2457 54.4007 74.4203 54.3807 74.5948C54.5583 74.3716 54.9364 74.2972 55.2543 74.3917C55.5207 74.4718 55.7499 74.632 55.9418 74.8322Z" fill="#F5CC8E"/>
<path d="M213.007 77.8646C213.007 78.0334 212.938 78.1936 212.818 78.3338C212.732 78.4311 212.62 78.5227 212.486 78.597C212.191 78.763 211.795 78.866 211.36 78.866C210.991 78.866 210.65 78.7916 210.375 78.6686C210.372 78.6657 210.369 78.6628 210.363 78.66C210.014 78.4998 209.776 78.2566 209.724 77.9791C209.716 77.9419 209.713 77.9047 209.713 77.8646C209.713 77.3096 210.449 76.8633 211.36 76.8633C212.271 76.8633 213.007 77.3096 213.007 77.8646Z" fill="#F5CC8E"/>
<path d="M190.951 77.8646C190.951 78.0134 190.899 78.1536 190.802 78.2795C190.799 78.2823 190.796 78.2881 190.793 78.2909C190.713 78.3968 190.604 78.4883 190.475 78.5684C190.177 78.7372 189.762 78.8402 189.304 78.8402C188.845 78.8402 188.433 78.7372 188.135 78.5656C188.126 78.5627 188.115 78.557 188.106 78.5484C188.095 78.5427 188.086 78.537 188.075 78.5284C187.814 78.3539 187.656 78.1221 187.656 77.8646C187.656 77.3096 188.393 76.8633 189.304 76.8633C190.214 76.8633 190.951 77.3096 190.951 77.8646Z" fill="#F5CC8E"/>
<path d="M163.022 77.433C163.022 77.7191 162.821 77.9823 162.501 78.1625C162.48 78.1769 162.458 78.1883 162.435 78.1997C162.257 78.2913 162.045 78.36 161.813 78.4C161.776 78.4057 161.741 78.4115 161.707 78.4143C161.687 78.4172 161.67 78.42 161.653 78.42C161.564 78.4315 161.469 78.4343 161.375 78.4343C161.318 78.4343 161.26 78.4315 161.203 78.4286C160.942 78.4115 160.702 78.36 160.493 78.2798C160.455 78.2655 160.421 78.2512 160.389 78.2341C159.988 78.0538 159.728 77.762 159.728 77.433C159.728 76.8808 160.464 76.4316 161.375 76.4316C162.286 76.4316 163.022 76.8808 163.022 77.433Z" fill="#F5CC8E"/>
<path d="M134.99 77.8646C134.99 78.125 134.827 78.3624 134.558 78.537C134.257 78.7401 133.824 78.866 133.343 78.866C133.105 78.866 132.876 78.8345 132.673 78.7801C132.097 78.6228 131.696 78.2709 131.696 77.8646C131.696 77.3096 132.432 76.8633 133.343 76.8633C134.251 76.8633 134.99 77.3096 134.99 77.8646Z" fill="#F5CC8E"/>
<path d="M117.374 77.558C117.374 77.8584 117.159 78.1245 116.818 78.3076C116.723 78.3591 116.623 78.402 116.511 78.4392C116.511 78.4392 116.511 78.4392 116.508 78.4392C116.451 78.4592 116.394 78.4735 116.334 78.4907C116.311 78.4935 116.288 78.4993 116.265 78.5021C116.13 78.5336 115.984 78.5508 115.835 78.5536C115.795 78.5565 115.764 78.5593 115.755 78.5593H115.726C115.698 78.5593 115.661 78.5565 115.62 78.5536C115.291 78.5422 114.99 78.4735 114.744 78.3619C114.34 78.1788 114.079 77.887 114.079 77.558C114.079 77.0058 114.816 76.5566 115.726 76.5566C116.634 76.5566 117.374 77.0058 117.374 77.558Z" fill="#F5CC8E"/>
<path d="M102.117 77.8646C102.117 78.1536 101.914 78.4168 101.59 78.5999C101.332 78.7458 100.997 78.8402 100.625 78.8603C100.573 78.8631 100.522 78.866 100.47 78.866C100.29 78.866 100.118 78.8488 99.9546 78.8145C99.7025 78.763 99.4762 78.6772 99.2929 78.5627C99.0007 78.3825 98.8231 78.1364 98.8231 77.8646C98.8231 77.3096 99.5622 76.8633 100.47 76.8633C101.381 76.8633 102.117 77.3096 102.117 77.8646Z" fill="#F5CC8E"/>
<path d="M82.8565 78.4349C82.8565 78.764 82.5958 79.0558 82.1919 79.2389C82.106 79.2789 82.0114 79.3133 81.9141 79.3419C81.9112 79.3419 81.9055 79.3447 81.9026 79.3447C81.8224 79.3676 81.7365 79.3848 81.6505 79.3991C81.5245 79.422 81.3899 79.4334 81.2524 79.4334C81.2323 79.4363 81.2151 79.4363 81.2094 79.4363C81.175 79.4363 81.1235 79.4334 81.0633 79.4306C81.0203 79.4277 80.9745 79.4248 80.9229 79.4191C80.8714 79.4134 80.8198 79.4048 80.7625 79.3962C80.7368 79.3934 80.7081 79.3877 80.6795 79.3819C80.6709 79.3791 80.6594 79.3791 80.6508 79.3762C80.6136 79.3705 80.5763 79.3619 80.5391 79.3505C80.4303 79.319 80.3271 79.2818 80.2297 79.2389C80.2126 79.2303 80.1954 79.2217 80.1839 79.216C80.1094 79.1817 80.0435 79.1416 79.9805 79.0987C79.7199 78.9242 79.5623 78.6924 79.5623 78.4349C79.5623 77.8828 80.2985 77.4336 81.2094 77.4336C82.1174 77.4336 82.8565 77.8828 82.8565 78.4349Z" fill="#F5CC8E"/>
<path d="M261.233 75.5879C261.216 75.9169 261.199 76.2431 261.182 76.5692C261.173 76.7466 261.136 76.964 260.956 77.0298C260.821 77.0785 260.672 77.0155 260.543 76.9554C259.724 76.5692 258.91 76.1715 258.105 75.7624C259.151 75.7452 260.199 75.7081 261.233 75.5879Z" fill="#D49C6C"/>
<path d="M190.793 78.2923C190.713 78.3982 190.604 78.4897 190.475 78.5698C190.177 78.7386 189.762 78.8416 189.303 78.8416C188.845 78.8416 188.433 78.7386 188.135 78.567C188.126 78.5641 188.115 78.5584 188.106 78.5498C188.095 78.5441 188.086 78.5384 188.075 78.5326V78.5298C187.992 78.3209 188.003 78.0949 188.152 77.9175C188.241 77.8117 188.364 77.7344 188.49 77.6772C189.031 77.4254 189.716 77.4569 190.229 77.7544C190.461 77.8889 190.653 78.0749 190.793 78.2923Z" fill="#D49C6C"/>
<path d="M101.59 78.601C101.332 78.7469 100.997 78.8413 100.625 78.8613C100.573 78.8642 100.522 78.867 100.47 78.867C100.29 78.867 100.118 78.8499 99.9545 78.8155C99.7024 78.764 99.4761 78.6782 99.2928 78.5638C99.1009 78.3435 99.1123 78.0173 99.247 77.8771C99.4418 77.6769 99.9144 77.531 100.416 77.4995C100.911 77.468 101.45 77.6597 101.633 77.9057C101.771 78.0889 101.785 78.3921 101.59 78.601Z" fill="#D49C6C"/>
<path d="M116.818 78.3097C116.723 78.3612 116.623 78.4041 116.511 78.4413C116.511 78.4413 116.511 78.4413 116.508 78.4413C116.451 78.4613 116.394 78.4756 116.334 78.4928C116.311 78.4956 116.288 78.5014 116.265 78.5042C116.104 78.53 115.933 78.5471 115.835 78.5557C115.795 78.5586 115.764 78.5614 115.755 78.5614H115.726C115.512 78.5557 114.881 78.5014 114.624 78.2668C114.383 78.0465 114.386 77.6802 114.532 77.5315C114.727 77.3283 115.199 77.1853 115.701 77.1538C116.196 77.1224 116.735 77.3112 116.918 77.5572C117.067 77.7575 117.073 78.1008 116.818 78.3097Z" fill="#D49C6C"/>
<path d="M134.535 77.8368C134.718 78.0829 134.684 78.5406 134.225 78.7094C134.025 78.7838 133.423 78.841 133.372 78.841C133.191 78.841 132.509 78.7924 132.24 78.5435C132 78.3232 132.005 77.9599 132.148 77.8082C132.343 77.6079 132.816 77.462 133.317 77.4306C133.813 77.402 134.351 77.5936 134.535 77.8368Z" fill="#D49C6C"/>
<path d="M162.501 78.1619C162.48 78.1762 162.458 78.1876 162.435 78.1991C162.257 78.2906 162.045 78.3593 161.813 78.3993C161.776 78.4051 161.741 78.4108 161.707 78.4136C161.687 78.4165 161.67 78.4194 161.653 78.4194C161.564 78.4308 161.469 78.4337 161.375 78.4337C161.317 78.4337 161.26 78.4308 161.203 78.4279C160.942 78.4108 160.702 78.3593 160.493 78.2792C160.455 78.2649 160.421 78.2506 160.389 78.2334C160.346 78.2077 160.306 78.179 160.272 78.1476C160.031 77.9273 160.034 77.5639 160.18 77.4123C160.375 77.212 160.848 77.0661 161.349 77.0346C161.845 77.0032 162.383 77.1949 162.566 77.4409C162.71 77.6326 162.721 77.9502 162.501 78.1619Z" fill="#D49C6C"/>
<path d="M212.486 78.5985C212.191 78.7644 211.795 78.8674 211.36 78.8674C210.991 78.8674 210.65 78.7931 210.375 78.67C210.372 78.6672 210.369 78.6643 210.363 78.6615C210.323 78.6386 210.289 78.6128 210.257 78.5842C210.017 78.3639 210.019 78.0006 210.166 77.8518C210.36 77.6487 210.833 77.5056 211.334 77.4741C211.83 77.4427 212.368 77.6315 212.552 77.8775C212.695 78.0692 212.706 78.3868 212.486 78.5985Z" fill="#D49C6C"/>
<path d="M82.1919 79.2379C82.1059 79.278 82.0114 79.3123 81.914 79.3409C81.9112 79.3409 81.9054 79.3438 81.9026 79.3438C81.6534 79.401 81.5588 79.421 81.2953 79.4325C81.2724 79.4325 81.132 79.4353 81.0633 79.4296C81.0203 79.4268 80.9745 79.4239 80.9229 79.4182C80.8713 79.4125 80.7081 79.3896 80.6794 79.381C80.668 79.3781 80.4503 79.3524 80.2297 79.2379C80.2125 79.2294 80.1953 79.2208 80.1839 79.215C80.1438 79.1922 80.1094 79.1664 80.0779 79.1378C79.8373 78.9175 79.843 78.5542 79.9862 78.4025C80.181 78.2023 80.6536 78.0563 81.1549 78.0249C81.6505 77.9934 82.189 78.1851 82.3723 78.4311C82.5356 78.6486 82.527 79.0405 82.1919 79.2379Z" fill="#D49C6C"/>
</svg>
